<?xml version="1.0" encoding="UTF-8" standalone="no"?>
<!DOCTYPE svg PUBLIC "-//W3C//DTD SVG 1.1//EN" "http://www.w3.org/Graphics/SVG/1.1/DTD/svg11.dtd">
<svg width="100%" height="100%" viewBox="0 0 945 447" version="1.1" xmlns="http://www.w3.org/2000/svg" xmlns:xlink="http://www.w3.org/1999/xlink" xml:space="preserve" xmlns:serif="http://www.serif.com/" style="fill-rule:evenodd;clip-rule:evenodd;stroke-linecap:round;stroke-linejoin:round;stroke-miterlimit:1.5;">
    <g transform="matrix(1,0,0,1,-2786.31,-897.163)">
        <g transform="matrix(1,0,0,1,130.251,76.8171)">
            <g id="GNG-Texto-Negro" serif:id="GNG Texto Negro" transform="matrix(2.01014,0,0,2.01014,1926.41,-67.6257)">
                <g transform="matrix(18.0431,0,0,18.0431,-10693.8,-8565.46)">
                    <g>
                        <g transform="matrix(12,0,0,12,612.448,507.796)">
                            <path d="M0.52,-0.369L0.725,-0.369L0.725,-0.073C0.684,-0.044 0.636,-0.022 0.581,-0.007C0.526,0.008 0.473,0.016 0.42,0.016C0.345,0.016 0.278,0.001 0.219,-0.031C0.16,-0.062 0.113,-0.105 0.08,-0.161C0.046,-0.216 0.029,-0.279 0.029,-0.35C0.029,-0.421 0.046,-0.484 0.08,-0.54C0.113,-0.595 0.16,-0.639 0.221,-0.67C0.281,-0.7 0.349,-0.716 0.425,-0.716C0.494,-0.716 0.555,-0.705 0.61,-0.682C0.664,-0.659 0.709,-0.625 0.745,-0.581L0.594,-0.448C0.55,-0.499 0.498,-0.525 0.437,-0.525C0.385,-0.525 0.344,-0.509 0.313,-0.478C0.282,-0.447 0.267,-0.404 0.267,-0.35C0.267,-0.297 0.282,-0.255 0.313,-0.223C0.343,-0.191 0.383,-0.175 0.434,-0.175C0.464,-0.175 0.493,-0.181 0.52,-0.192L0.52,-0.369Z" style="fill-rule:nonzero;"/>
                        </g>
                        <g transform="matrix(0.043355,0,0,0.0313208,598.391,491.851)">
                            <rect x="437.63" y="367.579" width="87.164" height="38.092" style="stroke:black;stroke-opacity:0;stroke-width:0.73px;"/>
                        </g>
                        <g transform="matrix(12,0,0,12,620.998,507.796)">
                            <path d="M0.747,-0.7L0.747,-0L0.553,-0L0.287,-0.318L0.287,-0L0.057,-0L0.057,-0.7L0.251,-0.7L0.517,-0.382L0.517,-0.7L0.747,-0.7Z" style="fill-rule:nonzero;"/>
                        </g>
                        <g transform="matrix(-11.9905,0,0,12,639.172,507.796)">
                            <path d="M0.52,-0.369L0.725,-0.369L0.725,-0.073C0.684,-0.044 0.636,-0.022 0.581,-0.007C0.526,0.008 0.473,0.016 0.42,0.016C0.345,0.016 0.278,0.001 0.219,-0.031C0.16,-0.062 0.113,-0.105 0.08,-0.161C0.046,-0.216 0.029,-0.279 0.029,-0.35C0.029,-0.421 0.046,-0.484 0.08,-0.54C0.113,-0.595 0.16,-0.639 0.221,-0.67C0.281,-0.7 0.349,-0.716 0.425,-0.716C0.494,-0.716 0.555,-0.705 0.61,-0.682C0.664,-0.659 0.709,-0.625 0.745,-0.581L0.594,-0.448C0.55,-0.499 0.498,-0.525 0.437,-0.525C0.385,-0.525 0.344,-0.509 0.313,-0.478C0.282,-0.447 0.267,-0.404 0.267,-0.35C0.267,-0.297 0.282,-0.255 0.313,-0.223C0.343,-0.191 0.383,-0.175 0.434,-0.175C0.464,-0.175 0.493,-0.181 0.52,-0.192L0.52,-0.369Z" style="fill-rule:nonzero;"/>
                        </g>
                        <g transform="matrix(0.043355,0,0,0.0313208,611.514,491.851)">
                            <rect x="437.63" y="367.579" width="87.164" height="38.092" style="stroke:black;stroke-opacity:0;stroke-width:0.73px;"/>
                        </g>
                    </g>
                </g>
                <g transform="matrix(0.575934,0,0,0.575934,89.7028,270.083)">
                    <g transform="matrix(116.341,0,0,116.341,571.808,682.548)">
                        <path d="M0.244,-0.613L0.004,-0.613L0.004,-0.7L0.583,-0.7L0.583,-0.613L0.343,-0.613L0.343,-0L0.244,-0L0.244,-0.613Z" style="fill-rule:nonzero;"/>
                    </g>
                    <g transform="matrix(116.341,0,0,116.341,645.918,682.548)">
                        <path d="M0.573,-0L0.422,-0.215C0.403,-0.214 0.389,-0.213 0.378,-0.213L0.205,-0.213L0.205,-0L0.105,-0L0.105,-0.7L0.378,-0.7C0.469,-0.7 0.54,-0.678 0.592,-0.635C0.644,-0.592 0.67,-0.532 0.67,-0.456C0.67,-0.402 0.657,-0.356 0.63,-0.318C0.603,-0.28 0.565,-0.252 0.516,-0.235L0.682,-0L0.573,-0ZM0.375,-0.298C0.438,-0.298 0.487,-0.312 0.52,-0.339C0.553,-0.366 0.57,-0.405 0.57,-0.456C0.57,-0.507 0.553,-0.546 0.52,-0.573C0.487,-0.6 0.438,-0.613 0.375,-0.613L0.205,-0.613L0.205,-0.298L0.375,-0.298Z" style="fill-rule:nonzero;"/>
                    </g>
                    <g transform="matrix(116.341,0,0,116.341,736.315,682.548)">
                        <path d="M0.551,-0.175L0.179,-0.175L0.102,-0L-0.001,-0L0.316,-0.7L0.415,-0.7L0.733,-0L0.628,-0L0.551,-0.175ZM0.516,-0.255L0.365,-0.598L0.214,-0.255L0.516,-0.255Z" style="fill-rule:nonzero;"/>
                    </g>
                    <g transform="matrix(116.341,0,0,116.341,827.294,682.548)">
                        <rect x="0.105" y="-0.7" width="0.1" height="0.7" style="fill-rule:nonzero;"/>
                    </g>
                    <g transform="matrix(116.341,0,0,116.341,869.176,682.548)">
                        <path d="M0.707,-0.7L0.707,-0L0.625,-0L0.205,-0.522L0.205,-0L0.105,-0L0.105,-0.7L0.187,-0.7L0.607,-0.178L0.607,-0.7L0.707,-0.7Z" style="fill-rule:nonzero;"/>
                    </g>
                    <g transform="matrix(116.341,0,0,116.341,969.462,682.548)">
                        <rect x="0.105" y="-0.7" width="0.1" height="0.7" style="fill-rule:nonzero;"/>
                    </g>
                    <g transform="matrix(116.341,0,0,116.341,1011.35,682.548)">
                        <path d="M0.707,-0.7L0.707,-0L0.625,-0L0.205,-0.522L0.205,-0L0.105,-0L0.105,-0.7L0.187,-0.7L0.607,-0.178L0.607,-0.7L0.707,-0.7Z" style="fill-rule:nonzero;"/>
                    </g>
                    <g transform="matrix(116.341,0,0,116.341,1111.63,682.548)">
                        <path d="M0.59,-0.354L0.686,-0.354L0.686,-0.081C0.651,-0.052 0.611,-0.03 0.565,-0.015C0.519,0 0.471,0.008 0.421,0.008C0.35,0.008 0.287,-0.008 0.23,-0.039C0.173,-0.07 0.129,-0.112 0.097,-0.167C0.064,-0.221 0.048,-0.282 0.048,-0.35C0.048,-0.418 0.064,-0.479 0.097,-0.534C0.129,-0.589 0.173,-0.631 0.231,-0.662C0.288,-0.693 0.352,-0.708 0.423,-0.708C0.479,-0.708 0.53,-0.699 0.576,-0.681C0.621,-0.662 0.66,-0.635 0.692,-0.6L0.63,-0.538C0.574,-0.592 0.506,-0.619 0.427,-0.619C0.374,-0.619 0.326,-0.608 0.284,-0.585C0.241,-0.562 0.208,-0.53 0.184,-0.489C0.16,-0.448 0.148,-0.401 0.148,-0.35C0.148,-0.299 0.16,-0.254 0.184,-0.213C0.208,-0.171 0.241,-0.139 0.284,-0.116C0.326,-0.093 0.373,-0.081 0.426,-0.081C0.489,-0.081 0.543,-0.096 0.59,-0.126L0.59,-0.354Z" style="fill-rule:nonzero;"/>
                    </g>
                </g>
            </g>
        </g>
    </g>
</svg>
