<svg xmlns="http://www.w3.org/2000/svg" width="869.123" height="173.833" viewBox="0 0 869.123 173.833">
  <g id="Grupo_371" data-name="Grupo 371" transform="translate(-668.769 -2803)">
    <path id="Path_230" data-name="Path 230" d="M1509.937,1203.684v161.942h-43.23v-63.286h-58.965v63.286h-42.917V1203.684h42.917v60.839h58.965v-60.839Z" transform="translate(-696.056 1609.111)" fill="#5720b2"/>
    <path id="Path_231" data-name="Path 231" d="M1456.508,1338.44a69.122,69.122,0,0,1-34.169-8.333,59.759,59.759,0,0,1-23.8-22.969,68.472,68.472,0,0,1-.054-66.985,59.384,59.384,0,0,1,23.595-23.022,75.714,75.714,0,0,1,68.859,0,58.913,58.913,0,0,1,23.909,22.915,67.537,67.537,0,0,1,8.541,33.443,69.016,69.016,0,0,1-8.541,33.65,58.739,58.739,0,0,1-23.8,22.969,69.165,69.165,0,0,1-34.483,8.333Zm0-34.9a23.079,23.079,0,0,0,18.022-7.815,33.164,33.164,0,0,0,6.874-22.242,32.179,32.179,0,0,0-6.928-21.775,23.376,23.376,0,0,0-17.861-7.861,22.647,22.647,0,0,0-17.922,7.861,31.749,31.749,0,0,0-6.981,21.775,32.368,32.368,0,0,0,6.927,22.135A23.023,23.023,0,0,0,1456.508,1303.544Z" transform="translate(-554.753 1638.375)" fill="#5720b2"/>
    <path id="Path_232" data-name="Path 232" d="M1537.257,1209.16v125.431h-39.43V1321.15a42.535,42.535,0,0,1-15.782,11.461,46.594,46.594,0,0,1-19.328,4.006,47.552,47.552,0,0,1-36.456-14.321c-9.014-9.588-13.648-23.962-13.648-42.97V1209.16h41.41v62.819a35.689,35.689,0,0,0,4.893,20.728,18.025,18.025,0,0,0,14.742,6.567,20.168,20.168,0,0,0,15.995-7.4,32.513,32.513,0,0,0,6.194-22.289V1209.16Z" transform="translate(-425.226 1640.144)" fill="#5720b2"/>
    <rect id="Rectangle_43" data-name="Rectangle 43" width="41.443" height="171.708" transform="translate(1138.62 2803.071)" fill="#5720b2"/>
    <path id="Path_233" data-name="Path 233" d="M1501.656,1208.856c19.589,0,34.589,4.787,44.9,14.268s15.628,23.962,15.628,43.543v69.7h-38.65v-16.148c-5.834,12.081-17.6,18.175-35,18.175a54.455,54.455,0,0,1-23.855-5,39.61,39.61,0,0,1-15.1-13.8,38.363,38.363,0,0,1-5-19.848,32.971,32.971,0,0,1,12.914-27.6c8.647-6.567,21.775-9.848,39.69-9.848h23.542c-.62-13.28-9.061-19.9-24.9-19.9a52.458,52.458,0,0,0-17.448,2.968,42.878,42.878,0,0,0-14.848,8.021l-13.955-29.9a74.006,74.006,0,0,1,23.956-10.682A102.908,102.908,0,0,1,1501.656,1208.856Zm-1.46,101.775a24.087,24.087,0,0,0,12.761-3.54,21.345,21.345,0,0,0,7.714-10.994l.047-10.882H1502.7c-11.875,0-17.915,4.268-17.915,12.708a10.78,10.78,0,0,0,4.166,9.322,17.07,17.07,0,0,0,11.247,3.333Z" transform="translate(-244.3 1638.421)" fill="#5720b2"/>
    <path id="Path_234" data-name="Path 234" d="M1519.8,1329.986l-12.082,13.128V1373.9h-41.623V1202.215h41.623v89.955l42.243-43.65h49.118l-49.118,53.651,53.179,71.672h-50.317Z" transform="translate(-122.167 1600.785)" fill="#5720b2"/>
    <path id="Path_235" data-name="Path 235" d="M1512.464,1272.5a22.643,22.643,0,0,1-17.4-7.394,27.938,27.938,0,0,1-.213-37.5,25.924,25.924,0,0,1,35.63-.054,25.038,25.038,0,0,1,6.874,18.755,26.1,26.1,0,0,1-6.874,18.8,23.23,23.23,0,0,1-17.915,7.394Z" transform="translate(0.487 1704.317)" fill="#5720b2"/>
  </g>
</svg>
