<?xml version="1.0" encoding="UTF-8" standalone="no"?>
<!DOCTYPE svg PUBLIC "-//W3C//DTD SVG 1.1//EN" "http://www.w3.org/Graphics/SVG/1.1/DTD/svg11.dtd">
<svg width="100%" height="100%" viewBox="0 0 2567 1141" version="1.1" xmlns="http://www.w3.org/2000/svg" xmlns:xlink="http://www.w3.org/1999/xlink" xml:space="preserve" xmlns:serif="http://www.serif.com/" style="fill-rule:evenodd;clip-rule:evenodd;stroke-linejoin:round;stroke-miterlimit:2;">
    <g transform="matrix(1,0,0,1,-248.551,-1007.87)">
        <path id="Milan-logo-oscuro-B" serif:id="Milan logo oscuro B" d="M802.326,2100.66C807.779,2111.94 811.165,2124.23 818.967,2134.38C822.239,2138.63 824.972,2143.33 828.508,2147.33C829.419,2148.37 833.617,2148.39 834.318,2147.43C843.152,2135.3 851.988,2123.01 856.663,2108.6C860.682,2096.2 864.534,2083.72 864.898,2070.4C865.218,2058.7 863.9,2047.3 860.923,2036.1C857.073,2021.62 849.747,2008.59 842.705,1995.51C840.584,1991.57 836.923,1988.49 834.18,1984.85C831.429,1981.21 829.099,1982.18 826.942,1985.25C816.779,1999.71 808.538,2015.13 802.867,2031.93C798.797,2043.99 796.939,2056.56 797.018,2069.01C797.081,2078.94 800.434,2088.85 802.326,2100.66ZM841.592,2035.85C845.115,2048.51 846.567,2060.85 845.87,2073.43C845.005,2089.05 839.107,2103.1 832.648,2117.02C831.064,2120.43 830.019,2117.05 829.86,2116.69C826.4,2109.01 822.178,2101.5 820.024,2093.45C817.565,2084.25 815.816,2074.55 815.846,2065.07C815.89,2051.11 819.119,2037.48 825.265,2024.75C826.404,2022.38 827.592,2020.04 828.836,2017.74C829.436,2016.63 830.22,2015.62 830.921,2014.56C832.105,2015.5 833.871,2016.19 834.373,2017.41C836.808,2023.32 838.903,2029.37 841.592,2035.85ZM1067.25,1852.76C1085.64,1870.41 1093.56,1892.47 1093.55,1917.44C1093.55,1924.81 1091.47,1932.22 1089.91,1939.52C1085.91,1958.22 1077.13,1974.49 1064.04,1988.38C1056.09,1996.83 1047.22,2003.98 1037.13,2010.07C1024.13,2017.92 1010.18,2022.55 995.531,2023.67C982.997,2024.62 970.197,2025.21 957.51,2022.3C946.871,2019.86 936.481,2017.01 926.388,2012.84C907.302,2004.97 891.495,1992.96 877.642,1977.61C866.254,1965 857.698,1950.94 851.103,1935.54C845.935,1923.46 842.426,1910.81 842.181,1897.65C841.892,1882.14 843.464,1884.13 826.625,1883.97C822.574,1883.92 821.398,1886.02 821.184,1889.73C820.78,1896.74 820.95,1903.97 819.188,1910.67C812.162,1937.37 801.247,1962.19 781.022,1981.86C775.272,1987.45 769.482,1993.14 763.007,1997.81C755.379,2003.32 747.492,2009.13 738.802,2012.33C727.289,2016.56 715.668,2020.62 703.181,2022.59C689.41,2024.77 675.472,2025.38 662.357,2023.39C645.734,2020.86 629.964,2014.25 615.714,2003.62C601.821,1993.26 591.06,1981.06 582.774,1966.25C570.262,1943.87 566.249,1920.07 571.505,1894.92C574.792,1879.2 582.329,1865.55 593.192,1853.78C604.632,1841.39 619.094,1833.45 635.064,1829.37C652.652,1824.87 670.172,1826.14 686.964,1834.66C702.574,1842.59 712.224,1855.23 719.098,1870.72C724.164,1882.14 724.859,1894.57 722.155,1905.86C717.937,1923.48 706.837,1936.98 688.948,1943.38C680.284,1946.49 671.344,1948.05 662.248,1945.4C647.344,1941.07 637.555,1931.65 633.175,1916.48C630.274,1906.43 629.907,1906.54 618.868,1906.69C618.238,1906.7 617.585,1906.8 616.98,1906.68C613.263,1905.91 612.982,1907.93 613.04,1910.94C613.413,1930.3 622.599,1945 637.888,1955.79C655.34,1968.11 674.799,1968.28 694.493,1962.38C709.83,1957.79 721.725,1948.19 730.363,1934.75C733.847,1929.33 738.218,1923.85 739.559,1917.82C742.126,1906.28 744.354,1894.9 742.33,1882.31C739.354,1863.78 732.07,1848 719.724,1834.86C703.505,1817.59 683.534,1807.25 658.928,1808.26C653.576,1808.48 648.169,1807.9 642.855,1808.4C637.238,1808.94 631.526,1809.77 626.165,1811.45C612.253,1815.82 599.792,1822.55 588.074,1831.72C577.921,1839.66 570.933,1849.62 564.068,1859.75C552.905,1876.22 550.442,1895.56 548.893,1914.87C548.566,1918.95 550.418,1923.15 550.573,1927.32C551.099,1941.52 555.662,1954.56 561.184,1967.43C568.235,1983.85 579.289,1997.12 591.797,2009.73C601.789,2019.81 613.684,2027.07 625.819,2033.03C641.786,2040.88 659.647,2044.11 677.664,2044.82C688.681,2045.26 699.371,2043.03 710.191,2041.26C724.325,2038.93 737.485,2034.36 750.144,2027.95C762.706,2021.59 774.196,2013.86 785.139,2004.8C796.585,1995.33 805.684,1984.44 813.811,1972.23C819.718,1963.35 825.314,1954.46 828.882,1944.37C829.36,1943.02 830.694,1941.97 831.631,1940.78C832.3,1942.07 833.217,1943.28 833.598,1944.64C836.416,1954.72 842.234,1963.28 847.78,1971.87C857.537,1986.97 870.238,1999.38 884.319,2010.56C910.45,2031.32 940.646,2041.38 973.294,2044.67C985.758,2045.93 998.207,2043.9 1010.52,2041.13C1041.19,2034.23 1066.07,2018.77 1085.45,1993.76C1100.56,1974.26 1109.31,1952.33 1112.39,1928.31C1114.04,1915.49 1113.85,1902.11 1110.63,1889.42C1103.64,1861.77 1088.01,1839.18 1064.32,1823.89C1040.55,1808.56 1013.65,1803.99 985.54,1810.2C959.822,1815.89 941.577,1831.38 929.15,1854.09C918.858,1872.91 916.659,1893.12 921.744,1913.66C925.66,1929.48 934.794,1942.56 948.282,1952.07C959.908,1960.26 972.47,1965.44 987.227,1965.64C995.776,1965.75 1004.43,1965.76 1011.95,1962.57C1030.89,1954.54 1044.49,1941.34 1048.44,1919.87C1050.9,1906.5 1051.38,1906.59 1037.9,1906.7C1031.44,1906.75 1030.01,1907.84 1029.44,1914.06C1028.54,1924.02 1023.24,1931.83 1016.04,1937.75C1003.02,1948.47 980.793,1949.54 966.265,1940.7C945.309,1927.96 932.721,1901.9 942.065,1875.43C949.34,1854.83 961.909,1840.6 981.92,1831.89C997.641,1825.05 1013.4,1826.07 1029.03,1829.97C1043.32,1833.53 1056.46,1840.15 1067.25,1852.76ZM1590.74,1764.46C1591.37,1766.72 1591.79,1769.08 1592.67,1771.24C1595.96,1779.34 1598.78,1787.71 1602.91,1795.36C1611.54,1811.3 1625.51,1822.25 1640.54,1831.49C1657.02,1841.61 1674.18,1850.67 1691.17,1859.95C1695.75,1862.45 1701.06,1863.63 1705.59,1866.2C1718.13,1873.31 1730.17,1881.35 1742.92,1888.06C1760.13,1897.13 1776.23,1907.39 1787.6,1923.57C1795.97,1935.5 1794.73,1946.32 1785.98,1953.16C1782.12,1956.18 1777.53,1959.18 1772.86,1960.1C1754.7,1963.7 1736.46,1963.61 1718.51,1958.37C1716.86,1957.89 1715.23,1956.87 1713.98,1955.69C1712.97,1954.74 1712.54,1953.18 1711.85,1951.89C1712.95,1951.54 1714.11,1950.78 1715.14,1950.92C1721.68,1951.79 1728.28,1952.49 1734.7,1953.96C1741.8,1955.58 1749.54,1951.4 1751.59,1944.13C1753.35,1937.88 1749.31,1930.34 1742.87,1928.16C1732.63,1924.71 1722.39,1921.23 1712.07,1918.01C1699.04,1913.95 1691.12,1917.43 1685,1929.42C1681.65,1935.98 1676.82,1941.99 1677.66,1950.03C1673.01,1953.37 1677.24,1956.88 1678.06,1959.79C1679.04,1963.33 1681.48,1966.97 1684.31,1969.35C1687.58,1972.11 1691.94,1973.58 1695.86,1975.54C1714.47,1984.88 1733.3,1990.18 1754.98,1987.34C1774.02,1984.84 1787.89,1976.12 1799.56,1962.3C1803.13,1958.07 1805.96,1953.03 1808.24,1947.96C1812.21,1939.14 1810.58,1929.53 1809.9,1920.44C1809.42,1913.99 1806.63,1907.23 1803.26,1901.58C1794.93,1887.62 1781.7,1878.37 1768.48,1869.67C1759.25,1863.59 1748.85,1859.29 1739.05,1854.06C1734.38,1851.56 1729.98,1848.57 1725.31,1846.1C1716.01,1841.17 1706.65,1836.35 1697.23,1831.66C1687.82,1826.99 1677.92,1823.17 1668.95,1817.79C1659.49,1812.11 1650.52,1805.45 1641.99,1798.42C1636.3,1793.72 1631.64,1787.72 1626.72,1782.12C1618.49,1772.78 1613.75,1761.44 1612.1,1749.49C1610.77,1739.81 1611.67,1729.64 1612.85,1719.84C1614.4,1706.97 1620.58,1695.76 1628.65,1685.78C1634.42,1678.64 1639.76,1670.5 1647.1,1665.42C1662.97,1654.44 1680.38,1645.96 1698.68,1639.38C1717.23,1632.71 1736.2,1628.21 1755.92,1629.35C1769.03,1630.1 1782.12,1632.13 1794.91,1635.55C1807.13,1638.83 1819.2,1642.65 1829.54,1650.08C1837.93,1656.11 1845.7,1663.02 1853.58,1669.74C1856.93,1672.59 1860.85,1675.41 1862.82,1679.15C1873.17,1698.75 1882.61,1718.74 1880.25,1741.91C1879.83,1746.14 1879.11,1750.13 1874.53,1752.24C1872.66,1753.11 1871.23,1754.92 1869.55,1756.23C1866.97,1758.26 1866.33,1759.9 1868.76,1763.04C1871.65,1766.76 1878.23,1769.42 1881.89,1766.45C1887.6,1761.83 1893.15,1756.46 1895.13,1749.32C1897.35,1741.28 1898.73,1732.81 1898.97,1724.48C1899.26,1714.67 1898.57,1704.73 1897.13,1695.01C1895.41,1683.39 1892.24,1671.67 1885.43,1662.12C1872.74,1644.34 1856.45,1630.16 1837.1,1619.68C1825.68,1613.5 1812.85,1611.12 1801.07,1606.17C1790.31,1601.65 1778.86,1604.48 1768.29,1600.77C1759.28,1604.1 1749.89,1602.05 1740.7,1602.7C1734.64,1603.13 1728.17,1602.76 1722.65,1604.81C1711.95,1608.77 1700.83,1611.19 1690.12,1615.31C1670.6,1622.81 1653.68,1633.99 1638.19,1647.36C1628.36,1655.85 1619.38,1665.65 1611.52,1676.01C1605.38,1684.1 1599.45,1692.53 1595.47,1702.39C1592.54,1709.65 1591.96,1717.22 1589.5,1724.48C1585.25,1736.98 1585.9,1750.01 1590.74,1764.46ZM2500,1913.01C2509.92,1910.92 2520.5,1912.61 2529.95,1907.72C2532.28,1906.52 2533.29,1907.65 2533.1,1910.21C2532.38,1919.71 2534.58,1923.05 2543.16,1928.21C2555.17,1935.43 2570.58,1933.69 2584.16,1928.85C2596.51,1924.44 2608.77,1919.33 2619.38,1911.17C2620.71,1910.15 2622.55,1909.52 2624.23,1909.28C2638.24,1907.29 2652.34,1905.84 2666.27,1903.41C2677,1901.55 2687.57,1898.69 2698.11,1895.89C2702.76,1894.65 2701.13,1889.18 2703.35,1886.15C2703.39,1886.1 2702.18,1884.66 2701.64,1884.72C2700.21,1884.86 2698.82,1885.45 2697.43,1885.89C2681.63,1890.98 2665.72,1895.38 2648.84,1894.1C2646.96,1893.96 2645.05,1893.93 2643.17,1894.11C2633.93,1894.97 2626.45,1890.86 2622.32,1883.43C2617.09,1874 2609.19,1871.61 2599.81,1871.46C2592.17,1871.34 2584.61,1871.37 2576.91,1873.01C2566.25,1875.28 2556.44,1878.58 2548.07,1885.7C2546.27,1887.23 2544.29,1888.66 2542.18,1889.7C2524.91,1898.17 2506.4,1902.09 2487.41,1903.36C2479.56,1903.88 2471.35,1903.2 2463.69,1901.41C2454.96,1899.37 2445.58,1898.07 2438.33,1892.1C2432.56,1887.35 2426.29,1882.57 2422.28,1876.47C2416.32,1867.42 2412.91,1857.08 2417.69,1845.98C2419.65,1841.43 2421.6,1836.89 2423.6,1832.36C2425.43,1828.21 2424.54,1826.37 2420.28,1826C2418.43,1825.84 2416.22,1825.45 2414.74,1826.23C2407.49,1830.02 2400.93,1835.14 2392.85,1837.33C2392.3,1837.48 2391.53,1837.75 2391.35,1838.17C2387.81,1846.16 2382.64,1853.52 2381.74,1862.54C2380.59,1873.92 2386.78,1882.47 2392.92,1890.97C2393.91,1892.33 2395.71,1893.21 2397.27,1894.06C2402.93,1897.11 2408.41,1900.67 2414.39,1902.91C2428.87,1908.34 2443.66,1912.87 2459.36,1912.99C2472.28,1913.08 2485.19,1913.01 2500,1913.01ZM2129.11,1816.5C2141.45,1817.18 2153.75,1816.56 2166.19,1817.96C2182.47,1819.79 2199.12,1817.75 2215.5,1820.27C2219.96,1820.96 2224.42,1821.84 2228.91,1822.07C2231.87,1822.22 2234.74,1822.32 2235.93,1825.28C2237.01,1827.99 2238.72,1831.77 2237.67,1833.79C2232.87,1843.02 2239.67,1851.68 2238.24,1860.78C2237.58,1865 2240.57,1869.75 2241.56,1874.33C2241.71,1875.03 2239.76,1877.05 2239.21,1876.9C2236.71,1876.21 2234.28,1875.11 2231.96,1873.9C2223.87,1869.69 2215.41,1866.58 2206.21,1867.73C2200.41,1868.45 2194.59,1870 2189.12,1872.06C2176.55,1876.8 2164.06,1881.71 2156.84,1894.51C2154.76,1898.19 2150.57,1899.98 2145.88,1899.8C2140.84,1899.61 2135.79,1899.8 2130.74,1899.75C2122.17,1899.67 2117.5,1896.29 2114.96,1887.88C2113.43,1882.81 2112.44,1877.57 2111.12,1872.44C2109.62,1866.64 2104.58,1863.08 2098.82,1867.55C2094.32,1871.04 2089.16,1873.79 2085.14,1877.73C2079.61,1883.14 2073.77,1887.52 2066.07,1888.95C2064.6,1889.22 2062.97,1889.22 2061.52,1888.89C2056.23,1887.67 2054.64,1883.55 2054.41,1878.81C2054.17,1873.78 2054.51,1868.72 2054.31,1863.68C2054.12,1858.88 2050.08,1852.77 2046.56,1852.55C2036.39,1851.91 2027,1854.6 2018.81,1860.73C2017.7,1861.56 2016.63,1864.56 2017.11,1865.06C2020.32,1868.45 2019.43,1873.04 2021.05,1876.76C2030.53,1898.64 2048.37,1907.52 2067.62,1909.06C2077.34,1909.84 2086.17,1905.9 2094.32,1900.58C2096.87,1898.91 2098.98,1898.73 2102.35,1901C2115.4,1909.75 2129.61,1914.56 2145.58,1909.26C2148.38,1908.34 2151.78,1906.79 2154.13,1907.64C2156.76,1908.6 2158.45,1912.04 2160.69,1914.25C2161.74,1915.28 2163.04,1916.15 2164.37,1916.76C2172.71,1920.59 2180.61,1922.94 2190.65,1921.15C2201.51,1919.21 2212.54,1917.74 2223.15,1914.72C2230.95,1912.5 2237.29,1912.68 2245.03,1916.37C2254.16,1920.71 2264.69,1922.86 2274.84,1924.11C2288.33,1925.76 2302.04,1925.61 2315.65,1926.26C2332.77,1927.08 2348.85,1922.08 2364.99,1917.45C2370.06,1915.99 2375.16,1914.64 2380.16,1912.95C2383.37,1911.87 2385.03,1907.44 2383.55,1903.47C2382.14,1899.68 2378.86,1901.73 2376.56,1902.25C2374.06,1902.8 2371.86,1904.59 2369.38,1905.4C2350.07,1911.68 2330.51,1915.87 2309.92,1915.07C2294.33,1914.47 2281.9,1908.75 2271.9,1896.96C2269.52,1894.15 2269.25,1891.26 2270.98,1888.62C2273.48,1884.83 2276.58,1881.41 2279.6,1877.98C2289.12,1867.16 2297.32,1855.42 2304.13,1842.72C2312,1828.05 2319.14,1813.05 2325.02,1797.44C2331.08,1781.36 2338.35,1765.69 2343.67,1749.37C2349.14,1732.62 2354.08,1715.69 2357.62,1698.27C2360.28,1685.12 2362.72,1671.93 2364.44,1658.69C2365.76,1648.45 2365.49,1637.83 2364.49,1627.52C2363.39,1616.04 2359.62,1605.33 2347.02,1601.15C2343.11,1599.85 2338.94,1599.34 2334.9,1598.4C2331.83,1597.68 2322.69,1599.25 2320.08,1600.91C2306.03,1609.85 2296.48,1623.23 2287.35,1636.46C2273.67,1656.26 2263.47,1678.07 2256.89,1701.35C2252.81,1715.78 2249.06,1730.32 2245.56,1744.9C2243.27,1754.43 2241.23,1764.07 2239.94,1773.77C2238.69,1783.2 2238.3,1792.78 2238.02,1802.3C2237.89,1807.01 2236.33,1809.44 2231.53,1808.88C2227.99,1808.48 2224.49,1807.19 2220.96,1807.12C2205.62,1806.82 2190.45,1804.75 2175.2,1803.46C2157.25,1801.94 2139.16,1801.52 2121.13,1801.45C2064.68,1801.21 2008.23,1801.36 1951.78,1801.36C1949.57,1801.36 1947.34,1801.54 1945.17,1801.27C1944.29,1801.17 1942.8,1800.06 1942.83,1799.47C1943.05,1795.55 1942.69,1791.23 1944.2,1787.79C1951.48,1771.3 1956.07,1754.06 1959.74,1736.51C1960.4,1733.31 1961.43,1730.11 1961.52,1726.88C1961.61,1723.36 1956.41,1718.8 1952.35,1718.1C1949.44,1717.59 1943.53,1720.57 1942.78,1723.54C1938.72,1739.77 1931.5,1754.83 1925.64,1770.39C1922.06,1779.93 1917.97,1789.29 1914.41,1798.84C1913.29,1801.84 1911.79,1802.78 1908.62,1803.41C1897.71,1805.58 1886.95,1806.61 1876.08,1803.32C1874.69,1802.9 1873.01,1803.34 1871.48,1803.54C1867.91,1804.02 1863.87,1805.92 1860.92,1804.82C1856.99,1803.36 1852.96,1807.85 1849.65,1803.86C1846.43,1807.03 1842.09,1800.84 1839.01,1805.14C1833.86,1802.48 1828.29,1806.7 1823.66,1804.87C1818.41,1802.79 1813.38,1803.5 1808.25,1803.3C1789.59,1802.56 1770.93,1801.99 1752.27,1801.36C1751.03,1801.32 1749.78,1801.35 1748.56,1801.15C1741.17,1799.99 1733.82,1798.44 1726.38,1797.69C1721.54,1797.2 1717.29,1796.33 1712.65,1794.17C1705.28,1790.72 1697.64,1786.5 1688.67,1788.04C1683.07,1789.01 1676.28,1794.57 1675.89,1799.23C1675.45,1804.59 1679.38,1809.66 1685.22,1810.78C1692.55,1812.2 1699.9,1813.59 1707.3,1814.55C1718.74,1816.03 1730.19,1817.59 1741.69,1818.27C1754.66,1819.03 1767.66,1819.11 1780.66,1819.84C1796.68,1820.73 1812.86,1820.22 1829.09,1818.91C1853.53,1816.93 1878.24,1818.34 1902.84,1818.44C1907.61,1818.46 1909.43,1820.88 1908.63,1825.59C1906.81,1836.18 1903.85,1846.67 1903.18,1857.32C1901.7,1880.79 1907.49,1902.06 1927.11,1917.08C1938.81,1926.04 1951.96,1932.34 1967.28,1931.85C1970.82,1931.74 1974.32,1930.21 1977.85,1930.12C1988.54,1929.85 1997.94,1925.85 2007.37,1921.35C2015.48,1917.49 2019.15,1910.59 2021.77,1902.81C2022.16,1901.66 2020.79,1899.5 2019.64,1898.44C2019.14,1897.97 2016.8,1898.67 2015.93,1899.51C2006.05,1909.13 1994.19,1914.53 1980.82,1917.67C1969.04,1920.44 1958.33,1917.34 1949.59,1910.88C1933.05,1898.67 1929.05,1880.16 1929.63,1860.76C1929.94,1850.53 1932.19,1840.37 1933.19,1830.14C1934.05,1821.25 1937.52,1816.87 1946.19,1816.6C1961.39,1816.11 1976.64,1815.1 1991.76,1815.03C2029.01,1814.84 2066.34,1812.48 2103.57,1816.38C2111.37,1817.2 2119.33,1816.5 2129.11,1816.5ZM2598.88,1904.02C2592.77,1920.18 2574.16,1924.53 2563.94,1912.43C2558.17,1905.6 2556.38,1891.32 2567.24,1887.52C2568.94,1886.93 2571.38,1886.91 2572.93,1887.7C2578.91,1890.75 2584.75,1894.12 2590.49,1897.61C2593.3,1899.31 2595.78,1901.55 2598.88,1904.02ZM2192.97,1904.97C2187.35,1893.56 2189.97,1885.84 2200.19,1881.64C2203.63,1880.23 2206.7,1880.17 2209.22,1883.36C2211.66,1886.46 2214.43,1889.34 2216.51,1892.66C2219.51,1897.49 2217.69,1901.68 2213.1,1905.54C2206.25,1911.29 2199.97,1910.08 2192.97,1904.97ZM2276.24,1718.57C2282.07,1701.11 2286.46,1683.72 2293.07,1667.23C2299.38,1651.51 2306.28,1635.77 2317.4,1622.5C2319.52,1619.96 2321.61,1617.36 2323.38,1614.58C2326.19,1610.19 2330.91,1608.69 2334.67,1610.58C2337.9,1612.22 2340.79,1616.56 2341.78,1620.25C2344.99,1632.33 2345.01,1644.98 2343.62,1657.17C2341.03,1679.89 2337.13,1702.39 2331.14,1724.63C2323.97,1751.25 2314.8,1776.94 2304.45,1802.45C2296.15,1822.92 2284.93,1841.3 2272.07,1858.96C2271.52,1859.71 2270.64,1860.23 2270.1,1860.99C2265.61,1867.31 2265.3,1867.32 2262.21,1860.62C2261.48,1859.04 2260.73,1857.29 2260.69,1855.61C2260.53,1847.74 2260.75,1839.86 2260.58,1831.99C2260.48,1827.6 2262.26,1825.66 2266.66,1825.93C2269.16,1826.09 2271.7,1825.88 2274.21,1826C2275.37,1826.06 2276.51,1826.52 2277.65,1826.8C2277.41,1825.33 2277.69,1823.18 2276.82,1822.5C2273.57,1819.98 2270.06,1817.7 2266.41,1815.78C2263.87,1814.44 2261.93,1813.44 2262.43,1809.93C2263.2,1804.54 2262.33,1799.19 2264.1,1793.62C2266.08,1787.38 2265.3,1780.32 2266.37,1773.72C2268.85,1758.43 2271.74,1743.2 2274.42,1727.94C2274.94,1724.99 2275.32,1722.01 2276.24,1718.57ZM453.191,1373.06C444.566,1380.86 437.726,1389.93 434.567,1401.24C431.811,1411.1 430.912,1420.81 432.973,1431.39C436.767,1450.88 446.353,1465.72 462.197,1477.19C475.325,1486.69 489.758,1490.46 505.932,1490.64C520.228,1490.8 533.322,1486.88 545.364,1480.6C557.476,1474.29 567.736,1464.96 575.582,1453.26C585.136,1439.02 590.867,1423.73 590.375,1406.4C590.149,1398.44 590.605,1390.55 588.714,1382.54C586.269,1372.18 583.492,1361.91 578.325,1352.78C570.67,1339.26 561.014,1327.12 547.87,1318.22C530.423,1306.41 511.789,1297.77 490.288,1297.46C481.398,1297.33 472.567,1297.61 463.59,1298.91C448.434,1301.1 433.998,1305.7 421.134,1312.97C401.924,1323.83 386.052,1339.08 373.698,1357.8C362.568,1374.67 356.451,1393.46 354.245,1413.02C352.472,1428.75 353.512,1444.79 357.281,1460.68C360.017,1472.21 363.182,1483.51 368.17,1494.06C378.647,1516.22 392.258,1536.13 411.96,1551.51C424.658,1561.41 437.357,1570.99 453.097,1575.62C454.884,1576.15 457.554,1577.73 457.69,1579.05C458.089,1582.92 454.634,1580.56 452.936,1581.21C452.119,1581.52 451.251,1581.72 450.456,1582.07C434.292,1589.32 419.694,1598.92 406.534,1610.8C389.465,1626.2 376.57,1644.66 367.204,1665.47C359.233,1683.18 354.244,1701.86 353.955,1721.42C353.805,1731.57 353.431,1741.68 355.434,1751.91C357.206,1760.97 359.204,1769.86 362.743,1778.27C371.853,1799.92 384.859,1818.57 403.893,1833.06C419.711,1845.1 436.899,1853.52 456.275,1857.4C462.796,1858.71 469.535,1858.92 476.17,1859.67C480.68,1860.17 485.249,1861.49 489.673,1861.1C495.835,1860.56 501.838,1858.39 507.996,1857.58C519.358,1856.07 529.376,1851.44 538.979,1845.53C548.985,1839.38 557.577,1831.74 565.533,1823.03C574.374,1813.35 580.095,1802.08 584.568,1790.17C589.391,1777.32 590.677,1763.82 590.586,1750C590.507,1737.98 586.867,1727.05 582.463,1716.39C576.714,1702.48 565.602,1692.47 554.526,1682.81C550.888,1679.64 545.887,1677.96 541.386,1675.86C532.777,1671.85 523.685,1669.85 514.386,1667.74C501.402,1664.78 489.844,1667.78 478.469,1671.73C465.736,1676.16 454.719,1683.56 446.689,1695.32C435.111,1712.28 428.309,1729.74 433.209,1750.72C438.716,1774.29 453.789,1788.63 475.711,1796.46C479.809,1797.92 484.909,1796.58 489.546,1796.54C489.728,1792.83 489.925,1789.12 490.083,1785.41C490.137,1784.15 489.955,1782.87 490.119,1781.63C490.494,1778.79 489.28,1778.37 486.553,1777.88C472.409,1775.34 460.807,1768.22 454.999,1754.89C449.885,1743.16 450.64,1730.55 455.795,1718.73C467.991,1690.76 491.377,1684.12 514.971,1687.6C531.48,1690.04 545.865,1698.35 556.482,1712.6C566.996,1726.71 571.681,1742.18 571.38,1759.42C571.329,1762.33 569.718,1765.2 569.658,1768.1C569.462,1777.58 565.846,1786.33 561.505,1794.03C556.029,1803.75 549.171,1812.7 540.16,1820.28C527.409,1830.99 513.051,1837.87 497.258,1840.06C481.598,1842.23 465.462,1841.09 450.167,1835.53C428.609,1827.7 410.479,1815.5 396.153,1797.02C380.466,1776.78 374.102,1753.78 373.035,1729.06C372.639,1719.87 374.89,1710.49 376.633,1701.33C380.549,1680.75 388.962,1662.24 401.905,1645.56C417.255,1625.77 435.752,1610.31 458.731,1600.27C474.417,1593.41 490.858,1589.81 507.895,1588.81C513.903,1588.45 514.504,1587.94 514.685,1581.62C514.73,1580.05 514.7,1578.47 514.69,1576.89C514.642,1569.22 513.674,1568.39 505.874,1567.93C498.557,1567.49 490.932,1567.85 484.014,1565.86C462.984,1559.83 443.117,1551.75 425.751,1537.29C409.564,1523.82 397.588,1507.92 387.765,1489.63C377.63,1470.76 374.224,1450.34 373.106,1429.59C372.547,1419.24 374.386,1408.37 377.162,1398.29C383.587,1374.97 397.229,1355.78 415.893,1340.72C425.166,1333.24 435.654,1327.23 447.487,1323.5C456.448,1320.67 465.677,1319.91 474.423,1317.59C484.353,1314.96 493.639,1316.76 502.227,1318.67C523.717,1323.46 541.678,1334.88 554.833,1353.39C564.365,1366.81 569.526,1381.78 571.181,1397.65C572.624,1411.48 569.139,1425.01 561.975,1437.2C550.055,1457.49 531.876,1469.2 508.874,1471.12C488.287,1472.84 471.502,1464.61 459.602,1446.45C451.574,1434.2 449.647,1420.58 453.046,1408.07C457.074,1393.25 468.105,1382.37 485.095,1380.67C488.496,1380.34 490.183,1378.93 490.108,1375.45C490.033,1371.99 488.931,1367.92 490.344,1365.18C492.918,1360.19 490.192,1359.99 486.878,1359.88C484.812,1359.81 482.718,1360.4 480.645,1360.75C470.88,1362.37 462.216,1366.56 453.191,1373.06ZM1281.09,1760.04C1280.65,1760.48 1279.99,1760.84 1279.81,1761.36C1274.28,1778.03 1265.35,1792.64 1253.01,1805.11C1242.58,1815.65 1230.09,1823.05 1216.65,1829.22C1203.68,1835.18 1189.79,1836.44 1176.04,1838.4C1172.36,1838.92 1168.38,1837.33 1164.55,1836.67C1159.25,1835.77 1153.76,1835.45 1148.71,1833.78C1125.74,1826.19 1108.62,1811.63 1097.24,1790.12C1087.46,1771.65 1084.97,1752.08 1090.3,1732.35C1094.02,1718.63 1101.28,1706.25 1114.07,1697.84C1123.36,1691.72 1132.7,1687.38 1143.79,1684.78C1156.87,1681.71 1168.83,1683.78 1179.34,1689.49C1193.03,1696.93 1201.57,1709.01 1205.89,1725.21C1210.65,1743.03 1199.53,1767.92 1178.65,1773.56C1174.98,1774.55 1169.72,1774.71 1168.16,1777.16C1166.29,1780.07 1167.45,1785.04 1167.59,1789.1C1167.77,1794.25 1170.45,1796.25 1175.56,1795.02C1191.16,1791.27 1204.84,1784.29 1214.94,1771.33C1220.86,1763.73 1225.13,1755.1 1225.94,1745.7C1226.75,1736.28 1227.08,1726.65 1224.41,1717.15C1219.87,1700.95 1211.39,1687.61 1197.71,1677.74C1178.62,1663.95 1157.41,1661.58 1134.94,1666.37C1112.52,1671.15 1095.2,1683.89 1082.55,1702.39C1068.44,1723.05 1063.68,1746.45 1069.42,1770.84C1073.11,1786.48 1078.85,1801.55 1089.34,1814.65C1099.77,1827.68 1111.31,1838.84 1126.39,1846.15C1136.27,1850.93 1146.56,1853.78 1157.4,1855.98C1171.7,1858.88 1185.66,1857.76 1199.37,1855.29C1215.81,1852.33 1231.4,1846.08 1245.53,1836.7C1259.87,1827.19 1271.85,1815.57 1281.76,1801.32C1291.16,1787.8 1297.5,1773.14 1301.74,1757.53C1303.93,1749.48 1305.08,1741 1305.49,1732.65C1305.83,1725.6 1304.45,1718.46 1303.79,1711.36C1303.19,1705 1303.35,1698.43 1301.76,1692.31C1295.26,1667.26 1284.89,1643.74 1267.85,1624.17C1250.67,1604.43 1231.17,1587.08 1205.54,1578.49C1204.17,1578.03 1202.93,1577.18 1201.63,1576.51C1202.8,1575.55 1203.82,1574.28 1205.15,1573.7C1214,1569.81 1222.86,1565.82 1230.82,1560.37C1242.78,1552.19 1253.8,1542.97 1263.49,1531.96C1272.31,1521.95 1280.06,1511.5 1286.1,1499.63C1298.08,1476.12 1305.3,1451.83 1303.92,1429C1307.22,1423.53 1305.5,1418.26 1303.98,1412.6C1302.5,1407.1 1302.91,1401.12 1301.83,1395.47C1298.19,1376.28 1289.58,1358.96 1277.32,1344.27C1263.49,1327.69 1247.29,1313.48 1226.73,1304.72C1210.8,1297.94 1194.26,1295.24 1177.4,1293.71C1164.95,1292.58 1152.65,1295.42 1141.05,1299.44C1114.06,1308.8 1093.06,1325.59 1080.03,1351.65C1074.13,1363.44 1071.07,1375.72 1068.59,1388.67C1066.6,1399.08 1067.52,1408.92 1069.5,1418.35C1074.13,1440.35 1085.47,1458.74 1104.44,1471.76C1126.48,1486.89 1150.21,1491.95 1176.38,1484.79C1192.82,1480.29 1205.26,1469.84 1214.5,1456.74C1224.76,1442.22 1228.82,1424.81 1226.03,1406.86C1224.29,1395.72 1219.92,1385.34 1212,1376.75C1201.78,1365.67 1189.77,1358.65 1174.37,1357.82C1168.42,1357.5 1167.72,1357.43 1167.56,1362.39C1167.48,1364.91 1167.71,1367.45 1167.51,1369.95C1167.16,1374.5 1168.73,1376.26 1173.65,1377.03C1188.43,1379.34 1198.61,1388.58 1204.51,1401.76C1210.12,1414.29 1207.83,1427.25 1201.47,1438.86C1187.6,1464.22 1164.67,1472.7 1137.68,1465.66C1114.37,1459.57 1098.25,1444.05 1090.84,1421.69C1084.19,1401.64 1086.82,1380.96 1096.5,1361.98C1104.91,1345.48 1117.46,1332.6 1134.03,1323.83C1147.35,1316.78 1161.41,1314.18 1176.48,1314.19C1192.75,1314.19 1207.9,1318.06 1222.28,1324.84C1240.83,1333.6 1255.79,1346.89 1267.24,1363.97C1276.73,1378.12 1283.08,1393.84 1284.48,1410.61C1285.5,1422.78 1286.03,1435.25 1283.26,1447.7C1280.82,1458.68 1278.35,1469.46 1273.77,1479.77C1263.98,1501.85 1250.4,1520.7 1231.17,1535.87C1208.25,1553.94 1182.07,1562.55 1153.74,1565.99C1144.89,1567.07 1144.84,1566.61 1144.84,1575.69C1144.84,1577.58 1145,1579.49 1144.8,1581.36C1144.5,1584.18 1145.47,1584.98 1148.38,1585.11C1155.07,1585.4 1161.95,1585.42 1168.37,1587.06C1184.22,1591.11 1199.74,1596.31 1214.21,1604.2C1225.72,1610.48 1236,1618.7 1244.87,1627.93C1252.63,1636.02 1259.58,1645.18 1265.49,1655.13C1276.93,1674.42 1283.38,1694.99 1284.77,1717.15C1285.64,1730.93 1285.12,1744.74 1281.09,1760.04ZM987.775,1682.45C987.775,1616.56 987.651,1550.67 987.878,1484.78C987.924,1471.49 986.71,1458.2 989.453,1444.85C992.2,1431.48 994.779,1418.59 1007.62,1410.83C1008.21,1410.47 1008.72,1408.71 1008.51,1408.54C1007.72,1407.89 1006.56,1407.21 1005.63,1407.33C1002.7,1407.7 999.811,1408.89 996.895,1408.93C983.656,1409.12 970.413,1409.06 957.172,1408.99C952.344,1408.96 949.612,1409.09 947.491,1415.54C943.059,1429.02 935.903,1441.6 929.929,1454.57C924.567,1466.22 919.082,1477.82 914.023,1489.6C906.667,1506.73 899.844,1524.09 892.414,1541.18C886.722,1554.28 880.272,1567.04 874.468,1580.09C866.062,1598.99 857.932,1618.01 849.692,1636.98C847.138,1642.86 844.621,1648.76 842.055,1654.63C841.435,1656.05 840.691,1657.41 840.003,1658.8C839.036,1657.46 837.846,1656.23 837.135,1654.77C829.106,1638.24 821.495,1621.5 813.463,1605C794.045,1565.11 772.981,1526.05 754.679,1485.58C744.097,1462.18 731.482,1439.71 720.233,1416.6C717.386,1410.75 714.194,1408.12 707.492,1408.86C700.951,1409.58 694.268,1409.03 687.647,1409.01C680.729,1408.99 673.811,1408.95 666.894,1408.85C665.998,1408.83 665.11,1408.32 664.218,1408.03C664.419,1408.89 664.338,1410.02 664.863,1410.56C679.577,1425.63 682.846,1444.84 682.955,1464.5C683.347,1535.43 683.243,1606.37 683.003,1677.31C682.951,1692.59 678.686,1706.4 664.147,1714.72C663.442,1715.12 663.02,1716.02 662.466,1716.69C663.305,1716.95 664.143,1717.43 664.983,1717.43C686.421,1717.47 707.86,1717.47 729.298,1717.44C730.169,1717.44 731.039,1717.1 731.91,1716.92C731.285,1716.03 730.861,1714.77 730.005,1714.3C716.32,1706.68 711.844,1693.59 711.704,1679.52C711.18,1626.87 711.479,1574.22 711.524,1521.57C711.527,1517.57 711.955,1513.56 712.186,1509.56C716.535,1511.76 715.688,1516.61 717.453,1520.12C748.545,1581.95 779.496,1643.85 810.468,1705.74C812.296,1709.4 813.134,1714.77 816.05,1716.34C819.74,1718.33 825.087,1717.28 829.722,1717.44C832.556,1717.54 835.476,1717.04 838.218,1717.55C844.653,1718.75 847.428,1715.34 849.706,1710.04C855.803,1695.86 862.17,1681.78 868.589,1667.74C872.105,1660.04 876.109,1652.57 879.604,1644.87C888.394,1625.5 896.966,1606.03 905.732,1586.65C910.897,1575.23 916.386,1563.95 921.513,1552.51C927.947,1538.16 934.136,1523.69 940.525,1509.32C940.892,1508.49 942.107,1508.04 942.928,1507.41C943.369,1508.42 944.462,1509.75 944.15,1510.38C941.249,1516.25 942.412,1522.49 942.403,1528.56C942.325,1578.69 942.385,1628.82 942.293,1678.95C942.288,1681.89 941.371,1684.84 940.822,1687.77C938.77,1698.74 932.088,1706.76 924.121,1713.96C923.226,1714.77 922.471,1715.73 921.651,1716.62C922.796,1716.9 923.941,1717.42 925.087,1717.43C951.255,1717.47 977.422,1717.47 1003.59,1717.44C1004.47,1717.44 1005.35,1717.14 1006.23,1716.99C1005.65,1716.09 1005.25,1714.99 1004.46,1714.34C994.981,1706.51 988.752,1696.9 987.775,1682.45ZM2440.39,1675.52C2431.64,1683.34 2427.83,1693.03 2429,1704.77C2429.72,1711.9 2432.02,1714.25 2439.24,1714.3C2444.27,1714.35 2449.35,1714.72 2454.32,1714.19C2458.66,1713.73 2463.08,1712.69 2467.14,1711.08C2473.72,1708.45 2474.59,1704.63 2470.02,1699.56C2466.86,1696.05 2464.88,1692.42 2464.87,1687.48C2464.86,1683.34 2463.77,1679.19 2463.09,1675.06C2462.22,1669.71 2458.67,1665.77 2455.24,1667.15C2450.39,1669.1 2445.95,1672.05 2440.39,1675.52ZM367.09,1606.76C382.248,1602.54 395.591,1594.62 408.511,1585.98C411.451,1584.02 413.518,1580.74 415.987,1578.07C413.576,1576.29 411.188,1574.48 408.75,1572.74C405.599,1570.49 402.581,1567.98 399.201,1566.14C390.744,1561.53 382.394,1556.54 373.484,1553.01C362.77,1548.77 351.426,1545.87 339.854,1545.38C321.976,1544.63 304.79,1547.21 287.913,1554.38C274.44,1560.1 262.298,1567.45 250.47,1575.72C247.516,1577.79 248.318,1579.05 250.542,1581.15C259.521,1589.66 270.24,1595.24 281.254,1600.55C289.765,1604.65 298.514,1607.81 307.74,1609.55C317.242,1611.35 326.651,1612.55 336.571,1611.86C346.607,1611.16 356.348,1609.52 367.09,1606.76ZM1384.22,1594.46C1391.9,1589.41 1399.28,1583.8 1407.38,1579.55C1411.81,1577.22 1410.1,1575.12 1408.37,1573.4C1404.93,1570.01 1401.24,1566.61 1397.06,1564.29C1378.76,1554.11 1360.32,1544.09 1338.6,1543.37C1328.41,1538.16 1318.23,1543.95 1308.01,1543.52C1304.28,1543.36 1300.37,1544.6 1296.72,1545.79C1279.05,1551.52 1262.37,1559.33 1247.38,1570.46C1241.97,1574.47 1241.97,1575.49 1247.12,1580.37C1247.81,1581.02 1248.38,1581.83 1249.14,1582.36C1269.46,1596.56 1291.6,1606.72 1316.36,1609.38C1330.88,1610.93 1345.51,1609.4 1359.45,1604.11C1367.36,1601.11 1375.33,1598.3 1384.22,1594.46ZM292.816,1585.47C288.898,1583.45 285.368,1582.05 282.054,1580.26C280.882,1579.62 278.931,1579.14 282.388,1577.18C301.661,1566.23 322.342,1562.18 343.999,1564.41C357.686,1565.82 370.671,1570.83 382.847,1577.48C383.467,1577.82 384.075,1578.89 384.011,1579.56C383.953,1580.16 383.057,1580.93 382.37,1581.17C373.061,1584.52 363.882,1588.38 354.352,1590.92C343.388,1593.83 332.535,1595.42 320.619,1593.16C311.218,1591.38 302.399,1588.31 292.816,1585.47ZM1292.91,1566.55C1298.52,1564.81 1303.69,1563.67 1308.79,1562.27C1326.46,1557.42 1343.38,1561.7 1360.12,1566.75C1366.18,1568.58 1371.85,1571.81 1377.56,1574.68C1379.21,1575.51 1380.21,1576.05 1377,1577.66C1357.52,1587.38 1337.17,1593.05 1315.42,1590.43C1305.95,1589.29 1296.77,1585.55 1287.51,1582.83C1285.87,1582.35 1284.4,1581.18 1282.94,1580.21C1280.43,1578.53 1274.95,1579.87 1275.8,1575.25C1276.17,1573.22 1280.66,1571.75 1283.47,1570.4C1286.34,1569.03 1289.44,1568.13 1292.91,1566.55ZM2332.53,1317.87C2337.45,1329.58 2350.12,1335.52 2360.91,1331.11C2371.23,1326.89 2378.17,1319.34 2381.69,1308.86C2387.89,1290.42 2390.55,1288.34 2409.24,1288.54C2417.95,1288.63 2423.61,1293.69 2427.3,1302.18C2431.66,1312.2 2430.93,1322.5 2430.81,1332.82C2430.79,1335 2429.87,1338.18 2428.29,1339.15C2421.32,1343.45 2414.18,1347.56 2406.71,1350.89C2389.84,1358.42 2371.25,1359.46 2353.66,1364.32C2339.03,1368.35 2326.49,1375.08 2318.99,1389.74C2312.33,1402.77 2310.78,1416.34 2312,1430.21C2312.68,1437.92 2315.92,1445.63 2320.96,1451.9C2332.62,1466.41 2349.19,1471.87 2366.63,1473.67C2379.14,1474.96 2392.05,1475.22 2404.56,1472.06C2412.8,1469.98 2421.28,1468.32 2429.07,1465.07C2434.17,1462.95 2437.26,1463.39 2441.64,1466.47C2453.08,1474.52 2465.55,1475.71 2479.37,1472.44C2487.86,1470.42 2492.65,1463.63 2500.01,1460.51C2501.85,1459.73 2501.7,1457.51 2498.81,1456.92C2493.32,1455.79 2487.93,1454.09 2482.4,1453.25C2474.45,1452.05 2472.58,1450.3 2472.57,1442.29C2472.55,1410.15 2472.71,1378.01 2472.48,1345.87C2472.41,1336.05 2472.21,1326.06 2470.45,1316.45C2468.06,1303.39 2461.14,1292.29 2449.96,1284.88C2437.17,1276.39 2422.32,1273.03 2407.31,1271.66C2384.88,1269.61 2364.02,1275.34 2344.57,1286.61C2334.59,1292.39 2328.84,1305.96 2332.53,1317.87ZM1794.16,1473.99C1798.27,1473.99 1802.37,1474.03 1806.47,1473.9C1806.76,1473.89 1807.44,1472.37 1807.21,1472.03C1806.54,1470.99 1805.61,1470.05 1804.6,1469.32C1794.46,1462.09 1789.57,1451.86 1789.54,1439.81C1789.33,1369.18 1789.35,1298.55 1789.58,1227.91C1789.6,1221.44 1791.69,1214.98 1792.82,1208.51C1794.56,1198.59 1799.01,1190.33 1807.38,1184.39C1807.98,1183.98 1808.5,1182.29 1808.27,1182.09C1807.48,1181.41 1806.12,1180.5 1805.37,1180.77C1795.69,1184.31 1785.68,1181.95 1775.85,1182.51C1769.88,1182.84 1763.85,1182.84 1757.89,1182.45C1754.8,1182.26 1753.9,1183.49 1752.77,1185.99C1748.79,1194.76 1744.15,1203.23 1740.29,1212.04C1732.7,1229.39 1725.59,1246.95 1718.04,1264.31C1712.46,1277.14 1705.66,1289.49 1700.88,1302.6C1692.98,1324.28 1682.25,1344.7 1673.9,1366.17C1667.47,1382.72 1660.14,1398.94 1653.14,1415.27C1652.57,1416.61 1651.42,1417.71 1650.54,1418.92C1649.53,1417.57 1648.28,1416.34 1647.57,1414.85C1646.69,1413.02 1646.48,1410.87 1645.58,1409.06C1621.18,1359.88 1596.72,1310.73 1572.29,1261.57C1561.38,1239.61 1550.52,1217.62 1539.65,1195.63C1537.58,1191.45 1536.58,1185.46 1533.23,1183.52C1529.43,1181.31 1523.52,1182.95 1518.57,1182.52C1508.12,1181.62 1497.45,1184.75 1487.14,1180.78C1486.42,1180.51 1484.6,1181.54 1484.22,1182.38C1483.86,1183.19 1484.35,1184.96 1485.08,1185.59C1489.76,1189.64 1493.52,1194.45 1495.63,1200.17C1499.47,1210.61 1501.68,1221.54 1501.71,1232.62C1501.89,1296.95 1501.49,1361.28 1502,1425.6C1502.14,1443.6 1500.05,1459.82 1484.53,1471.44C1483.94,1471.88 1483.67,1472.75 1483.25,1473.41C1484.12,1473.61 1484.98,1473.96 1485.85,1473.96C1505.4,1473.99 1524.95,1474 1544.5,1473.95C1545.34,1473.95 1546.18,1473.48 1547.03,1473.23C1546.48,1472.56 1545.95,1471.88 1545.4,1471.22C1542.06,1467.25 1538.42,1463.48 1535.43,1459.25C1529.87,1451.41 1528.31,1442.31 1528.3,1432.9C1528.28,1384.66 1528.29,1336.42 1528.29,1288.17C1528.29,1286.28 1528.07,1284.35 1528.37,1282.51C1528.57,1281.3 1529.53,1280.22 1530.15,1279.08C1530.92,1280.15 1531.85,1281.13 1532.41,1282.3C1534.06,1285.71 1535.46,1289.24 1537.14,1292.63C1551.83,1322.18 1566.57,1351.71 1581.27,1381.25C1595.33,1409.48 1609.41,1437.7 1623.35,1465.99C1626.23,1471.82 1629.96,1475.21 1636.96,1474.08C1640.34,1473.54 1643.96,1473.51 1647.33,1474.09C1653.72,1475.19 1656.58,1471.97 1658.93,1466.68C1668.86,1444.3 1678.95,1421.99 1689.18,1399.75C1693.94,1389.41 1699.42,1379.4 1704.12,1369.04C1711.69,1352.32 1718.89,1335.43 1726.24,1318.61C1731.6,1306.33 1736.9,1294.02 1742.33,1281.76C1743.16,1279.89 1744.49,1278.24 1745.66,1276.52C1745.97,1276.07 1746.53,1275.78 1746.98,1275.41C1747.25,1275.93 1747.75,1276.44 1747.76,1276.96C1747.85,1279.48 1747.8,1282.01 1747.8,1284.53C1747.8,1331.19 1747.87,1377.86 1747.72,1424.53C1747.7,1430.89 1746.79,1437.29 1745.85,1443.6C1744.23,1454.57 1737.82,1462.82 1729.92,1470.09C1728.99,1470.95 1727.97,1471.7 1726.99,1472.5C1728.25,1473 1729.52,1473.92 1730.79,1473.92C1751.28,1474.01 1771.78,1473.99 1794.16,1473.99ZM1951.23,1277.18C1940.51,1277.18 1929.78,1277.15 1919.06,1277.25C1918.11,1277.26 1917.17,1278.18 1916.22,1278.68C1916.9,1279.44 1917.5,1280.3 1918.29,1280.94C1919.2,1281.68 1920.24,1282.29 1921.27,1282.85C1934.02,1289.78 1943.56,1299.17 1944.99,1314.51C1945.69,1322.07 1946.44,1329.67 1946.37,1337.25C1946.3,1344.56 1948.16,1352.11 1944.6,1359.17C1948.7,1363.95 1945.29,1369.6 1946.27,1374.83C1947.1,1379.25 1945.83,1384.03 1945.76,1388.66C1945.68,1394.52 1946.57,1400.49 1945.74,1406.23C1945.02,1411.21 1947.32,1415.85 1946.39,1420.53C1944.97,1427.71 1944.99,1434.96 1944.73,1442.17C1944.58,1446.24 1943.79,1449.82 1941.7,1453.27C1937.38,1460.42 1933.71,1468.12 1924.54,1470.5C1923.52,1470.77 1922.81,1472.2 1921.95,1473.09C1923.09,1473.39 1924.23,1473.95 1925.36,1473.95C1953.43,1474 1981.49,1473.99 2009.56,1473.99C2009.87,1473.99 2010.23,1474.08 2010.5,1473.97C2011.21,1473.65 2011.88,1473.25 2012.57,1472.88C2012.13,1472.44 2011.73,1471.92 2011.22,1471.56C2010.51,1471.05 2009.73,1470.63 2008.95,1470.2C1993.85,1462.03 1987.8,1449.4 1987.96,1432.25C1988.43,1381.49 1988.13,1330.71 1988.12,1279.95C1988.12,1273.31 1986.14,1271.31 1979.99,1273.56C1971.19,1276.78 1961.79,1274.01 1951.23,1277.18ZM2761.14,1473.99C2776.59,1473.99 2792.03,1474.01 2807.48,1473.96C2809.91,1473.95 2812.34,1473.56 2814.78,1473.34C2813.79,1469.91 2810.89,1470.22 2808.25,1469.97C2808.01,1469.95 2807.82,1469.54 2807.58,1469.33C2796.27,1459.73 2788.33,1448.63 2788.49,1432.76C2788.81,1399.04 2788.44,1365.32 2788.68,1331.59C2788.74,1322.99 2786.91,1314.73 2784.6,1306.74C2779.78,1290.1 2768.31,1278.58 2751.88,1273.95C2735.3,1269.28 2718.29,1270.73 2701.76,1276.01C2690.34,1279.66 2679.38,1284.08 2671.12,1293.36C2668.64,1296.14 2665.93,1298.72 2663.19,1301.24C2662.67,1301.71 2661.27,1301.87 2660.74,1301.51C2660.18,1301.11 2659.67,1299.62 2659.98,1299.14C2663.83,1293.04 2661.29,1286.37 2661.68,1280.01C2662.02,1274.3 2658.94,1272.12 2653.53,1273.44C2652.14,1273.78 2650.92,1275.12 2649.57,1275.22C2638.81,1275.98 2628.04,1276.75 2617.26,1277.12C2608.45,1277.43 2599.61,1277.16 2590.79,1277.21C2589.94,1277.22 2589.09,1277.65 2588.24,1277.88C2588.75,1278.55 2589.11,1279.56 2589.78,1279.84C2595.5,1282.18 2599.63,1286.64 2604.41,1290.29C2612.7,1296.63 2617.4,1304.38 2618.41,1314.85C2618.98,1320.71 2618.23,1326.42 2618.24,1332.21C2618.31,1368.13 2618.25,1404.06 2618.3,1439.99C2618.31,1446.82 2615.94,1452.61 2612.35,1458.37C2608.7,1464.24 2603.16,1467.36 2597.75,1470.89C2596.97,1471.4 2596.4,1472.21 2595.73,1472.88C2596.73,1473.25 2597.72,1473.92 2598.73,1473.94C2605.03,1474.04 2611.33,1473.99 2617.64,1473.99C2638.75,1473.99 2659.87,1474 2680.99,1473.95C2682.13,1473.95 2683.27,1473.42 2684.41,1473.13C2683.58,1472.24 2682.83,1471.25 2681.91,1470.48C2678.42,1467.54 2674.48,1465.03 2671.42,1461.69C2665.44,1455.15 2661.62,1447.71 2661.7,1438.3C2661.96,1407.1 2662.47,1375.88 2661.47,1344.71C2661.07,1331.98 2664.84,1323.21 2674.04,1314.64C2687.65,1301.98 2703,1295.82 2721.13,1298.22C2731.61,1299.61 2739.94,1305.15 2743.27,1316.42C2745.41,1323.69 2747.09,1330.83 2747.04,1338.52C2746.83,1371.62 2746.88,1404.71 2747.03,1437.8C2747.05,1442.79 2745.38,1447.1 2743.84,1451.64C2740.93,1460.25 2734.24,1465.63 2727.87,1471.35C2727.27,1471.88 2726.9,1472.66 2726.43,1473.33C2727.29,1473.55 2728.14,1473.95 2729,1473.96C2739.08,1474 2749.17,1473.99 2761.14,1473.99ZM2201.01,1470.2C2187.33,1461.99 2179.3,1450.27 2179.28,1433.98C2179.22,1349.16 2179.25,1264.35 2179.25,1179.54C2179.25,1170.76 2177.11,1169.23 2168.33,1171.74C2166.92,1172.14 2165.57,1172.99 2164.16,1173.05C2148.35,1173.77 2132.53,1174.38 2116.71,1174.99C2114.51,1175.07 2112.28,1174.84 2110.1,1175.07C2109.14,1175.17 2108.26,1176.06 2107.34,1176.59C2108.06,1177.32 2108.65,1178.3 2109.51,1178.74C2116.86,1182.58 2123.58,1187.3 2128.79,1193.73C2133.26,1199.26 2137.57,1205.2 2137.58,1212.75C2137.65,1287.79 2137.7,1362.82 2137.45,1437.86C2137.44,1443.32 2136.36,1449.67 2133.42,1454.01C2129.11,1460.37 2122.66,1465.29 2117.13,1470.83C2116.46,1471.5 2115.79,1472.16 2115.12,1472.83C2116.09,1473.22 2117.05,1473.94 2118.01,1473.94C2146.39,1474 2174.76,1474 2203.14,1473.92C2203.82,1473.92 2204.51,1472.99 2205.19,1472.49C2204.11,1472.04 2203.04,1471.59 2201.01,1470.2ZM2357.13,1398.29C2366.57,1386.64 2377.85,1380.08 2392.22,1376.82C2403.94,1374.17 2415.71,1369.38 2425.41,1361.28C2427.25,1359.74 2428.82,1359.8 2429.02,1362.69C2429.13,1364.26 2429.04,1365.84 2429.04,1367.42C2429.04,1390.42 2428.83,1413.44 2429.17,1436.44C2429.27,1443 2426.58,1446.84 2421.08,1449.38C2417.38,1451.08 2413.74,1453.03 2409.88,1454.28C2394.66,1459.21 2375.97,1454.75 2363.88,1447.43C2357.87,1443.79 2355.25,1436.78 2353.8,1430.98C2351.18,1420.49 2351.1,1409.29 2357.13,1398.29ZM1084.28,1165.85C1080.5,1161.44 1076.95,1156.81 1072.9,1152.66C1059.79,1139.19 1044.36,1128.8 1026.95,1122.09C1014.52,1117.3 1001.66,1112.75 987.801,1113.79C983.919,1114.08 979.93,1113.67 976.144,1113.47C965.711,1112.94 955.252,1113.53 945.446,1116C925.29,1121.09 905.846,1128.58 888.421,1140.35C872.734,1150.94 859.089,1163.95 848.06,1179.17C840.205,1190.01 833.348,1201.79 829.093,1214.76C828.751,1215.8 828.215,1216.78 827.769,1217.78C826.877,1216.89 825.552,1216.15 825.17,1215.08C823.7,1210.95 823.244,1206.31 821.128,1202.58C811.047,1184.84 799.644,1168.21 783.889,1154.66C772.892,1145.2 761.037,1137.59 748.434,1130.53C732.436,1121.57 715.269,1116.7 697.561,1114.26C690.898,1113.34 683.533,1110.49 676.487,1113.81C672.595,1108.61 668.627,1113.93 664.828,1114.12C655.905,1114.56 646.738,1115.59 638.248,1118.24C611.45,1126.6 589.861,1142.3 572.357,1164.59C554.69,1187.09 547.679,1212.84 545.088,1240.36C544.235,1249.42 546.981,1258.28 548.694,1267.17C553.334,1291.26 566.322,1310.31 584.36,1326.12C590.108,1331.15 596.692,1335.75 603.662,1338.77C614.991,1343.68 626.691,1347.15 639.276,1349.1C652.76,1351.18 665.364,1349.87 677.614,1346.28C697.133,1340.55 712.993,1328.85 724.638,1311.75C731.014,1302.38 734.846,1291.92 737.782,1281.26C741.045,1269.4 741.011,1257.08 737.71,1245.15C732.614,1226.73 721.952,1211.83 705.7,1201.95C686.038,1189.99 665.038,1187.3 643.09,1196.33C624.972,1203.78 615.962,1218.79 609.491,1235.88C608.101,1239.55 607.041,1244.62 608.518,1247.8C610.694,1252.48 616.435,1249.22 620.54,1250.04C621.146,1250.16 621.799,1250.03 622.428,1250.06C626.176,1250.26 627.834,1248.72 628.383,1244.76C628.978,1240.46 629.926,1235.81 632.157,1232.2C643.162,1214.39 662.103,1205.59 683.052,1213.33C713.633,1224.62 722.545,1247.94 718.743,1275.14C716.789,1289.12 709.143,1300.92 698.821,1311.38C681.305,1329.12 659.574,1332.13 637.239,1329.05C618.495,1326.46 601.936,1316.96 588.76,1302.46C574.319,1286.57 566.195,1268.21 565.849,1246.68C565.726,1239.04 566.415,1231.44 567.282,1223.77C568.586,1212.24 573.272,1202.09 577.851,1192.1C583.316,1180.18 592.779,1170.74 602.15,1161.4C613.247,1150.33 626.842,1143.9 641.018,1138.6C648.976,1135.63 657.614,1133.41 666.041,1133.04C676.431,1132.59 686.867,1132.38 697.48,1134.19C708.994,1136.16 720.038,1139.14 730.609,1143.53C756.501,1154.28 777.531,1171.28 793.323,1194.64C806.796,1214.58 814.228,1236.68 817.416,1260.33C817.952,1264.31 816.39,1270.57 818.371,1271.88C821.466,1273.92 826.76,1272.64 831.123,1272.76C831.438,1272.77 831.755,1272.74 832.068,1272.77C836.299,1273.1 838.411,1271.38 838.311,1266.91C837.957,1251.1 841.899,1236.28 847.561,1221.57C853.074,1207.25 860.83,1194.37 870.695,1182.99C878.174,1174.36 887.031,1166.79 895.928,1159.56C902.07,1154.56 908.941,1150.06 916.169,1146.89C929.922,1140.87 944.038,1136.26 959.276,1134.25C975.915,1132.05 991.987,1132.01 1008.05,1136.54C1024.47,1141.17 1039.47,1148.82 1052.08,1160.31C1068.3,1175.1 1079.53,1193.22 1085.64,1214.46C1090.24,1230.5 1091.3,1247.53 1088.04,1262.01C1087.4,1264.87 1086.73,1267.78 1085.59,1270.45C1078.99,1285.87 1070.99,1300.12 1057.08,1310.59C1041.04,1322.65 1023.98,1330.03 1003.39,1329.78C987.331,1329.59 973.865,1324.96 960.939,1315.39C943.876,1302.75 936.367,1285.31 935.201,1265.66C934.036,1246.02 942.376,1228.91 959.879,1218.72C974.292,1210.33 990.162,1206.37 1006,1216.06C1016.09,1222.24 1023.9,1230.36 1025.71,1242.87C1026.07,1245.36 1027.32,1249.5 1028.68,1249.73C1033.57,1250.53 1038.71,1250.23 1043.69,1249.74C1044.74,1249.63 1046.32,1246.88 1046.27,1245.4C1046.17,1242.17 1045.23,1238.97 1044.54,1235.77C1040.74,1218.32 1029.69,1205.22 1014.9,1197.54C995.371,1187.4 974.301,1189.09 954.434,1199.01C936.167,1208.12 923.7,1223.08 918.109,1242.19C912.365,1261.82 914.951,1281.88 923.882,1300.4C929.449,1311.95 937.442,1321.79 947.504,1330.33C962.825,1343.35 980.581,1348.67 999.857,1350.18C1005.82,1350.64 1011.92,1348.9 1017.98,1348.5C1028.78,1347.78 1038.84,1344.46 1048.43,1339.77C1062.24,1333.01 1073.95,1323.6 1084.09,1311.92C1099.3,1294.39 1107.39,1274.04 1108.72,1251.19C1109.6,1236.02 1108.65,1221.01 1103.51,1206.15C1098.73,1192.35 1093.53,1179.13 1084.28,1165.85ZM2393.09,1255.42C2399.93,1250.69 2406.68,1245.84 2413.62,1241.26C2425.27,1233.57 2429.39,1225.52 2427.15,1214.26C2425.52,1206.06 2419.76,1200.02 2412.8,1198.21C2405.63,1196.35 2396.63,1195.55 2390.66,1203.04C2388.08,1206.28 2385.41,1209.63 2383.74,1213.36C2380.79,1219.98 2378.45,1226.89 2376.1,1233.76C2374.02,1239.82 2371.86,1245.91 2370.55,1252.16C2369.92,1255.18 2369.03,1259.18 2372.72,1261.51C2375.74,1263.41 2378.83,1264.35 2382.26,1262.09C2385.44,1260 2388.84,1258.26 2393.09,1255.42ZM1972.04,1218.52C1975.56,1215.63 1979.3,1212.98 1982.55,1209.81C1988.39,1204.12 1989.62,1193.54 1986.46,1185.52C1982.73,1176.07 1976.2,1171.31 1966.23,1168.91C1945.54,1163.91 1928.86,1177.98 1931.29,1199.14C1932.23,1207.38 1936.67,1212.52 1943.46,1216.72C1952.38,1222.25 1961.42,1223.2 1972.04,1218.52ZM850.581,1138.41C853,1131.51 857.375,1125.38 857.399,1117.51C857.411,1113.57 860.236,1109.67 860.447,1105.67C860.958,1096.02 861.892,1086.13 860.42,1076.69C858.49,1064.31 854.734,1052.17 849.654,1040.56C844.723,1029.3 837.886,1019.3 830.027,1009.9C827.27,1006.61 825.187,1007.72 823.449,1010.44C816.968,1020.6 810.199,1030.49 805.122,1041.6C799.217,1054.52 796.192,1067.78 794.567,1081.73C793.587,1090.16 795.55,1098.36 794.825,1106.67C794.676,1108.39 795.451,1110.17 795.716,1111.94C797.433,1123.36 801.455,1134.18 806.367,1144.39C811.077,1154.18 817.689,1163.1 823.926,1172.08C825.703,1174.64 828.687,1177.39 831.13,1171.4C832.669,1167.63 836.713,1164.97 838.846,1161.35C842.989,1154.31 848.709,1147.98 850.581,1138.41ZM840.173,1113.81C837.019,1123.21 833.91,1131.69 830.665,1140.11C830.144,1141.46 829.011,1142.58 828.161,1143.8C827.119,1142.85 825.579,1142.09 825.111,1140.91C820.587,1129.5 814.627,1118.56 813.642,1105.96C813.242,1100.85 811.917,1095.78 811.883,1090.68C811.789,1076.49 815.674,1063.12 821.446,1050.27C822.404,1048.14 823.868,1046.24 825.019,1044.19C825.777,1042.84 826.391,1041.4 827.07,1040.01C828.284,1041.24 830.054,1042.25 830.624,1043.73C836.044,1057.78 842.963,1071.42 842.131,1087.19C841.678,1095.77 842.808,1104.45 840.173,1113.81Z" style="fill:rgb(82,82,82);"/>
    </g>
</svg>
