<?xml version="1.0" encoding="UTF-8" standalone="no"?>
<!DOCTYPE svg PUBLIC "-//W3C//DTD SVG 1.1//EN" "http://www.w3.org/Graphics/SVG/1.1/DTD/svg11.dtd">
<svg width="100%" height="100%" viewBox="0 0 1071 945" version="1.1" xmlns="http://www.w3.org/2000/svg" xmlns:xlink="http://www.w3.org/1999/xlink" xml:space="preserve" xmlns:serif="http://www.serif.com/" style="fill-rule:evenodd;clip-rule:evenodd;stroke-linejoin:round;stroke-miterlimit:2;">
    <g transform="matrix(1,0,0,1,-9111.33,-677.73)">
        <g transform="matrix(4.16667,0,0,4.16667,7892.72,0)">
            <g transform="matrix(-1,0,0,1,470.508,356.591)">
                <path d="M-0.002,-7.799C2.307,-7.799 3.275,-5.809 3.275,-3.898C3.275,-1.989 2.307,0 -0.002,0C-2.311,0 -3.277,-1.989 -3.277,-3.898C-3.277,-5.809 -2.311,-7.799 -0.002,-7.799" style="fill:rgb(35,31,32);fill-rule:nonzero;"/>
            </g>
            <g transform="matrix(1,0,0,1,532.76,237.054)">
                <path d="M0,77.973C-2.037,82.103 -5.979,85.562 -11.818,88.357C-17.658,91.15 -24.455,92.549 -32.209,92.549C-40.717,92.549 -47.98,90.937 -53.992,87.715C-60.012,84.494 -63.951,80.389 -65.814,75.407C-67.676,70.422 -68.605,63.351 -68.605,54.185L-68.605,46.18L-39.078,46.18L-39.078,61.058C-39.078,65.64 -38.666,68.585 -37.832,69.89C-37.004,71.202 -35.531,71.856 -33.416,71.856C-31.303,71.856 -29.729,71.026 -28.695,69.365C-27.664,67.704 -27.148,65.237 -27.148,61.964C-27.148,54.765 -28.131,50.058 -30.092,47.841C-32.107,45.626 -37.066,41.925 -44.969,36.739C-52.877,31.502 -58.109,27.702 -60.676,25.336C-63.246,22.971 -65.373,19.698 -67.059,15.52C-68.746,11.342 -69.59,6.005 -69.59,-0.489C-69.59,-9.854 -68.395,-16.7 -66.002,-21.031C-63.611,-25.36 -59.746,-28.745 -54.41,-31.189C-49.074,-33.63 -42.629,-34.85 -35.078,-34.85C-26.82,-34.85 -19.787,-33.516 -13.973,-30.849C-8.154,-28.179 -4.305,-24.817 -2.418,-20.766C-0.529,-16.713 0.416,-9.828 0.416,-0.112L0.416,4.721L-29.111,4.721L-29.111,-4.342C-29.111,-8.57 -29.49,-11.263 -30.246,-12.422C-30.998,-13.579 -32.258,-14.16 -34.021,-14.16C-35.934,-14.16 -37.381,-13.379 -38.363,-11.815C-39.346,-10.253 -39.834,-7.886 -39.834,-4.712C-39.834,-0.631 -39.285,2.442 -38.178,4.507C-37.125,6.572 -34.131,9.065 -29.195,11.982C-15.043,20.382 -6.131,27.276 -2.455,32.661C1.219,38.049 3.061,46.735 3.061,58.717C3.061,67.428 2.037,73.846 0,77.973M-7.24,120.598C-9.365,120.598 -11.154,119.566 -11.154,117.255L-9.959,117.255C-9.959,118.849 -8.635,119.536 -7.201,119.536C-6.061,119.536 -4.801,119.181 -4.801,117.814C-4.801,116.514 -6.311,116.287 -7.826,115.954C-9.338,115.622 -10.863,115.189 -10.863,113.449C-10.863,111.523 -9.148,110.678 -7.428,110.678C-5.49,110.678 -4.018,111.592 -3.938,113.674L-5.131,113.674C-5.279,112.32 -6.178,111.738 -7.479,111.738C-8.541,111.738 -9.604,112.121 -9.604,113.356C-9.604,114.525 -8.092,114.698 -6.564,115.042C-5.051,115.385 -3.539,115.915 -3.539,117.774C-3.539,119.791 -5.516,120.598 -7.24,120.598M-21.43,120.371L-28.01,120.371L-28.01,110.904L-21.469,110.904L-21.469,111.963L-26.748,111.963L-26.748,114.976L-21.828,114.976L-21.828,116.036L-26.748,116.036L-26.748,119.313L-21.43,119.313L-21.43,120.371ZM-39.348,120.371L-40.725,120.371L-45.674,112.772L-45.699,112.772L-45.699,120.371L-46.895,120.371L-46.895,110.904L-45.555,110.904L-40.568,118.583L-40.543,118.583L-40.543,110.904L-39.348,110.904L-39.348,120.371ZM-62.25,120.598C-65.262,120.598 -66.787,118.212 -66.787,115.639C-66.787,113.064 -65.262,110.678 -62.25,110.678C-59.24,110.678 -57.715,113.064 -57.715,115.639C-57.715,118.212 -59.24,120.598 -62.25,120.598M-74.846,89.568L-129.598,89.568L-129.598,-31.869L-76.945,-31.869L-76.945,-7.567L-98.02,-7.567L-98.02,15.459L-78.295,15.459L-78.295,38.561L-98.02,38.561L-98.02,65.265L-74.846,65.265L-74.846,89.568ZM-77.67,120.371L-78.93,120.371L-78.93,110.903L-77.67,110.903L-77.67,120.371ZM-93.943,120.598C-96.887,120.598 -98.32,118.423 -98.32,115.664C-98.32,112.917 -96.754,110.678 -93.838,110.678C-91.861,110.678 -90.229,111.738 -89.939,113.754L-91.197,113.754C-91.463,112.413 -92.537,111.738 -93.848,111.738C-96.105,111.738 -97.061,113.595 -97.061,115.572C-97.061,117.733 -96.105,119.536 -93.838,119.536C-92.178,119.536 -91.221,118.371 -91.104,116.804L-89.844,116.804C-90.084,119.165 -91.555,120.598 -93.943,120.598M-112.814,120.598C-115.76,120.598 -117.193,118.423 -117.193,115.664C-117.193,112.917 -115.627,110.678 -112.709,110.678C-110.732,110.678 -109.102,111.738 -108.809,113.754L-110.068,113.754C-110.334,112.413 -111.408,111.738 -112.721,111.738C-114.977,111.738 -115.932,113.595 -115.932,115.572C-115.932,117.733 -114.977,119.536 -112.709,119.536C-111.051,119.536 -110.096,118.371 -109.977,116.804L-108.715,116.804C-108.955,119.165 -110.428,120.598 -112.814,120.598M-128.039,116.951C-128.039,119.34 -129.404,120.598 -131.768,120.598C-134.207,120.598 -135.652,119.47 -135.652,116.951L-135.652,110.904L-134.393,110.904L-134.393,116.951C-134.393,118.623 -133.436,119.536 -131.768,119.536C-130.174,119.536 -129.301,118.623 -129.301,116.951L-129.301,110.904L-128.039,110.904L-128.039,116.951ZM-139.373,89.568L-167.051,89.568L-183.477,34.361L-183.477,89.568L-209.879,89.568L-209.879,-31.869L-183.477,-31.869L-165.775,22.809L-165.775,-31.869L-139.373,-31.869L-139.373,89.568ZM-150.982,120.371L-154.232,120.371L-154.232,110.904L-150.982,110.904C-148.064,110.904 -146.432,112.361 -146.432,115.414C-146.432,118.583 -147.824,120.371 -150.982,120.371M-169.602,120.598C-172.615,120.598 -174.141,118.212 -174.141,115.639C-174.141,113.064 -172.615,110.678 -169.602,110.678C-166.592,110.678 -165.066,113.064 -165.066,115.639C-165.066,118.212 -166.592,120.598 -169.602,120.598M-185.729,120.371C-186.088,119.989 -185.889,118.968 -186.074,118.038C-186.207,117.112 -186.434,116.326 -187.652,116.326L-190.73,116.326L-190.73,120.371L-191.988,120.371L-191.988,110.904L-187.533,110.904C-185.756,110.904 -184.656,111.87 -184.656,113.382C-184.656,114.525 -185.158,115.466 -186.301,115.786L-186.301,115.81C-185.197,116.023 -184.975,116.83 -184.881,117.76C-184.799,118.69 -184.855,119.723 -184.324,120.371L-185.729,120.371ZM-205.727,116.498L-208.619,116.498L-208.619,120.371L-209.879,120.371L-209.879,110.904L-205.727,110.904C-203.844,110.904 -202.824,111.951 -202.824,113.702C-202.824,115.454 -203.844,116.514 -205.727,116.498M12.822,128.716L5.156,90.771C8.502,88.094 11.061,85.033 12.758,81.603C15.385,76.281 16.662,68.792 16.662,58.717C16.662,44.923 14.393,34.89 9.723,28.044C6.631,23.509 1.195,18.586 -7.037,12.913L7.781,12.913L7.787,12.907C11.229,12.846 14.004,10.04 14.008,6.585L14.018,6.576L14.018,-0.112C14.018,-11.293 12.875,-18.953 10.418,-24.228C7.695,-30.072 2.461,-34.804 -5.145,-38.294C-12.014,-41.445 -20.264,-43.043 -29.666,-43.043C-38.367,-43.043 -46.018,-41.561 -52.41,-38.637C-57.328,-36.385 -61.336,-33.409 -64.418,-29.787L-64.48,-29.809L-64.48,-33.388C-64.477,-33.501 -64.465,-33.612 -64.465,-33.726C-64.465,-37.224 -67.301,-40.062 -70.801,-40.062L-92.088,-40.062L-183.615,-74.054L-183.621,-74.05C-184.268,-74.273 -184.959,-74.399 -185.68,-74.399C-188.787,-74.399 -191.367,-72.16 -191.908,-69.209L-191.916,-69.206L-197.139,-40.062L-211.357,-40.062C-214.465,-40.062 -217.041,-37.824 -217.584,-34.877L-217.59,-34.872L-240.176,90.207L-240.174,90.209C-240.25,90.604 -240.293,91.008 -240.293,91.424C-240.293,94.92 -237.455,97.76 -233.957,97.76L-221.842,97.76L-230.289,144.874L-230.285,144.882C-230.354,145.255 -230.396,145.64 -230.396,146.036C-230.396,149.535 -227.559,152.372 -224.061,152.372C-223.871,152.372 -223.686,152.359 -223.504,152.344L-223.5,152.348L6.998,136.465L7.01,136.448C10.338,136.257 12.98,133.504 12.98,130.129C12.98,129.645 12.922,129.175 12.82,128.723L12.822,128.716Z" style="fill:rgb(35,31,32);fill-rule:nonzero;"/>
            </g>
            <g transform="matrix(-1,0,0,1,363.152,356.591)">
                <path d="M-0.006,-7.799C2.303,-7.799 3.273,-5.809 3.273,-3.898C3.273,-1.989 2.303,0 -0.006,0C-2.313,0 -3.279,-1.989 -3.279,-3.898C-3.279,-5.809 -2.313,-7.799 -0.006,-7.799" style="fill:rgb(35,31,32);fill-rule:nonzero;"/>
            </g>
            <g transform="matrix(1,0,0,1,326.609,352.508)">
                <path d="M0,-3.491L-2.469,-3.491L-2.469,-0.015L0,-0.015C1.418,0 2.068,-0.627 2.068,-1.753C2.068,-2.883 1.418,-3.491 0,-3.491" style="fill:rgb(35,31,32);fill-rule:nonzero;"/>
            </g>
            <g transform="matrix(1,0,0,1,381.912,356.367)">
                <path d="M0,-7.35L-2.125,-7.35L-2.125,0L-0.027,0C0.834,0 3.154,-0.242 3.154,-3.728C3.154,-5.984 2.32,-7.35 0,-7.35" style="fill:rgb(35,31,32);fill-rule:nonzero;"/>
            </g>
            <g transform="matrix(1,0,0,1,346.848,350.703)">
                <path d="M0,-0.067C0,-0.997 -0.506,-1.686 -1.687,-1.686L-4.818,-1.686L-4.818,1.619L-2.191,1.619C-1.01,1.619 0,1.313 0,-0.067" style="fill:rgb(35,31,32);fill-rule:nonzero;"/>
            </g>
        </g>
    </g>
</svg>
