<?xml version="1.0" encoding="UTF-8" standalone="no"?>
<!DOCTYPE svg PUBLIC "-//W3C//DTD SVG 1.1//EN" "http://www.w3.org/Graphics/SVG/1.1/DTD/svg11.dtd">
<svg width="100%" height="100%" viewBox="0 0 1032 265" version="1.1" xmlns="http://www.w3.org/2000/svg" xmlns:xlink="http://www.w3.org/1999/xlink" xml:space="preserve" xmlns:serif="http://www.serif.com/" style="fill-rule:evenodd;clip-rule:evenodd;stroke-linejoin:round;stroke-miterlimit:2;">
    <g transform="matrix(1,0,0,1,-19.8597,-340.498)">
        <g transform="matrix(1.12822,0,0,1.12822,-355.498,63.8859)">
            <g transform="matrix(1,0,0,1,1234.26,334.533)">
                <path d="M0,68.348L-214.957,68.348C-221.872,68.348 -227.478,62.742 -227.478,55.827L-227.478,12.522C-227.478,5.606 -221.872,0 -214.957,0L0,0C6.915,0 12.521,5.606 12.521,12.522L12.521,55.827C12.521,62.742 6.915,68.348 0,68.348" style="fill:rgb(255,0,0);fill-rule:nonzero;"/>
            </g>
            <g transform="matrix(1,0,0,1,454.155,348.116)">
                <path d="M0,28.468L-51.313,58.094C-53.629,59.431 -56.524,57.76 -56.524,55.085L-56.524,-4.167C-56.524,-6.841 -53.629,-8.512 -51.313,-7.175L0,22.451C2.316,23.788 2.316,27.131 0,28.468M161.273,-96.934L122.437,-96.934C117.222,-96.934 112.994,-92.707 112.994,-87.492L112.994,9.958L41.473,-93.697C40.074,-95.724 37.769,-96.934 35.306,-96.934L-113.083,-96.934C-117.707,-96.934 -121.456,-93.185 -121.456,-88.561L-121.456,114.178C-121.456,120.377 -116.431,125.402 -110.232,125.402L29.696,125.402C33.861,125.402 37.734,123.263 39.953,119.739L69.679,72.528C71.555,69.549 71.617,65.773 69.841,62.734L11.091,-37.787L116.461,119.41C118.971,123.155 123.182,125.402 127.689,125.402L159.136,125.402C164.744,125.402 169.291,120.855 169.291,115.247L169.291,-88.917C169.291,-93.345 165.701,-96.934 161.273,-96.934" style="fill-rule:nonzero;"/>
            </g>
            <g transform="matrix(1,0,0,1,794.474,264.677)">
                <path d="M0,195.002C0,204.002 -4.499,208.502 -13.499,208.502L-142.2,208.502C-151.201,208.502 -155.701,204.002 -155.701,195.002L-155.701,0C-155.701,-9 -151.201,-13.5 -142.2,-13.5L-13.499,-13.5C-4.499,-13.5 0,-9 0,0L0,29.7C0,38.7 -4.499,43.2 -13.499,43.2L-99,43.2L-99,71.101L-36,71.101C-26.999,71.101 -22.499,75.601 -22.499,84.601L-22.499,110.101C-22.499,119.101 -26.999,123.602 -36,123.602L-99,123.602L-99,151.802L-13.499,151.802C-4.499,151.802 0,156.302 0,165.302L0,195.002Z" style="fill-rule:nonzero;"/>
            </g>
            <g transform="matrix(1,0,0,1,929.774,304.576)">
                <path d="M0,115.202C3.6,112.802 5.4,109.502 5.7,105.902C6,102.601 5.1,99.601 3,97.502C2.1,96.601 0.899,95.702 -0.601,94.502C-3.9,92.401 -9.601,89.401 -20.101,86.401C-25.5,84.901 -32.101,83.401 -40.2,81.901C-72.9,75.002 -101.701,62.401 -113.401,45.601C-119.401,36.301 -122.401,26.401 -123.001,17.1C-123.602,7.801 -122.701,-0.9 -120.302,-7.799C-115.501,-23.4 -103.501,-36.3 -87.901,-45.3C-72.301,-54.3 -52.801,-59.4 -31.5,-59.4C-13.5,-59.4 1.5,-56.4 13.8,-52.8C25.8,-48.9 35.7,-43.5 43.2,-38.699C50.7,-33.9 51.9,-27.6 46.2,-20.1L30,2.4C25.5,9.301 19.2,10.801 11.4,6.301C0.6,0.001 -14.7,-6.299 -31.5,-6.299C-42.301,-6.299 -49.801,-3.9 -54.601,-1.199C-59.4,1.501 -61.801,5.1 -62.701,7.501C-65.101,13.501 -62.4,17.701 -57.001,21.001C-51.601,24.301 -43.501,26.401 -33.9,28.501C12.9,37.801 38.101,50.101 49.2,64.502C60.9,79.802 63.9,97.802 60.601,116.702C58.5,131.102 51,145.502 36.9,156.303C22.8,167.402 1.8,174.602 -27.301,174.602L-32.7,174.602C-34.801,174.602 -36.601,174.602 -38.7,174.303C-61.801,173.102 -88.501,168.303 -118.501,151.202C-126.602,146.702 -127.802,139.502 -122.102,132.302L-102.001,107.101C-96.901,100.202 -90.601,99.302 -83.101,103.802C-67.501,113.101 -55.501,117.302 -38.4,119.402C-21.301,121.502 -6.3,119.702 0,115.202" style="fill-rule:nonzero;"/>
            </g>
            <g transform="matrix(1,0,0,1,1040.26,371.923)">
                <path d="M0,-6.431L9.675,-6.431C12.212,-6.431 15.987,-6.49 15.987,-10.502C15.987,-11.917 15.338,-13.156 14.454,-13.806C13.393,-14.573 12.035,-14.631 10.854,-14.631L0,-14.631L0,-6.431ZM-14.868,-24.071L13.629,-24.071C18.937,-23.952 23.775,-23.835 27.079,-20.885C28.612,-19.469 30.914,-16.46 30.914,-10.738C30.914,-7.906 30.265,-4.72 28.142,-2.124C24.307,2.595 18.052,2.949 11.269,2.949L0,2.949L0,17.64L-14.868,17.64L-14.868,-24.071Z" style="fill:white;fill-rule:nonzero;"/>
            </g>
            <g transform="matrix(1,0,0,1,1096.61,389.563)">
                <path d="M0,-41.652L0,-10.148L21.239,-10.148L21.239,0L-14.985,0L-14.985,-41.652L0,-41.652Z" style="fill:white;fill-rule:nonzero;"/>
            </g>
            <g transform="matrix(1,0,0,1,1151.06,377.999)">
                <path d="M0,-18.525L-4.779,-4.425L4.896,-4.425L0,-18.525ZM-8.555,-30.088L8.437,-30.088L26.488,11.563L10.265,11.563L8.023,4.778L-7.906,4.778L-10.147,11.563L-26.489,11.563L-8.555,-30.088Z" style="fill:white;fill-rule:nonzero;"/>
            </g>
            <g transform="matrix(1,0,0,1,1192.84,389.563)">
                <path d="M0,-41.652L6.902,-29.145C7.964,-26.962 8.142,-26.608 9.085,-24.366C10.088,-26.667 10.324,-27.316 11.622,-29.971L18.111,-41.652L35.339,-41.652L16.46,-12.389L16.46,0L1.711,0L1.711,-12.389L-17.404,-41.652L0,-41.652Z" style="fill:white;fill-rule:nonzero;"/>
            </g>
        </g>
    </g>
</svg>
