<?xml version="1.0" encoding="UTF-8" standalone="no"?>
<!DOCTYPE svg PUBLIC "-//W3C//DTD SVG 1.1//EN" "http://www.w3.org/Graphics/SVG/1.1/DTD/svg11.dtd">
<svg width="100%" height="100%" viewBox="0 0 897 178" version="1.1" xmlns="http://www.w3.org/2000/svg" xmlns:xlink="http://www.w3.org/1999/xlink" xml:space="preserve" xmlns:serif="http://www.serif.com/" style="fill-rule:evenodd;clip-rule:evenodd;stroke-linejoin:round;stroke-miterlimit:2;">
    <g transform="matrix(1,0,0,1,-2625.57,-451.29)">
        <g transform="matrix(1,0,0,1,2160,0)">
            <g transform="matrix(1,0,0,1,829.14,552.565)">
                <path d="M0,-18.583L38.731,-18.583C36.971,-28.95 30.124,-34.428 19.953,-34.428C9.194,-34.428 2.348,-28.168 0,-18.583M67.877,-0.587L68.073,0L0.392,0C2.935,8.606 9.586,15.258 21.713,15.258C28.364,15.258 33.45,12.715 36.188,8.411L67.486,8.411C62.987,27.972 44.795,40.296 21.322,40.296C-9.78,40.296 -30.515,19.561 -30.515,-9.39C-30.515,-38.144 -10.366,-58.879 19.953,-58.879C47.534,-58.879 68.464,-39.905 68.464,-11.346C68.464,-7.824 68.464,-4.108 67.877,-0.587" style="fill:rgb(29,29,27);fill-rule:nonzero;"/>
            </g>
            <g transform="matrix(0,1,1,0,1142.79,564.755)">
                <path d="M14.227,-14.384C6.524,-14.384 0.55,-7.939 0.55,-0.078C0.55,7.782 6.524,14.227 14.227,14.227C22.087,14.227 28.061,7.782 28.061,-0.078C28.061,-7.939 22.087,-14.384 14.227,-14.384" style="fill:rgb(29,29,27);fill-rule:nonzero;"/>
            </g>
            <g transform="matrix(1,0,0,1,697.004,532.773)">
                <path d="M0,18.368C-3.748,16.868 -7.871,16.119 -12.369,16.119C-23.239,16.119 -28.675,20.617 -28.675,27.739C-28.675,35.048 -23.239,37.672 -15.743,37.672C-9.746,37.672 -3.748,35.798 0,31.112L0,18.368ZM0.75,46.105C-3.373,54.352 -12.182,59.599 -25.114,59.599C-41.606,59.599 -55.851,51.353 -55.851,29.613C-55.851,6.748 -39.357,-2.061 -17.617,-2.061C-11.433,-2.061 -5.997,-1.311 -0.562,0.376L-0.562,-2.248C-0.562,-13.68 -6.185,-17.804 -18.555,-17.804C-29.425,-17.804 -40.107,-14.805 -48.541,-9.932C-50.79,-17.241 -49.853,-28.861 -45.542,-35.046C-38.795,-38.795 -27.176,-41.231 -13.307,-41.231C13.682,-41.231 26.613,-31.673 26.613,-3.935L26.613,28.488C26.613,34.299 29.237,35.61 32.985,35.61C36.172,35.61 39.17,34.674 41.045,33.361C41.794,40.858 39.545,50.042 36.172,55.289C32.236,57.913 26.988,59.599 20.616,59.599C9.746,59.599 4.123,54.914 2.249,46.105L0.75,46.105Z" style="fill:rgb(29,29,27);fill-rule:nonzero;"/>
            </g>
            <g transform="matrix(1,0,0,1,963.301,532.773)">
                <path d="M0,18.368C-3.749,16.868 -7.872,16.119 -12.37,16.119C-23.24,16.119 -28.676,20.617 -28.676,27.739C-28.676,35.048 -23.24,37.672 -15.743,37.672C-9.746,37.672 -3.749,35.798 0,31.112L0,18.368ZM0.749,46.105C-3.374,54.352 -12.183,59.599 -25.114,59.599C-41.607,59.599 -55.851,51.353 -55.851,29.613C-55.851,6.748 -39.358,-2.061 -17.617,-2.061C-11.433,-2.061 -5.998,-1.311 -0.562,0.376L-0.562,-2.248C-0.562,-13.68 -6.186,-17.804 -18.555,-17.804C-29.425,-17.804 -40.107,-14.805 -48.542,-9.932C-50.791,-17.241 -49.854,-28.861 -45.543,-35.046C-38.796,-38.795 -27.176,-41.231 -13.307,-41.231C13.681,-41.231 26.613,-31.673 26.613,-3.935L26.613,28.488C26.613,34.299 29.236,35.61 32.985,35.61C36.171,35.61 39.17,34.674 41.044,33.361C41.794,40.858 39.545,50.042 36.171,55.289C32.235,57.913 26.987,59.599 20.615,59.599C9.745,59.599 4.123,54.914 2.248,46.105L0.749,46.105Z" style="fill:rgb(29,29,27);fill-rule:nonzero;"/>
            </g>
            <g transform="matrix(1,0,0,1,770.445,456.705)">
                <path d="M0,135.333C-17.667,135.333 -22.968,123.849 -22.968,108.125L-22.968,5.124C-16.961,1.767 -8.657,0 2.65,0L2.65,103.885C2.65,110.599 4.947,112.365 10.07,112.365C14.135,112.365 17.668,111.305 20.848,109.185C21.555,116.605 19.258,126.145 15.9,131.27C11.837,133.743 6.537,135.333 0,135.333" style="fill:rgb(29,29,27);fill-rule:nonzero;"/>
            </g>
            <g transform="matrix(1,0,0,1,1336.09,627.104)">
                <path d="M0,-130.971C1.943,-131.685 4.946,-132.577 10.6,-132.577C17.667,-132.577 22.614,-131.15 25.794,-129.008L12.897,-88.504C6.536,-67.984 -0.177,-48.178 -9.364,-33.011C-19.435,-16.416 -32.686,-5.175 -53.356,1.606C-59.363,-3.034 -64.133,-11.598 -65.017,-20.163C-50.883,-23.91 -41.166,-31.762 -34.629,-41.219L-66.783,-129.008C-63.604,-131.15 -58.656,-132.577 -51.06,-132.577C-45.582,-132.577 -41.872,-131.685 -40.282,-130.971C-40.282,-130.971 -19.788,-68.876 -18.904,-60.311L0,-130.971Z" style="fill:rgb(29,29,27);fill-rule:nonzero;"/>
            </g>
            <g transform="matrix(1,0,0,1,540.13,541.812)">
                <path d="M0,0.001C0,-3.467 -0.58,-6.732 -1.734,-9.796C-2.891,-12.857 -4.568,-15.575 -6.763,-17.945C-8.96,-20.313 -11.561,-22.193 -14.565,-23.581C-17.573,-24.968 -20.867,-25.661 -24.449,-25.661C-28.264,-25.661 -31.645,-24.995 -34.592,-23.667C-37.54,-22.337 -40.054,-20.516 -42.136,-18.206C-44.216,-15.892 -45.806,-13.204 -46.903,-10.143C-48.003,-7.079 -48.55,-3.814 -48.55,-0.346L-48.55,0.001C-48.55,3.469 -47.974,6.736 -46.816,9.798C-45.663,12.862 -43.985,15.579 -41.788,17.947C-39.594,20.317 -37.021,22.195 -34.072,23.582C-31.125,24.97 -27.803,25.663 -24.103,25.663C-20.287,25.663 -16.906,24.999 -13.959,23.669C-11.011,22.342 -8.497,20.521 -6.416,18.207C-4.336,15.897 -2.748,13.209 -1.647,10.145C-0.551,7.083 0,3.815 0,0.348L0,0.001ZM22.193,18.813C19.649,24.652 16.125,29.768 11.617,34.159C7.109,38.554 1.79,42.022 -4.336,44.564C-10.464,47.105 -17.166,48.377 -24.449,48.377C-31.617,48.377 -38.264,47.134 -44.39,44.649C-50.518,42.165 -55.806,38.754 -60.255,34.419C-64.706,30.085 -68.203,24.999 -70.745,19.161C-73.289,13.325 -74.56,7.053 -74.56,0.348L-74.56,0.001C-74.56,-6.702 -73.289,-12.974 -70.745,-18.812C-68.203,-24.648 -64.676,-29.763 -60.167,-34.158C-55.659,-38.549 -50.344,-42.017 -44.216,-44.561C-38.09,-47.102 -31.384,-48.376 -24.103,-48.376C-16.937,-48.376 -10.29,-47.132 -4.162,-44.648C1.964,-42.161 7.252,-38.752 11.704,-34.417C16.152,-30.082 19.649,-24.995 22.193,-19.159C24.735,-13.321 26.009,-7.049 26.009,-0.346L26.009,0.001C26.009,6.706 24.735,12.979 22.193,18.813" style="fill:rgb(29,29,27);fill-rule:nonzero;"/>
            </g>
            <g transform="matrix(1,0,0,1,633.972,560.191)">
                <path d="M0,-39.186C-8.786,-39.186 -15.691,-36.525 -20.721,-31.21C-25.749,-25.892 -28.263,-17.626 -28.263,-6.415L-28.263,27.917L-54.619,27.917L-54.619,-65.022L-28.263,-65.022L-28.263,-46.295C-25.605,-52.651 -21.964,-57.739 -17.34,-61.554C-12.717,-65.369 -6.476,-67.103 1.387,-66.756L1.387,-39.186L0,-39.186Z" style="fill:rgb(29,29,27);fill-rule:nonzero;"/>
            </g>
            <g transform="matrix(1,0,0,1,1229.45,498.496)">
                <path d="M0,91.204L0,77.918C-1.504,79.898 -3.151,81.79 -4.941,83.594C-6.735,85.398 -8.729,87 -10.924,88.397C-13.121,89.796 -15.549,90.901 -18.206,91.717C-20.867,92.529 -23.872,92.938 -27.223,92.938C-37.279,92.938 -45.055,89.877 -50.544,83.748C-56.036,77.623 -58.78,69.183 -58.78,58.433L-58.78,-1.734L-32.425,-1.734L-32.425,49.983C-32.425,56.212 -31.038,60.912 -28.263,64.082C-25.489,67.252 -21.561,68.837 -16.473,68.837C-11.387,68.837 -7.37,67.252 -4.422,64.082C-1.474,60.912 0,56.212 0,49.983L0,-1.734L26.355,-1.734L26.355,91.204L0,91.204Z" style="fill:rgb(29,29,27);fill-rule:nonzero;"/>
            </g>
            <g transform="matrix(1,0,0,1,1082.76,484.4)">
                <path d="M0,73.042C-5.869,79.888 -12.715,81.844 -19.757,81.844C-32.667,81.844 -42.057,71.477 -42.057,58.175C-42.057,45.265 -32.667,34.702 -19.757,34.702C-12.715,34.702 -5.869,36.854 0,43.7L0,73.042ZM0,-24.502L0,16.119C-7.042,11.62 -15.649,8.881 -26.017,8.881C-51.642,8.881 -73.158,30.007 -73.158,58.175C-73.158,86.539 -51.642,107.86 -26.017,107.86C-15.649,107.86 -7.042,105.122 0,100.622L0,105.513L30.096,105.513L30.096,-32.787C10.305,-34.818 2.225,-26.704 0,-24.502" style="fill:rgb(29,29,27);fill-rule:nonzero;"/>
            </g>
        </g>
    </g>
</svg>
