<?xml version="1.0" encoding="UTF-8" standalone="no"?>
<!DOCTYPE svg PUBLIC "-//W3C//DTD SVG 1.1//EN" "http://www.w3.org/Graphics/SVG/1.1/DTD/svg11.dtd">
<svg width="100%" height="100%" viewBox="0 0 1761 290" version="1.1" xmlns="http://www.w3.org/2000/svg" xmlns:xlink="http://www.w3.org/1999/xlink" xml:space="preserve" xmlns:serif="http://www.serif.com/" style="fill-rule:evenodd;clip-rule:evenodd;stroke-linejoin:round;stroke-miterlimit:2;">
    <g transform="matrix(1,0,0,1,-24.6926,-155.382)">
        <g id="creative-business--negro-" serif:id="creative business (negro)" transform="matrix(0.855969,0,0,0.855969,244.618,43.2092)">
            <g transform="matrix(2.95382,0,0,0.55452,14.462,133.419)">
                <rect x="-4.889" y="-4.277" width="609.366" height="609.366" style="fill:rgb(232,232,232);fill-opacity:0;"/>
            </g>
            <g transform="matrix(0.982587,0,0,0.982587,17.4396,-25.399)">
                <g transform="matrix(18.8161,0,0,18.8161,-4561.31,-1549.69)">
                    <g transform="matrix(12,0,0,12,244.163,103.827)">
                        <path d="M0.332,0.008C0.275,0.008 0.223,-0.004 0.178,-0.028C0.132,-0.051 0.096,-0.084 0.071,-0.126C0.045,-0.168 0.032,-0.216 0.032,-0.269C0.032,-0.322 0.045,-0.37 0.071,-0.412C0.096,-0.454 0.132,-0.487 0.178,-0.511C0.223,-0.534 0.275,-0.546 0.332,-0.546C0.389,-0.546 0.438,-0.534 0.481,-0.511C0.523,-0.487 0.554,-0.453 0.573,-0.409L0.452,-0.344C0.424,-0.393 0.384,-0.418 0.331,-0.418C0.29,-0.418 0.257,-0.405 0.23,-0.378C0.203,-0.351 0.19,-0.315 0.19,-0.269C0.19,-0.223 0.203,-0.187 0.23,-0.16C0.257,-0.133 0.29,-0.12 0.331,-0.12C0.384,-0.12 0.425,-0.145 0.452,-0.194L0.573,-0.128C0.554,-0.085 0.523,-0.052 0.481,-0.028C0.438,-0.004 0.389,0.008 0.332,0.008Z" style="fill-rule:nonzero;"/>
                    </g>
                    <g transform="matrix(12,0,0,12,250.535,103.827)">
                        <path d="M0.221,-0.467C0.24,-0.493 0.265,-0.513 0.297,-0.526C0.328,-0.539 0.365,-0.546 0.406,-0.546L0.406,-0.402C0.389,-0.403 0.377,-0.404 0.371,-0.404C0.326,-0.404 0.291,-0.392 0.266,-0.367C0.241,-0.341 0.228,-0.304 0.228,-0.254L0.228,-0L0.072,-0L0.072,-0.538L0.221,-0.538L0.221,-0.467Z" style="fill-rule:nonzero;"/>
                    </g>
                    <g transform="matrix(12,0,0,12,254.879,103.827)">
                        <path d="M0.599,-0.267C0.599,-0.265 0.598,-0.251 0.596,-0.225L0.189,-0.225C0.196,-0.192 0.214,-0.165 0.241,-0.146C0.268,-0.127 0.302,-0.117 0.343,-0.117C0.371,-0.117 0.396,-0.121 0.418,-0.13C0.439,-0.138 0.459,-0.151 0.478,-0.169L0.561,-0.079C0.51,-0.021 0.436,0.008 0.339,0.008C0.278,0.008 0.225,-0.004 0.178,-0.028C0.131,-0.051 0.095,-0.084 0.07,-0.126C0.045,-0.168 0.032,-0.216 0.032,-0.269C0.032,-0.322 0.045,-0.369 0.07,-0.412C0.094,-0.454 0.129,-0.487 0.173,-0.511C0.216,-0.534 0.265,-0.546 0.319,-0.546C0.372,-0.546 0.419,-0.535 0.462,-0.512C0.505,-0.489 0.538,-0.457 0.563,-0.415C0.587,-0.372 0.599,-0.323 0.599,-0.267ZM0.32,-0.428C0.285,-0.428 0.255,-0.418 0.231,-0.398C0.207,-0.378 0.192,-0.351 0.187,-0.316L0.452,-0.316C0.447,-0.35 0.432,-0.377 0.408,-0.398C0.384,-0.418 0.355,-0.428 0.32,-0.428Z" style="fill-rule:nonzero;"/>
                    </g>
                    <g transform="matrix(12,0,0,12,261.551,103.827)">
                        <path d="M0.289,-0.546C0.372,-0.546 0.436,-0.526 0.481,-0.487C0.526,-0.447 0.548,-0.387 0.548,-0.307L0.548,-0L0.402,-0L0.402,-0.067C0.373,-0.017 0.318,0.008 0.238,0.008C0.197,0.008 0.161,0.001 0.131,-0.013C0.1,-0.027 0.077,-0.046 0.061,-0.071C0.045,-0.096 0.037,-0.124 0.037,-0.155C0.037,-0.205 0.056,-0.244 0.094,-0.273C0.131,-0.302 0.189,-0.316 0.268,-0.316L0.392,-0.316C0.392,-0.35 0.382,-0.376 0.361,-0.395C0.34,-0.413 0.309,-0.422 0.268,-0.422C0.239,-0.422 0.211,-0.418 0.184,-0.409C0.156,-0.4 0.132,-0.387 0.113,-0.372L0.057,-0.481C0.086,-0.502 0.122,-0.518 0.163,-0.529C0.204,-0.54 0.246,-0.546 0.289,-0.546ZM0.277,-0.097C0.304,-0.097 0.327,-0.103 0.348,-0.116C0.369,-0.128 0.383,-0.146 0.392,-0.17L0.392,-0.225L0.285,-0.225C0.221,-0.225 0.189,-0.204 0.189,-0.162C0.189,-0.142 0.197,-0.126 0.213,-0.115C0.228,-0.103 0.25,-0.097 0.277,-0.097Z" style="fill-rule:nonzero;"/>
                    </g>
                    <g transform="matrix(12,0,0,12,268.235,103.827)">
                        <path d="M0.419,-0.026C0.404,-0.015 0.385,-0.006 0.363,-0.001C0.34,0.005 0.317,0.008 0.292,0.008C0.228,0.008 0.179,-0.008 0.144,-0.041C0.109,-0.074 0.091,-0.122 0.091,-0.185L0.091,-0.406L0.008,-0.406L0.008,-0.526L0.091,-0.526L0.091,-0.657L0.247,-0.657L0.247,-0.526L0.381,-0.526L0.381,-0.406L0.247,-0.406L0.247,-0.187C0.247,-0.164 0.253,-0.147 0.265,-0.135C0.276,-0.122 0.293,-0.116 0.314,-0.116C0.339,-0.116 0.36,-0.123 0.377,-0.136L0.419,-0.026Z" style="fill-rule:nonzero;"/>
                    </g>
                    <g transform="matrix(12,0,0,12,272.735,103.827)">
                        <path d="M0.072,-0.538L0.228,-0.538L0.228,-0L0.072,-0L0.072,-0.538ZM0.15,-0.613C0.121,-0.613 0.098,-0.621 0.08,-0.638C0.062,-0.655 0.053,-0.675 0.053,-0.7C0.053,-0.725 0.062,-0.745 0.08,-0.762C0.098,-0.779 0.121,-0.787 0.15,-0.787C0.179,-0.787 0.202,-0.779 0.22,-0.763C0.238,-0.747 0.247,-0.727 0.247,-0.703C0.247,-0.677 0.238,-0.656 0.22,-0.639C0.202,-0.622 0.179,-0.613 0.15,-0.613Z" style="fill-rule:nonzero;"/>
                    </g>
                    <g transform="matrix(12,0,0,12,275.627,103.827)">
                        <path d="M0.606,-0.538L0.379,-0L0.218,-0L-0.008,-0.538L0.153,-0.538L0.302,-0.172L0.456,-0.538L0.606,-0.538Z" style="fill-rule:nonzero;"/>
                    </g>
                    <g transform="matrix(12,0,0,12,281.903,103.827)">
                        <path d="M0.599,-0.267C0.599,-0.265 0.598,-0.251 0.596,-0.225L0.189,-0.225C0.196,-0.192 0.214,-0.165 0.241,-0.146C0.268,-0.127 0.302,-0.117 0.343,-0.117C0.371,-0.117 0.396,-0.121 0.418,-0.13C0.439,-0.138 0.459,-0.151 0.478,-0.169L0.561,-0.079C0.51,-0.021 0.436,0.008 0.339,0.008C0.278,0.008 0.225,-0.004 0.178,-0.028C0.131,-0.051 0.095,-0.084 0.07,-0.126C0.045,-0.168 0.032,-0.216 0.032,-0.269C0.032,-0.322 0.045,-0.369 0.07,-0.412C0.094,-0.454 0.129,-0.487 0.173,-0.511C0.216,-0.534 0.265,-0.546 0.319,-0.546C0.372,-0.546 0.419,-0.535 0.462,-0.512C0.505,-0.489 0.538,-0.457 0.563,-0.415C0.587,-0.372 0.599,-0.323 0.599,-0.267ZM0.32,-0.428C0.285,-0.428 0.255,-0.418 0.231,-0.398C0.207,-0.378 0.192,-0.351 0.187,-0.316L0.452,-0.316C0.447,-0.35 0.432,-0.377 0.408,-0.398C0.384,-0.418 0.355,-0.428 0.32,-0.428Z" style="fill-rule:nonzero;"/>
                    </g>
                    <g transform="matrix(12,0,0,12,291.179,103.827)">
                        <path d="M0.37,-0.53C0.419,-0.53 0.464,-0.519 0.504,-0.497C0.544,-0.474 0.575,-0.443 0.598,-0.402C0.621,-0.361 0.632,-0.315 0.632,-0.263C0.632,-0.211 0.621,-0.165 0.598,-0.124C0.575,-0.083 0.544,-0.052 0.504,-0.029C0.464,-0.006 0.419,0.005 0.37,0.005C0.326,0.005 0.286,-0.004 0.252,-0.023C0.217,-0.042 0.188,-0.069 0.167,-0.104L0.167,-0L0.099,-0L0.099,-0.742L0.17,-0.742L0.17,-0.426C0.192,-0.46 0.22,-0.486 0.255,-0.504C0.289,-0.521 0.327,-0.53 0.37,-0.53ZM0.365,-0.058C0.402,-0.058 0.435,-0.067 0.465,-0.084C0.495,-0.1 0.519,-0.125 0.536,-0.156C0.553,-0.187 0.561,-0.223 0.561,-0.263C0.561,-0.303 0.553,-0.339 0.536,-0.37C0.519,-0.401 0.495,-0.426 0.465,-0.443C0.435,-0.46 0.402,-0.468 0.365,-0.468C0.328,-0.468 0.294,-0.46 0.265,-0.443C0.235,-0.426 0.212,-0.401 0.195,-0.37C0.178,-0.339 0.169,-0.303 0.169,-0.263C0.169,-0.223 0.178,-0.187 0.195,-0.156C0.212,-0.125 0.235,-0.1 0.265,-0.084C0.294,-0.067 0.328,-0.058 0.365,-0.058Z" style="fill-rule:nonzero;"/>
                    </g>
                    <g transform="matrix(12,0,0,12,298.595,103.827)">
                        <path d="M0.573,-0.526L0.573,-0L0.505,-0L0.505,-0.096C0.486,-0.064 0.461,-0.039 0.428,-0.022C0.395,-0.004 0.358,0.005 0.316,0.005C0.247,0.005 0.193,-0.014 0.154,-0.053C0.114,-0.091 0.094,-0.147 0.094,-0.221L0.094,-0.526L0.165,-0.526L0.165,-0.228C0.165,-0.173 0.179,-0.131 0.206,-0.102C0.233,-0.073 0.272,-0.059 0.323,-0.059C0.378,-0.059 0.422,-0.076 0.454,-0.11C0.486,-0.143 0.502,-0.19 0.502,-0.25L0.502,-0.526L0.573,-0.526Z" style="fill-rule:nonzero;"/>
                    </g>
                    <g transform="matrix(12,0,0,12,305.951,103.827)">
                        <path d="M0.24,0.005C0.197,0.005 0.157,-0.001 0.118,-0.014C0.079,-0.026 0.048,-0.041 0.026,-0.06L0.058,-0.116C0.08,-0.099 0.108,-0.085 0.141,-0.074C0.174,-0.063 0.209,-0.057 0.245,-0.057C0.293,-0.057 0.329,-0.065 0.352,-0.08C0.375,-0.095 0.386,-0.116 0.386,-0.143C0.386,-0.162 0.38,-0.178 0.367,-0.189C0.354,-0.2 0.338,-0.208 0.319,-0.214C0.3,-0.219 0.274,-0.225 0.242,-0.23C0.199,-0.238 0.165,-0.246 0.139,-0.255C0.113,-0.263 0.091,-0.277 0.073,-0.297C0.054,-0.317 0.045,-0.345 0.045,-0.38C0.045,-0.424 0.063,-0.46 0.1,-0.488C0.137,-0.516 0.188,-0.53 0.253,-0.53C0.287,-0.53 0.321,-0.526 0.355,-0.517C0.389,-0.507 0.417,-0.496 0.439,-0.481L0.408,-0.424C0.365,-0.454 0.313,-0.469 0.253,-0.469C0.208,-0.469 0.173,-0.461 0.151,-0.445C0.128,-0.429 0.116,-0.408 0.116,-0.382C0.116,-0.362 0.123,-0.346 0.136,-0.334C0.149,-0.322 0.165,-0.313 0.184,-0.308C0.203,-0.302 0.23,-0.296 0.264,-0.29C0.306,-0.282 0.34,-0.274 0.365,-0.266C0.39,-0.258 0.412,-0.244 0.43,-0.225C0.448,-0.206 0.457,-0.179 0.457,-0.145C0.457,-0.099 0.438,-0.063 0.4,-0.036C0.361,-0.009 0.308,0.005 0.24,0.005Z" style="fill-rule:nonzero;"/>
                    </g>
                    <g transform="matrix(12,0,0,12,311.099,103.827)">
                        <path d="M0.099,-0.526L0.17,-0.526L0.17,-0L0.099,-0L0.099,-0.526ZM0.135,-0.641C0.12,-0.641 0.108,-0.646 0.098,-0.656C0.088,-0.666 0.083,-0.678 0.083,-0.692C0.083,-0.705 0.088,-0.717 0.098,-0.727C0.108,-0.737 0.12,-0.742 0.135,-0.742C0.15,-0.742 0.162,-0.737 0.172,-0.728C0.182,-0.718 0.187,-0.706 0.187,-0.693C0.187,-0.678 0.182,-0.666 0.172,-0.656C0.162,-0.646 0.15,-0.641 0.135,-0.641Z" style="fill-rule:nonzero;"/>
                    </g>
                    <g transform="matrix(12,0,0,12,313.607,103.827)">
                        <path d="M0.367,-0.53C0.433,-0.53 0.486,-0.511 0.525,-0.473C0.564,-0.434 0.583,-0.378 0.583,-0.305L0.583,-0L0.512,-0L0.512,-0.298C0.512,-0.353 0.498,-0.394 0.471,-0.423C0.444,-0.452 0.405,-0.466 0.354,-0.466C0.297,-0.466 0.253,-0.449 0.22,-0.416C0.187,-0.382 0.17,-0.335 0.17,-0.276L0.17,-0L0.099,-0L0.099,-0.526L0.167,-0.526L0.167,-0.429C0.186,-0.461 0.213,-0.486 0.248,-0.504C0.282,-0.521 0.322,-0.53 0.367,-0.53Z" style="fill-rule:nonzero;"/>
                    </g>
                    <g transform="matrix(12,0,0,12,321.035,103.827)">
                        <path d="M0.557,-0.241L0.117,-0.241C0.121,-0.186 0.142,-0.142 0.18,-0.109C0.218,-0.075 0.266,-0.058 0.324,-0.058C0.357,-0.058 0.387,-0.064 0.414,-0.076C0.441,-0.087 0.465,-0.104 0.485,-0.127L0.525,-0.081C0.502,-0.053 0.472,-0.032 0.438,-0.017C0.403,-0.002 0.364,0.005 0.322,0.005C0.268,0.005 0.22,-0.007 0.179,-0.03C0.137,-0.053 0.104,-0.084 0.081,-0.125C0.058,-0.166 0.046,-0.212 0.046,-0.263C0.046,-0.314 0.057,-0.36 0.08,-0.401C0.102,-0.442 0.133,-0.473 0.172,-0.496C0.211,-0.519 0.254,-0.53 0.303,-0.53C0.352,-0.53 0.395,-0.519 0.434,-0.496C0.473,-0.473 0.503,-0.442 0.525,-0.402C0.547,-0.361 0.558,-0.315 0.558,-0.263L0.557,-0.241ZM0.303,-0.469C0.252,-0.469 0.21,-0.453 0.176,-0.421C0.141,-0.388 0.122,-0.346 0.117,-0.294L0.49,-0.294C0.485,-0.346 0.466,-0.388 0.432,-0.421C0.397,-0.453 0.354,-0.469 0.303,-0.469Z" style="fill-rule:nonzero;"/>
                    </g>
                    <g transform="matrix(12,0,0,12,327.563,103.827)">
                        <path d="M0.24,0.005C0.197,0.005 0.157,-0.001 0.118,-0.014C0.079,-0.026 0.048,-0.041 0.026,-0.06L0.058,-0.116C0.08,-0.099 0.108,-0.085 0.141,-0.074C0.174,-0.063 0.209,-0.057 0.245,-0.057C0.293,-0.057 0.329,-0.065 0.352,-0.08C0.375,-0.095 0.386,-0.116 0.386,-0.143C0.386,-0.162 0.38,-0.178 0.367,-0.189C0.354,-0.2 0.338,-0.208 0.319,-0.214C0.3,-0.219 0.274,-0.225 0.242,-0.23C0.199,-0.238 0.165,-0.246 0.139,-0.255C0.113,-0.263 0.091,-0.277 0.073,-0.297C0.054,-0.317 0.045,-0.345 0.045,-0.38C0.045,-0.424 0.063,-0.46 0.1,-0.488C0.137,-0.516 0.188,-0.53 0.253,-0.53C0.287,-0.53 0.321,-0.526 0.355,-0.517C0.389,-0.507 0.417,-0.496 0.439,-0.481L0.408,-0.424C0.365,-0.454 0.313,-0.469 0.253,-0.469C0.208,-0.469 0.173,-0.461 0.151,-0.445C0.128,-0.429 0.116,-0.408 0.116,-0.382C0.116,-0.362 0.123,-0.346 0.136,-0.334C0.149,-0.322 0.165,-0.313 0.184,-0.308C0.203,-0.302 0.23,-0.296 0.264,-0.29C0.306,-0.282 0.34,-0.274 0.365,-0.266C0.39,-0.258 0.412,-0.244 0.43,-0.225C0.448,-0.206 0.457,-0.179 0.457,-0.145C0.457,-0.099 0.438,-0.063 0.4,-0.036C0.361,-0.009 0.308,0.005 0.24,0.005Z" style="fill-rule:nonzero;"/>
                    </g>
                    <g transform="matrix(12,0,0,12,332.711,103.827)">
                        <path d="M0.24,0.005C0.197,0.005 0.157,-0.001 0.118,-0.014C0.079,-0.026 0.048,-0.041 0.026,-0.06L0.058,-0.116C0.08,-0.099 0.108,-0.085 0.141,-0.074C0.174,-0.063 0.209,-0.057 0.245,-0.057C0.293,-0.057 0.329,-0.065 0.352,-0.08C0.375,-0.095 0.386,-0.116 0.386,-0.143C0.386,-0.162 0.38,-0.178 0.367,-0.189C0.354,-0.2 0.338,-0.208 0.319,-0.214C0.3,-0.219 0.274,-0.225 0.242,-0.23C0.199,-0.238 0.165,-0.246 0.139,-0.255C0.113,-0.263 0.091,-0.277 0.073,-0.297C0.054,-0.317 0.045,-0.345 0.045,-0.38C0.045,-0.424 0.063,-0.46 0.1,-0.488C0.137,-0.516 0.188,-0.53 0.253,-0.53C0.287,-0.53 0.321,-0.526 0.355,-0.517C0.389,-0.507 0.417,-0.496 0.439,-0.481L0.408,-0.424C0.365,-0.454 0.313,-0.469 0.253,-0.469C0.208,-0.469 0.173,-0.461 0.151,-0.445C0.128,-0.429 0.116,-0.408 0.116,-0.382C0.116,-0.362 0.123,-0.346 0.136,-0.334C0.149,-0.322 0.165,-0.313 0.184,-0.308C0.203,-0.302 0.23,-0.296 0.264,-0.29C0.306,-0.282 0.34,-0.274 0.365,-0.266C0.39,-0.258 0.412,-0.244 0.43,-0.225C0.448,-0.206 0.457,-0.179 0.457,-0.145C0.457,-0.099 0.438,-0.063 0.4,-0.036C0.361,-0.009 0.308,0.005 0.24,0.005Z" style="fill-rule:nonzero;"/>
                    </g>
                </g>
                <g transform="matrix(0.481014,0,0,0.481014,-279.233,208.026)">
                    <path d="M256,0C114.844,0 0,114.844 0,256C0,397.156 114.844,512 256,512C397.156,512 512,397.156 512,256C512,114.844 397.156,0 256,0ZM256,469.333C197.884,469.333 145.18,445.915 106.667,408.095L106.667,373.333C106.667,363.187 111.209,356.656 116.459,349.093C121.865,341.313 128,332.49 128,320C128,299.656 109.635,297.594 99.76,296.49C92.697,295.698 86.031,294.948 82.208,291.125C79.312,288.229 76.416,282.969 73.354,277.406C67.273,266.342 59.03,251.711 43.337,242.75C50.236,131.296 142.837,42.667 256,42.667C261.855,42.667 267.611,43.081 273.349,43.546C272.181,44.313 270.75,44.834 269.792,45.792C267.719,47.865 266.584,50.709 266.667,53.646C266.761,56.573 268.052,59.344 270.24,61.302C274.073,64.708 274.813,66.427 274.959,66.427C274.719,66.937 272.761,70.281 261.844,75.823C243.823,84.958 223.011,103.656 219.917,123.115C218.5,131.948 221.063,140.146 227.125,146.209C229.125,148.209 231.833,149.334 234.667,149.334C249.48,149.334 260.927,143.855 272,138.563C283.365,133.135 294.104,128 309.333,128C351.198,128 384,137.375 384,149.333C384,153.718 382.635,155.062 382.115,155.562C376.875,160.718 359.032,160.385 343.344,160.145C339.188,160.072 334.938,159.999 330.667,159.999C316.188,159.999 311.698,157.884 306.5,155.426C300.448,152.572 293.594,149.332 277.333,149.332C259.75,149.332 227.073,152.509 205.791,173.79C188.385,191.186 190.228,211.998 191.437,225.759C191.718,228.926 192,231.926 192,234.665C192,255.675 213.469,266.665 234.667,266.665C267.271,266.665 295.459,272.748 298.667,277.332C298.667,289.27 302.219,297.426 305.073,303.967C307.448,309.436 309.333,313.748 309.333,319.998C309.333,324.831 308.541,325.863 306.406,328.613C302.333,333.905 298.666,339.665 298.666,351.998C298.666,374.446 320.281,399.071 322.739,401.811C324.791,404.082 327.687,405.332 330.666,405.332C331.551,405.332 332.437,405.228 333.312,404.999C339.593,403.384 394.666,388.228 394.666,351.999C394.666,340.645 398.197,337.582 403.551,332.936C408.801,328.373 415.999,322.134 415.999,309.332C415.999,300.78 431.176,278.707 445.239,263.155C447.229,260.957 448.218,258.02 447.958,255.061C447.698,252.103 446.218,249.384 443.875,247.571C435.583,241.144 412.687,220.217 405.021,199.915C409.365,202.186 414.802,205.884 419.125,210.207C422.677,213.78 427.438,215.488 432.854,215.27C441.493,214.777 451.756,207.951 461.482,199.437C466.457,217.483 469.334,236.393 469.334,256C469.333,373.635 373.635,469.333 256,469.333Z" style="fill-rule:nonzero;"/>
                </g>
            </g>
        </g>
    </g>
</svg>
