<?xml version="1.0" encoding="UTF-8" standalone="no"?>
<!DOCTYPE svg PUBLIC "-//W3C//DTD SVG 1.1//EN" "http://www.w3.org/Graphics/SVG/1.1/DTD/svg11.dtd">
<svg width="100%" height="100%" viewBox="0 0 728 139" version="1.1" xmlns="http://www.w3.org/2000/svg" xmlns:xlink="http://www.w3.org/1999/xlink" xml:space="preserve" xmlns:serif="http://www.serif.com/" style="fill-rule:evenodd;clip-rule:evenodd;stroke-linejoin:round;stroke-miterlimit:2;">
    <g transform="matrix(1,0,0,1,-1093.98,-257.228)">
        <g transform="matrix(1,0,0,1.72972,16.9313,40.2857)">
            <g id="Crea---Logo-blanco-1" serif:id="Crea - Logo blanco 1" transform="matrix(0.936673,0,0,0.541517,631.731,-51.7384)">
                <g transform="matrix(1.06761,0,0,1.06761,-674.368,78.1567)">
                    <path d="M1458.13,355.518C1476.21,355.518 1492.83,346.475 1502.5,331.333C1505.66,326.495 1504.39,319.976 1499.56,316.821C1494.72,313.877 1488.2,315.139 1485.05,319.976C1479.16,329.23 1469.06,334.698 1458.13,334.698C1440.67,334.698 1426.16,320.186 1426.16,302.73C1426.16,285.064 1440.67,270.763 1458.13,270.763C1469.69,270.763 1480.21,276.862 1485.89,286.747C1488.83,291.584 1495.14,293.266 1500.19,290.532C1505.03,287.588 1506.92,281.279 1503.97,276.231C1494.51,260.037 1477.05,249.942 1458.13,249.942C1429.1,249.942 1405.55,273.497 1405.55,302.73C1405.55,331.753 1429.1,355.518 1458.13,355.518ZM1570.01,249.942C1540.99,249.942 1517.22,273.497 1517.22,302.73L1517.22,345.003C1517.22,350.681 1521.85,355.518 1527.74,355.518C1533.42,355.518 1538.04,350.681 1538.04,345.003L1538.04,302.73C1538.04,285.064 1552.35,270.763 1570.01,270.763C1575.9,270.763 1580.53,265.926 1580.53,260.247C1580.53,254.569 1575.9,249.942 1570.01,249.942ZM1632.68,249.732C1603.45,249.732 1579.9,273.287 1579.9,302.52C1579.9,331.543 1603.45,355.308 1632.68,355.308C1640.47,355.308 1651.19,355.518 1665.07,346.265C1669.91,343.11 1672.64,337.642 1670.12,332.384C1667.6,327.337 1661.08,324.392 1656.24,327.547C1646.14,334.067 1637.52,334.487 1632.68,334.487C1618.59,334.487 1606.82,325.444 1602.4,312.825L1674.96,312.825C1680.85,312.825 1685.47,308.198 1685.47,302.52C1685.47,268.239 1658.13,249.732 1632.68,249.732ZM1751.51,250.153C1721.86,250.153 1698.3,273.707 1698.3,303.361C1698.3,333.015 1721.86,355.098 1751.51,355.098C1763.5,355.098 1773.59,352.153 1782.64,344.582C1782.64,350.681 1788.53,355.098 1792.73,355.098C1798.83,355.098 1803.25,350.681 1803.25,344.582L1803.25,303.361C1803.25,273.707 1781.16,250.153 1751.51,250.153ZM1751.51,334.487C1733.84,334.487 1718.91,321.027 1718.91,303.361C1718.91,285.695 1733.84,270.763 1751.51,270.763C1769.18,270.763 1782.64,285.695 1782.64,303.361C1782.64,321.027 1769.18,334.487 1751.51,334.487ZM1632.68,270.553C1645.3,270.553 1658.76,277.283 1663.18,292.004L1602.4,292.004C1606.82,279.596 1618.59,270.553 1632.68,270.553Z" style="fill:white;fill-rule:nonzero;"/>
                </g>
                <g transform="matrix(0.555815,0,0,0.555815,422.51,242.267)">
                    <path d="M570.26,196.94C527.112,148.811 455.75,138.854 400.98,172.6C389.363,179.791 378.3,189.748 368.343,201.92L349.534,225.154L301.405,285.451L272.085,321.408C267.659,326.939 262.679,331.365 258.257,334.131C234.468,348.514 204.042,344.088 185.234,323.619C165.871,302.045 165.871,268.853 185.234,247.279C196.296,235.107 211.789,228.47 227.832,228.47C238.344,228.47 248.855,231.79 258.258,236.767C263.239,239.533 267.664,243.958 272.086,249.49L279.961,259.15L328.598,199.502C319.192,188.463 308.899,179.291 298.086,172.596C243.32,138.85 171.956,148.807 128.806,196.936C83.997,247.276 83.997,325.276 128.806,375.066C154.806,404.386 191.318,419.32 227.829,419.32C252.169,419.32 275.958,412.683 298.087,398.851C309.704,391.66 320.767,381.703 330.728,369.531L349.537,346.297L398.217,286L427.537,250.043C431.963,244.512 436.939,240.086 441.365,237.32C465.154,222.937 495.58,227.363 514.388,247.832C533.751,269.406 533.751,302.598 514.388,324.172C495.579,344.641 465.154,349.067 441.365,334.684C436.384,331.919 431.959,327.493 427.537,321.961L419.365,311.938L370.213,372.219C379.686,383.391 390.072,392.66 400.979,399.41C455.745,433.156 527.109,423.199 570.259,375.07C615.068,324.73 615.068,246.73 570.259,196.94L570.26,196.94Z" style="fill:white;fill-rule:nonzero;"/>
                </g>
            </g>
        </g>
    </g>
</svg>
