<?xml version="1.0" encoding="UTF-8" standalone="no"?>
<!DOCTYPE svg PUBLIC "-//W3C//DTD SVG 1.1//EN" "http://www.w3.org/Graphics/SVG/1.1/DTD/svg11.dtd">
<svg width="100%" height="100%" viewBox="0 0 368 136" version="1.1" xmlns="http://www.w3.org/2000/svg" xmlns:xlink="http://www.w3.org/1999/xlink" xml:space="preserve" xmlns:serif="http://www.serif.com/" style="fill-rule:evenodd;clip-rule:evenodd;stroke-linejoin:round;stroke-miterlimit:2;">
    <g transform="matrix(1,0,0,1,-69.4699,-1301.03)">
        <g transform="matrix(1,0,0,0.575865,-20.5995,1082.45)">
            <g id="creative-for-artists--blanco-" serif:id="creative for artists (blanco)" transform="matrix(1.04545,0,0,1.81545,-25.0347,-527.46)">
                <g transform="matrix(0.996989,0,0,0.996989,-2.94728,312.286)">
                    <g transform="matrix(0.458618,0,0,0.458618,143.404,187.892)">
                        <g transform="matrix(189.613,0,0,189.613,-6.06447,149.228)">
                            <path d="M0.332,0.008C0.275,0.008 0.223,-0.004 0.178,-0.028C0.132,-0.051 0.096,-0.084 0.071,-0.126C0.045,-0.168 0.032,-0.216 0.032,-0.269C0.032,-0.322 0.045,-0.37 0.071,-0.412C0.096,-0.454 0.132,-0.487 0.178,-0.511C0.223,-0.534 0.275,-0.546 0.332,-0.546C0.389,-0.546 0.438,-0.534 0.481,-0.511C0.523,-0.487 0.554,-0.453 0.573,-0.409L0.452,-0.344C0.424,-0.393 0.384,-0.418 0.331,-0.418C0.29,-0.418 0.257,-0.405 0.23,-0.378C0.203,-0.351 0.19,-0.315 0.19,-0.269C0.19,-0.223 0.203,-0.187 0.23,-0.16C0.257,-0.133 0.29,-0.12 0.331,-0.12C0.384,-0.12 0.425,-0.145 0.452,-0.194L0.573,-0.128C0.554,-0.085 0.523,-0.052 0.481,-0.028C0.438,-0.004 0.389,0.008 0.332,0.008Z" style="fill:white;fill-rule:nonzero;"/>
                        </g>
                        <g transform="matrix(189.613,0,0,189.613,94.6203,149.228)">
                            <path d="M0.221,-0.467C0.24,-0.493 0.265,-0.513 0.297,-0.526C0.328,-0.539 0.365,-0.546 0.406,-0.546L0.406,-0.402C0.389,-0.403 0.377,-0.404 0.371,-0.404C0.326,-0.404 0.291,-0.392 0.266,-0.367C0.241,-0.341 0.228,-0.304 0.228,-0.254L0.228,0L0.072,0L0.072,-0.538L0.221,-0.538L0.221,-0.467Z" style="fill:white;fill-rule:nonzero;"/>
                        </g>
                        <g transform="matrix(189.613,0,0,189.613,163.26,149.228)">
                            <path d="M0.599,-0.267C0.599,-0.265 0.598,-0.251 0.596,-0.225L0.189,-0.225C0.196,-0.192 0.214,-0.165 0.241,-0.146C0.268,-0.127 0.302,-0.117 0.343,-0.117C0.371,-0.117 0.396,-0.121 0.418,-0.13C0.439,-0.138 0.459,-0.151 0.478,-0.169L0.561,-0.079C0.51,-0.021 0.436,0.008 0.339,0.008C0.278,0.008 0.225,-0.004 0.178,-0.028C0.131,-0.051 0.095,-0.084 0.07,-0.126C0.045,-0.168 0.032,-0.216 0.032,-0.269C0.032,-0.322 0.045,-0.369 0.07,-0.412C0.094,-0.454 0.129,-0.487 0.173,-0.511C0.216,-0.534 0.265,-0.546 0.319,-0.546C0.372,-0.546 0.419,-0.535 0.462,-0.512C0.505,-0.489 0.538,-0.457 0.563,-0.415C0.587,-0.372 0.599,-0.323 0.599,-0.267ZM0.32,-0.428C0.285,-0.428 0.255,-0.418 0.231,-0.398C0.207,-0.378 0.192,-0.351 0.187,-0.316L0.452,-0.316C0.447,-0.35 0.432,-0.377 0.408,-0.398C0.384,-0.418 0.355,-0.428 0.32,-0.428Z" style="fill:white;fill-rule:nonzero;"/>
                        </g>
                        <g transform="matrix(189.613,0,0,189.613,268.685,149.228)">
                            <path d="M0.289,-0.546C0.372,-0.546 0.436,-0.526 0.481,-0.487C0.526,-0.447 0.548,-0.387 0.548,-0.307L0.548,0L0.402,0L0.402,-0.067C0.373,-0.017 0.318,0.008 0.238,0.008C0.197,0.008 0.161,0.001 0.131,-0.013C0.1,-0.027 0.077,-0.046 0.061,-0.071C0.045,-0.096 0.037,-0.124 0.037,-0.155C0.037,-0.205 0.056,-0.244 0.094,-0.273C0.131,-0.302 0.189,-0.316 0.268,-0.316L0.392,-0.316C0.392,-0.35 0.382,-0.376 0.361,-0.395C0.34,-0.413 0.309,-0.422 0.268,-0.422C0.239,-0.422 0.211,-0.418 0.184,-0.409C0.156,-0.4 0.132,-0.387 0.113,-0.372L0.057,-0.481C0.086,-0.502 0.122,-0.518 0.163,-0.529C0.204,-0.54 0.246,-0.546 0.289,-0.546ZM0.277,-0.097C0.304,-0.097 0.327,-0.103 0.348,-0.116C0.369,-0.128 0.383,-0.146 0.392,-0.17L0.392,-0.225L0.285,-0.225C0.221,-0.225 0.189,-0.204 0.189,-0.162C0.189,-0.142 0.197,-0.126 0.213,-0.115C0.228,-0.103 0.25,-0.097 0.277,-0.097Z" style="fill:white;fill-rule:nonzero;"/>
                        </g>
                        <g transform="matrix(189.613,0,0,189.613,374.3,149.228)">
                            <path d="M0.419,-0.026C0.404,-0.015 0.385,-0.006 0.363,-0.001C0.34,0.005 0.317,0.008 0.292,0.008C0.228,0.008 0.179,-0.008 0.144,-0.041C0.109,-0.074 0.091,-0.122 0.091,-0.185L0.091,-0.406L0.008,-0.406L0.008,-0.526L0.091,-0.526L0.091,-0.657L0.247,-0.657L0.247,-0.526L0.381,-0.526L0.381,-0.406L0.247,-0.406L0.247,-0.187C0.247,-0.164 0.253,-0.147 0.265,-0.135C0.276,-0.122 0.293,-0.116 0.314,-0.116C0.339,-0.116 0.36,-0.123 0.377,-0.136L0.419,-0.026Z" style="fill:white;fill-rule:nonzero;"/>
                        </g>
                        <g transform="matrix(189.613,0,0,189.613,445.405,149.228)">
                            <path d="M0.072,-0.538L0.228,-0.538L0.228,0L0.072,0L0.072,-0.538ZM0.15,-0.613C0.121,-0.613 0.098,-0.621 0.08,-0.638C0.062,-0.655 0.053,-0.675 0.053,-0.7C0.053,-0.725 0.062,-0.745 0.08,-0.762C0.098,-0.779 0.121,-0.787 0.15,-0.787C0.179,-0.787 0.202,-0.779 0.22,-0.763C0.238,-0.747 0.247,-0.727 0.247,-0.703C0.247,-0.677 0.238,-0.656 0.22,-0.639C0.202,-0.622 0.179,-0.613 0.15,-0.613Z" style="fill:white;fill-rule:nonzero;"/>
                        </g>
                        <g transform="matrix(189.613,0,0,189.613,491.102,149.228)">
                            <path d="M0.606,-0.538L0.379,0L0.218,0L-0.008,-0.538L0.153,-0.538L0.302,-0.172L0.456,-0.538L0.606,-0.538Z" style="fill:white;fill-rule:nonzero;"/>
                        </g>
                        <g transform="matrix(189.613,0,0,189.613,590.27,149.228)">
                            <path d="M0.599,-0.267C0.599,-0.265 0.598,-0.251 0.596,-0.225L0.189,-0.225C0.196,-0.192 0.214,-0.165 0.241,-0.146C0.268,-0.127 0.302,-0.117 0.343,-0.117C0.371,-0.117 0.396,-0.121 0.418,-0.13C0.439,-0.138 0.459,-0.151 0.478,-0.169L0.561,-0.079C0.51,-0.021 0.436,0.008 0.339,0.008C0.278,0.008 0.225,-0.004 0.178,-0.028C0.131,-0.051 0.095,-0.084 0.07,-0.126C0.045,-0.168 0.032,-0.216 0.032,-0.269C0.032,-0.322 0.045,-0.369 0.07,-0.412C0.094,-0.454 0.129,-0.487 0.173,-0.511C0.216,-0.534 0.265,-0.546 0.319,-0.546C0.372,-0.546 0.419,-0.535 0.462,-0.512C0.505,-0.489 0.538,-0.457 0.563,-0.415C0.587,-0.372 0.599,-0.323 0.599,-0.267ZM0.32,-0.428C0.285,-0.428 0.255,-0.418 0.231,-0.398C0.207,-0.378 0.192,-0.351 0.187,-0.316L0.452,-0.316C0.447,-0.35 0.432,-0.377 0.408,-0.398C0.384,-0.418 0.355,-0.428 0.32,-0.428Z" style="fill:white;fill-rule:nonzero;"/>
                        </g>
                    </g>
                    <g transform="matrix(0.824182,0,0,0.824182,-394.391,172.765)">
                        <path d="M670.848,117.589C668.653,117.589 666.995,118.185 665.873,119.378C664.752,120.571 664.191,122.337 664.191,124.676L664.191,129.114L675.788,129.114L675.788,133.409L664.334,133.409L664.334,166.767L659.251,166.767L659.251,133.409L652.522,133.409L652.522,129.114L659.251,129.114L659.251,124.461C659.251,121.025 660.242,118.305 662.222,116.3C664.203,114.296 667.006,113.294 670.633,113.294C672.065,113.294 673.449,113.496 674.785,113.902C676.122,114.308 677.243,114.892 678.15,115.656L676.432,119.45C674.952,118.209 673.091,117.589 670.848,117.589Z" style="fill:white;fill-rule:nonzero;"/>
                        <path d="M697.406,167.125C693.779,167.125 690.51,166.302 687.599,164.656C684.688,163.009 682.397,160.73 680.727,157.819C679.057,154.908 678.221,151.615 678.221,147.941C678.221,144.266 679.057,140.973 680.727,138.062C682.397,135.151 684.688,132.884 687.599,131.261C690.51,129.639 693.779,128.828 697.406,128.828C701.033,128.828 704.302,129.639 707.213,131.261C710.124,132.884 712.403,135.151 714.05,138.062C715.696,140.973 716.519,144.266 716.519,147.941C716.519,151.615 715.696,154.908 714.05,157.819C712.403,160.73 710.124,163.009 707.213,164.656C704.302,166.302 701.033,167.125 697.406,167.125ZM697.406,162.616C700.079,162.616 702.477,162.007 704.6,160.79C706.724,159.573 708.382,157.843 709.576,155.6C710.769,153.357 711.365,150.804 711.365,147.941C711.365,145.077 710.769,142.524 709.576,140.281C708.382,138.038 706.724,136.308 704.6,135.091C702.477,133.874 700.079,133.266 697.406,133.266C694.734,133.266 692.336,133.874 690.212,135.091C688.088,136.308 686.418,138.038 685.201,140.281C683.984,142.524 683.376,145.077 683.376,147.941C683.376,150.804 683.984,153.357 685.201,155.6C686.418,157.843 688.088,159.573 690.212,160.79C692.336,162.007 694.734,162.616 697.406,162.616Z" style="fill:white;fill-rule:nonzero;"/>
                        <path d="M731.767,136.487C732.96,133.958 734.738,132.049 737.1,130.76C739.462,129.472 742.385,128.828 745.869,128.828L745.869,133.767L744.652,133.695C740.691,133.695 737.589,134.912 735.346,137.346C733.103,139.78 731.982,143.192 731.982,147.583L731.982,166.767L726.899,166.767L726.899,129.114L731.767,129.114L731.767,136.487Z" style="fill:white;fill-rule:nonzero;"/>
                        <path d="M829.623,129.114L815.378,166.767L810.582,166.767L798.699,135.914L786.815,166.767L782.019,166.767L767.846,129.114L772.713,129.114L784.525,161.112L796.623,129.114L800.989,129.114L813.016,161.112L824.97,129.114L829.623,129.114Z" style="fill:white;fill-rule:nonzero;"/>
                        <path d="M851.6,167.125C847.973,167.125 844.704,166.302 841.793,164.656C838.881,163.009 836.591,160.73 834.92,157.819C833.25,154.908 832.415,151.615 832.415,147.941C832.415,144.266 833.25,140.973 834.92,138.062C836.591,135.151 838.881,132.884 841.793,131.261C844.704,129.639 847.973,128.828 851.6,128.828C855.227,128.828 858.496,129.639 861.407,131.261C864.318,132.884 866.597,135.151 868.243,138.062C869.89,140.973 870.713,144.266 870.713,147.941C870.713,151.615 869.89,154.908 868.243,157.819C866.597,160.73 864.318,163.009 861.407,164.656C858.496,166.302 855.227,167.125 851.6,167.125ZM851.6,162.616C854.272,162.616 856.67,162.007 858.794,160.79C860.918,159.573 862.576,157.843 863.769,155.6C864.962,153.357 865.559,150.804 865.559,147.941C865.559,145.077 864.962,142.524 863.769,140.281C862.576,138.038 860.918,136.308 858.794,135.091C856.67,133.874 854.272,133.266 851.6,133.266C848.927,133.266 846.529,133.874 844.405,135.091C842.282,136.308 840.611,138.038 839.394,140.281C838.178,142.524 837.569,145.077 837.569,147.941C837.569,150.804 838.178,153.357 839.394,155.6C840.611,157.843 842.282,159.573 844.405,160.79C846.529,162.007 848.927,162.616 851.6,162.616Z" style="fill:white;fill-rule:nonzero;"/>
                        <path d="M928.052,128.828C932.777,128.828 936.487,130.188 939.184,132.908C941.88,135.628 943.228,139.637 943.228,144.934L943.228,166.767L938.146,166.767L938.146,145.435C938.146,141.522 937.203,138.539 935.318,136.487C933.433,134.435 930.772,133.409 927.336,133.409C923.423,133.409 920.345,134.614 918.102,137.024C915.859,139.434 914.737,142.763 914.737,147.01L914.737,166.767L909.655,166.767L909.655,145.435C909.655,141.522 908.712,138.539 906.827,136.487C904.942,134.435 902.258,133.409 898.774,133.409C894.908,133.409 891.842,134.614 889.575,137.024C887.309,139.434 886.175,142.763 886.175,147.01L886.175,166.767L881.093,166.767L881.093,129.114L885.96,129.114L885.96,135.986C887.297,133.695 889.158,131.93 891.544,130.689C893.93,129.448 896.674,128.828 899.776,128.828C902.926,128.828 905.658,129.496 907.973,130.832C910.287,132.168 912.017,134.149 913.163,136.773C914.547,134.292 916.539,132.347 919.14,130.939C921.741,129.531 924.712,128.828 928.052,128.828Z" style="fill:white;fill-rule:nonzero;"/>
                        <path d="M989.973,149.516L958.476,149.516C958.762,153.429 960.265,156.59 962.986,159.001C965.706,161.411 969.142,162.616 973.294,162.616C975.632,162.616 977.78,162.198 979.736,161.363C981.693,160.528 983.387,159.299 984.819,157.676L987.682,160.969C986.012,162.973 983.924,164.501 981.419,165.551C978.913,166.6 976.157,167.125 973.151,167.125C969.285,167.125 965.861,166.302 962.878,164.656C959.895,163.009 957.569,160.73 955.899,157.819C954.228,154.908 953.393,151.615 953.393,147.941C953.393,144.266 954.193,140.973 955.791,138.062C957.39,135.151 959.585,132.884 962.377,131.261C965.169,129.639 968.307,128.828 971.79,128.828C975.274,128.828 978.4,129.639 981.168,131.261C983.936,132.884 986.107,135.139 987.682,138.026C989.257,140.913 990.045,144.218 990.045,147.941L989.973,149.516ZM971.79,133.194C968.164,133.194 965.121,134.351 962.663,136.666C960.206,138.981 958.81,141.999 958.476,145.722L985.177,145.722C984.843,141.999 983.447,138.981 980.989,136.666C978.531,134.351 975.465,133.194 971.79,133.194Z" style="fill:white;fill-rule:nonzero;"/>
                        <path d="M1019.61,128.828C1024.33,128.828 1028.09,130.2 1030.88,132.944C1033.68,135.688 1035.07,139.685 1035.07,144.934L1035.07,166.767L1029.99,166.767L1029.99,145.435C1029.99,141.522 1029.01,138.539 1027.05,136.487C1025.1,134.435 1022.31,133.409 1018.68,133.409C1014.62,133.409 1011.41,134.614 1009.05,137.024C1006.69,139.434 1005.51,142.763 1005.51,147.01L1005.51,166.767L1000.42,166.767L1000.42,129.114L1005.29,129.114L1005.29,136.058C1006.68,133.767 1008.6,131.989 1011.06,130.725C1013.51,129.46 1016.36,128.828 1019.61,128.828Z" style="fill:white;fill-rule:nonzero;"/>
                    </g>
                </g>
                <g transform="matrix(2.70488e-17,-0.441741,0.0363965,2.22864e-18,105.709,903.009)">
                    <path d="M896.089,135.145C896.089,127.132 895.553,120.627 894.893,120.627L620.838,120.627C620.178,120.627 619.642,127.132 619.642,135.145L619.642,382.557C619.642,390.569 620.178,397.074 620.838,397.074L894.893,397.074C895.553,397.074 896.089,390.569 896.089,382.557L896.089,135.145Z" style="fill:rgb(255,215,0);"/>
                </g>
            </g>
        </g>
    </g>
</svg>
