<?xml version="1.0" encoding="UTF-8" standalone="no"?>
<!DOCTYPE svg PUBLIC "-//W3C//DTD SVG 1.1//EN" "http://www.w3.org/Graphics/SVG/1.1/DTD/svg11.dtd">
<svg width="100%" height="100%" viewBox="0 0 368 136" version="1.1" xmlns="http://www.w3.org/2000/svg" xmlns:xlink="http://www.w3.org/1999/xlink" xml:space="preserve" xmlns:serif="http://www.serif.com/" style="fill-rule:evenodd;clip-rule:evenodd;stroke-linejoin:round;stroke-miterlimit:2;">
    <g transform="matrix(1,0,0,1,-545.051,-754.738)">
        <g transform="matrix(1.04545,0,0,1.04545,-45.6342,461.127)">
            <g id="creative-for-artists--blanco-" serif:id="creative for artists (blanco)" transform="matrix(1,0,0,1,454.903,-218.768)">
                <g transform="matrix(0.996989,0,0,0.996989,-2.94728,312.286)">
                    <g transform="matrix(0.458618,0,0,0.458618,143.404,187.892)">
                        <g transform="matrix(189.613,0,0,189.613,-6.06447,149.228)">
                            <path d="M0.332,0.008C0.275,0.008 0.223,-0.004 0.178,-0.028C0.132,-0.051 0.096,-0.084 0.071,-0.126C0.045,-0.168 0.032,-0.216 0.032,-0.269C0.032,-0.322 0.045,-0.37 0.071,-0.412C0.096,-0.454 0.132,-0.487 0.178,-0.511C0.223,-0.534 0.275,-0.546 0.332,-0.546C0.389,-0.546 0.438,-0.534 0.481,-0.511C0.523,-0.487 0.554,-0.453 0.573,-0.409L0.452,-0.344C0.424,-0.393 0.384,-0.418 0.331,-0.418C0.29,-0.418 0.257,-0.405 0.23,-0.378C0.203,-0.351 0.19,-0.315 0.19,-0.269C0.19,-0.223 0.203,-0.187 0.23,-0.16C0.257,-0.133 0.29,-0.12 0.331,-0.12C0.384,-0.12 0.425,-0.145 0.452,-0.194L0.573,-0.128C0.554,-0.085 0.523,-0.052 0.481,-0.028C0.438,-0.004 0.389,0.008 0.332,0.008Z" style="fill:rgb(42,42,42);fill-rule:nonzero;"/>
                        </g>
                        <g transform="matrix(189.613,0,0,189.613,94.6203,149.228)">
                            <path d="M0.221,-0.467C0.24,-0.493 0.265,-0.513 0.297,-0.526C0.328,-0.539 0.365,-0.546 0.406,-0.546L0.406,-0.402C0.389,-0.403 0.377,-0.404 0.371,-0.404C0.326,-0.404 0.291,-0.392 0.266,-0.367C0.241,-0.341 0.228,-0.304 0.228,-0.254L0.228,0L0.072,0L0.072,-0.538L0.221,-0.538L0.221,-0.467Z" style="fill:rgb(42,42,42);fill-rule:nonzero;"/>
                        </g>
                        <g transform="matrix(189.613,0,0,189.613,163.26,149.228)">
                            <path d="M0.599,-0.267C0.599,-0.265 0.598,-0.251 0.596,-0.225L0.189,-0.225C0.196,-0.192 0.214,-0.165 0.241,-0.146C0.268,-0.127 0.302,-0.117 0.343,-0.117C0.371,-0.117 0.396,-0.121 0.418,-0.13C0.439,-0.138 0.459,-0.151 0.478,-0.169L0.561,-0.079C0.51,-0.021 0.436,0.008 0.339,0.008C0.278,0.008 0.225,-0.004 0.178,-0.028C0.131,-0.051 0.095,-0.084 0.07,-0.126C0.045,-0.168 0.032,-0.216 0.032,-0.269C0.032,-0.322 0.045,-0.369 0.07,-0.412C0.094,-0.454 0.129,-0.487 0.173,-0.511C0.216,-0.534 0.265,-0.546 0.319,-0.546C0.372,-0.546 0.419,-0.535 0.462,-0.512C0.505,-0.489 0.538,-0.457 0.563,-0.415C0.587,-0.372 0.599,-0.323 0.599,-0.267ZM0.32,-0.428C0.285,-0.428 0.255,-0.418 0.231,-0.398C0.207,-0.378 0.192,-0.351 0.187,-0.316L0.452,-0.316C0.447,-0.35 0.432,-0.377 0.408,-0.398C0.384,-0.418 0.355,-0.428 0.32,-0.428Z" style="fill:rgb(42,42,42);fill-rule:nonzero;"/>
                        </g>
                        <g transform="matrix(189.613,0,0,189.613,268.685,149.228)">
                            <path d="M0.289,-0.546C0.372,-0.546 0.436,-0.526 0.481,-0.487C0.526,-0.447 0.548,-0.387 0.548,-0.307L0.548,0L0.402,0L0.402,-0.067C0.373,-0.017 0.318,0.008 0.238,0.008C0.197,0.008 0.161,0.001 0.131,-0.013C0.1,-0.027 0.077,-0.046 0.061,-0.071C0.045,-0.096 0.037,-0.124 0.037,-0.155C0.037,-0.205 0.056,-0.244 0.094,-0.273C0.131,-0.302 0.189,-0.316 0.268,-0.316L0.392,-0.316C0.392,-0.35 0.382,-0.376 0.361,-0.395C0.34,-0.413 0.309,-0.422 0.268,-0.422C0.239,-0.422 0.211,-0.418 0.184,-0.409C0.156,-0.4 0.132,-0.387 0.113,-0.372L0.057,-0.481C0.086,-0.502 0.122,-0.518 0.163,-0.529C0.204,-0.54 0.246,-0.546 0.289,-0.546ZM0.277,-0.097C0.304,-0.097 0.327,-0.103 0.348,-0.116C0.369,-0.128 0.383,-0.146 0.392,-0.17L0.392,-0.225L0.285,-0.225C0.221,-0.225 0.189,-0.204 0.189,-0.162C0.189,-0.142 0.197,-0.126 0.213,-0.115C0.228,-0.103 0.25,-0.097 0.277,-0.097Z" style="fill:rgb(42,42,42);fill-rule:nonzero;"/>
                        </g>
                        <g transform="matrix(189.613,0,0,189.613,374.3,149.228)">
                            <path d="M0.419,-0.026C0.404,-0.015 0.385,-0.006 0.363,-0.001C0.34,0.005 0.317,0.008 0.292,0.008C0.228,0.008 0.179,-0.008 0.144,-0.041C0.109,-0.074 0.091,-0.122 0.091,-0.185L0.091,-0.406L0.008,-0.406L0.008,-0.526L0.091,-0.526L0.091,-0.657L0.247,-0.657L0.247,-0.526L0.381,-0.526L0.381,-0.406L0.247,-0.406L0.247,-0.187C0.247,-0.164 0.253,-0.147 0.265,-0.135C0.276,-0.122 0.293,-0.116 0.314,-0.116C0.339,-0.116 0.36,-0.123 0.377,-0.136L0.419,-0.026Z" style="fill:rgb(42,42,42);fill-rule:nonzero;"/>
                        </g>
                        <g transform="matrix(189.613,0,0,189.613,445.405,149.228)">
                            <path d="M0.072,-0.538L0.228,-0.538L0.228,0L0.072,0L0.072,-0.538ZM0.15,-0.613C0.121,-0.613 0.098,-0.621 0.08,-0.638C0.062,-0.655 0.053,-0.675 0.053,-0.7C0.053,-0.725 0.062,-0.745 0.08,-0.762C0.098,-0.779 0.121,-0.787 0.15,-0.787C0.179,-0.787 0.202,-0.779 0.22,-0.763C0.238,-0.747 0.247,-0.727 0.247,-0.703C0.247,-0.677 0.238,-0.656 0.22,-0.639C0.202,-0.622 0.179,-0.613 0.15,-0.613Z" style="fill:rgb(42,42,42);fill-rule:nonzero;"/>
                        </g>
                        <g transform="matrix(189.613,0,0,189.613,491.102,149.228)">
                            <path d="M0.606,-0.538L0.379,0L0.218,0L-0.008,-0.538L0.153,-0.538L0.302,-0.172L0.456,-0.538L0.606,-0.538Z" style="fill:rgb(42,42,42);fill-rule:nonzero;"/>
                        </g>
                        <g transform="matrix(189.613,0,0,189.613,590.27,149.228)">
                            <path d="M0.599,-0.267C0.599,-0.265 0.598,-0.251 0.596,-0.225L0.189,-0.225C0.196,-0.192 0.214,-0.165 0.241,-0.146C0.268,-0.127 0.302,-0.117 0.343,-0.117C0.371,-0.117 0.396,-0.121 0.418,-0.13C0.439,-0.138 0.459,-0.151 0.478,-0.169L0.561,-0.079C0.51,-0.021 0.436,0.008 0.339,0.008C0.278,0.008 0.225,-0.004 0.178,-0.028C0.131,-0.051 0.095,-0.084 0.07,-0.126C0.045,-0.168 0.032,-0.216 0.032,-0.269C0.032,-0.322 0.045,-0.369 0.07,-0.412C0.094,-0.454 0.129,-0.487 0.173,-0.511C0.216,-0.534 0.265,-0.546 0.319,-0.546C0.372,-0.546 0.419,-0.535 0.462,-0.512C0.505,-0.489 0.538,-0.457 0.563,-0.415C0.587,-0.372 0.599,-0.323 0.599,-0.267ZM0.32,-0.428C0.285,-0.428 0.255,-0.418 0.231,-0.398C0.207,-0.378 0.192,-0.351 0.187,-0.316L0.452,-0.316C0.447,-0.35 0.432,-0.377 0.408,-0.398C0.384,-0.418 0.355,-0.428 0.32,-0.428Z" style="fill:rgb(42,42,42);fill-rule:nonzero;"/>
                        </g>
                    </g>
                    <g transform="matrix(0.824182,0,0,0.824182,-394.391,172.765)">
                        <path d="M670.848,117.589C668.653,117.589 666.995,118.185 665.873,119.378C664.752,120.571 664.191,122.337 664.191,124.676L664.191,129.114L675.788,129.114L675.788,133.409L664.334,133.409L664.334,166.767L659.251,166.767L659.251,133.409L652.522,133.409L652.522,129.114L659.251,129.114L659.251,124.461C659.251,121.025 660.242,118.305 662.222,116.3C664.203,114.296 667.006,113.294 670.633,113.294C672.065,113.294 673.449,113.496 674.785,113.902C676.122,114.308 677.243,114.892 678.15,115.656L676.432,119.45C674.952,118.209 673.091,117.589 670.848,117.589Z" style="fill:rgb(42,42,42);fill-rule:nonzero;"/>
                        <path d="M697.406,167.125C693.779,167.125 690.51,166.302 687.599,164.656C684.688,163.009 682.397,160.73 680.727,157.819C679.057,154.908 678.221,151.615 678.221,147.941C678.221,144.266 679.057,140.973 680.727,138.062C682.397,135.151 684.688,132.884 687.599,131.261C690.51,129.639 693.779,128.828 697.406,128.828C701.033,128.828 704.302,129.639 707.213,131.261C710.124,132.884 712.403,135.151 714.05,138.062C715.696,140.973 716.519,144.266 716.519,147.941C716.519,151.615 715.696,154.908 714.05,157.819C712.403,160.73 710.124,163.009 707.213,164.656C704.302,166.302 701.033,167.125 697.406,167.125ZM697.406,162.616C700.079,162.616 702.477,162.007 704.6,160.79C706.724,159.573 708.382,157.843 709.576,155.6C710.769,153.357 711.365,150.804 711.365,147.941C711.365,145.077 710.769,142.524 709.576,140.281C708.382,138.038 706.724,136.308 704.6,135.091C702.477,133.874 700.079,133.266 697.406,133.266C694.734,133.266 692.336,133.874 690.212,135.091C688.088,136.308 686.418,138.038 685.201,140.281C683.984,142.524 683.376,145.077 683.376,147.941C683.376,150.804 683.984,153.357 685.201,155.6C686.418,157.843 688.088,159.573 690.212,160.79C692.336,162.007 694.734,162.616 697.406,162.616Z" style="fill:rgb(42,42,42);fill-rule:nonzero;"/>
                        <path d="M731.767,136.487C732.96,133.958 734.738,132.049 737.1,130.76C739.462,129.472 742.385,128.828 745.869,128.828L745.869,133.767L744.652,133.695C740.691,133.695 737.589,134.912 735.346,137.346C733.103,139.78 731.982,143.192 731.982,147.583L731.982,166.767L726.899,166.767L726.899,129.114L731.767,129.114L731.767,136.487Z" style="fill:rgb(42,42,42);fill-rule:nonzero;"/>
                        <path d="M787.531,128.828C792.447,128.828 796.217,130.056 798.842,132.514C801.466,134.972 802.779,138.611 802.779,143.431L802.779,166.767L797.911,166.767L797.911,160.897C796.766,162.854 795.084,164.381 792.864,165.479C790.645,166.577 788.009,167.125 784.954,167.125C780.755,167.125 777.414,166.123 774.932,164.119C772.451,162.114 771.21,159.466 771.21,156.173C771.21,152.975 772.367,150.398 774.682,148.442C776.996,146.485 780.683,145.507 785.742,145.507L797.696,145.507L797.696,143.216C797.696,139.971 796.79,137.501 794.976,135.807C793.163,134.113 790.514,133.266 787.03,133.266C784.644,133.266 782.353,133.659 780.158,134.447C777.963,135.234 776.078,136.32 774.503,137.704L772.212,133.91C774.121,132.287 776.412,131.035 779.084,130.152C781.757,129.269 784.572,128.828 787.531,128.828ZM785.742,163.117C788.605,163.117 791.063,162.46 793.115,161.148C795.167,159.836 796.694,157.939 797.696,155.457L797.696,149.301L785.885,149.301C779.442,149.301 776.221,151.544 776.221,156.03C776.221,158.225 777.056,159.955 778.726,161.22C780.397,162.484 782.735,163.117 785.742,163.117Z" style="fill:rgb(42,42,42);fill-rule:nonzero;"/>
                        <path d="M821.463,136.487C822.656,133.958 824.433,132.049 826.796,130.76C829.158,129.472 832.081,128.828 835.565,128.828L835.565,133.767L834.348,133.695C830.387,133.695 827.285,134.912 825.042,137.346C822.799,139.78 821.677,143.192 821.677,147.583L821.677,166.767L816.595,166.767L816.595,129.114L821.463,129.114L821.463,136.487Z" style="fill:rgb(42,42,42);fill-rule:nonzero;"/>
                        <path d="M866.203,164.477C865.249,165.336 864.067,165.992 862.66,166.445C861.252,166.899 859.784,167.125 858.257,167.125C854.726,167.125 852.005,166.171 850.096,164.262C848.187,162.353 847.233,159.657 847.233,156.173L847.233,133.409L840.504,133.409L840.504,129.114L847.233,129.114L847.233,120.882L852.316,120.882L852.316,129.114L863.769,129.114L863.769,133.409L852.316,133.409L852.316,155.887C852.316,158.13 852.876,159.836 853.998,161.005C855.119,162.174 856.73,162.759 858.83,162.759C859.88,162.759 860.894,162.592 861.872,162.258C862.85,161.924 863.698,161.446 864.413,160.826L866.203,164.477Z" style="fill:rgb(42,42,42);fill-rule:nonzero;"/>
                        <path d="M875.437,129.114L880.52,129.114L880.52,166.767L875.437,166.767L875.437,129.114ZM878.014,120.882C876.965,120.882 876.082,120.524 875.366,119.808C874.65,119.092 874.292,118.233 874.292,117.231C874.292,116.276 874.65,115.441 875.366,114.725C876.082,114.009 876.965,113.652 878.014,113.652C879.064,113.652 879.947,113.998 880.663,114.69C881.379,115.382 881.737,116.205 881.737,117.159C881.737,118.209 881.379,119.092 880.663,119.808C879.947,120.524 879.064,120.882 878.014,120.882Z" style="fill:rgb(42,42,42);fill-rule:nonzero;"/>
                        <path d="M904.787,167.125C901.733,167.125 898.81,166.684 896.018,165.801C893.226,164.918 891.043,163.809 889.468,162.472L891.759,158.464C893.334,159.704 895.314,160.719 897.7,161.506C900.086,162.293 902.568,162.687 905.145,162.687C908.581,162.687 911.122,162.15 912.769,161.076C914.415,160.003 915.239,158.487 915.239,156.531C915.239,155.147 914.785,154.061 913.878,153.274C912.972,152.486 911.826,151.89 910.442,151.484C909.058,151.078 907.221,150.685 904.93,150.303C901.876,149.73 899.418,149.146 897.557,148.549C895.696,147.953 894.109,146.938 892.797,145.507C891.484,144.075 890.828,142.095 890.828,139.565C890.828,136.416 892.141,133.838 894.765,131.834C897.39,129.83 901.041,128.828 905.718,128.828C908.152,128.828 910.586,129.15 913.019,129.794C915.453,130.438 917.458,131.285 919.033,132.335L916.813,136.416C913.711,134.268 910.013,133.194 905.718,133.194C902.473,133.194 900.027,133.767 898.38,134.912C896.734,136.058 895.911,137.561 895.911,139.422C895.911,140.854 896.376,141.999 897.307,142.858C898.237,143.717 899.394,144.349 900.778,144.755C902.162,145.161 904.071,145.578 906.505,146.008C909.512,146.581 911.922,147.153 913.735,147.726C915.549,148.299 917.1,149.277 918.388,150.661C919.677,152.045 920.321,153.954 920.321,156.388C920.321,159.681 918.949,162.293 916.205,164.226C913.461,166.159 909.655,167.125 904.787,167.125Z" style="fill:rgb(42,42,42);fill-rule:nonzero;"/>
                        <path d="M949.528,164.477C948.573,165.336 947.392,165.992 945.984,166.445C944.576,166.899 943.109,167.125 941.582,167.125C938.05,167.125 935.33,166.171 933.421,164.262C931.512,162.353 930.558,159.657 930.558,156.173L930.558,133.409L923.829,133.409L923.829,129.114L930.558,129.114L930.558,120.882L935.64,120.882L935.64,129.114L947.094,129.114L947.094,133.409L935.64,133.409L935.64,155.887C935.64,158.13 936.201,159.836 937.322,161.005C938.444,162.174 940.055,162.759 942.154,162.759C943.204,162.759 944.218,162.592 945.197,162.258C946.175,161.924 947.022,161.446 947.738,160.826L949.528,164.477Z" style="fill:rgb(42,42,42);fill-rule:nonzero;"/>
                        <path d="M968.856,167.125C965.801,167.125 962.878,166.684 960.086,165.801C957.295,164.918 955.111,163.809 953.536,162.472L955.827,158.464C957.402,159.704 959.382,160.719 961.769,161.506C964.155,162.293 966.636,162.687 969.213,162.687C972.65,162.687 975.191,162.15 976.837,161.076C978.484,160.003 979.307,158.487 979.307,156.531C979.307,155.147 978.854,154.061 977.947,153.274C977.04,152.486 975.895,151.89 974.511,151.484C973.127,151.078 971.289,150.685 968.999,150.303C965.944,149.73 963.487,149.146 961.625,148.549C959.764,147.953 958.177,146.938 956.865,145.507C955.553,144.075 954.896,142.095 954.896,139.565C954.896,136.416 956.209,133.838 958.834,131.834C961.458,129.83 965.109,128.828 969.786,128.828C972.22,128.828 974.654,129.15 977.088,129.794C979.522,130.438 981.526,131.285 983.101,132.335L980.882,136.416C977.78,134.268 974.081,133.194 969.786,133.194C966.541,133.194 964.095,133.767 962.449,134.912C960.802,136.058 959.979,137.561 959.979,139.422C959.979,140.854 960.444,141.999 961.375,142.858C962.306,143.717 963.463,144.349 964.847,144.755C966.231,145.161 968.14,145.578 970.574,146.008C973.58,146.581 975.99,147.153 977.804,147.726C979.617,148.299 981.168,149.277 982.457,150.661C983.745,152.045 984.389,153.954 984.389,156.388C984.389,159.681 983.017,162.293 980.273,164.226C977.529,166.159 973.723,167.125 968.856,167.125Z" style="fill:rgb(42,42,42);fill-rule:nonzero;"/>
                    </g>
                </g>
                <g transform="matrix(2.70488e-17,-0.441741,0.0363965,2.22864e-18,105.709,903.009)">
                    <path d="M896.089,135.145C896.089,127.132 895.553,120.627 894.893,120.627L620.838,120.627C620.178,120.627 619.642,127.132 619.642,135.145L619.642,382.557C619.642,390.569 620.178,397.074 620.838,397.074L894.893,397.074C895.553,397.074 896.089,390.569 896.089,382.557L896.089,135.145Z" style="fill:rgb(0,210,147);"/>
                </g>
            </g>
        </g>
    </g>
</svg>
