<?xml version="1.0" encoding="UTF-8" standalone="no"?>
<!DOCTYPE svg PUBLIC "-//W3C//DTD SVG 1.1//EN" "http://www.w3.org/Graphics/SVG/1.1/DTD/svg11.dtd">
<svg width="100%" height="100%" viewBox="0 0 397 136" version="1.1" xmlns="http://www.w3.org/2000/svg" xmlns:xlink="http://www.w3.org/1999/xlink" xml:space="preserve" xmlns:serif="http://www.serif.com/" style="fill-rule:evenodd;clip-rule:evenodd;stroke-linejoin:round;stroke-miterlimit:2;">
    <g transform="matrix(1,0,0,1,-545.051,-209.193)">
        <g transform="matrix(1.04545,0,0,1.04545,-45.6342,-84.4172)">
            <g id="creative-for-artists--blanco-" serif:id="creative for artists (blanco)" transform="matrix(1,0,0,1,454.903,-218.768)">
                <g transform="matrix(0.996989,0,0,0.996989,-2.94728,312.286)">
                    <g transform="matrix(0.458618,0,0,0.458618,143.404,187.892)">
                        <g transform="matrix(189.613,0,0,189.613,-6.06447,149.228)">
                            <path d="M0.332,0.008C0.275,0.008 0.223,-0.004 0.178,-0.028C0.132,-0.051 0.096,-0.084 0.071,-0.126C0.045,-0.168 0.032,-0.216 0.032,-0.269C0.032,-0.322 0.045,-0.37 0.071,-0.412C0.096,-0.454 0.132,-0.487 0.178,-0.511C0.223,-0.534 0.275,-0.546 0.332,-0.546C0.389,-0.546 0.438,-0.534 0.481,-0.511C0.523,-0.487 0.554,-0.453 0.573,-0.409L0.452,-0.344C0.424,-0.393 0.384,-0.418 0.331,-0.418C0.29,-0.418 0.257,-0.405 0.23,-0.378C0.203,-0.351 0.19,-0.315 0.19,-0.269C0.19,-0.223 0.203,-0.187 0.23,-0.16C0.257,-0.133 0.29,-0.12 0.331,-0.12C0.384,-0.12 0.425,-0.145 0.452,-0.194L0.573,-0.128C0.554,-0.085 0.523,-0.052 0.481,-0.028C0.438,-0.004 0.389,0.008 0.332,0.008Z" style="fill:rgb(42,42,42);fill-rule:nonzero;"/>
                        </g>
                        <g transform="matrix(189.613,0,0,189.613,94.6203,149.228)">
                            <path d="M0.221,-0.467C0.24,-0.493 0.265,-0.513 0.297,-0.526C0.328,-0.539 0.365,-0.546 0.406,-0.546L0.406,-0.402C0.389,-0.403 0.377,-0.404 0.371,-0.404C0.326,-0.404 0.291,-0.392 0.266,-0.367C0.241,-0.341 0.228,-0.304 0.228,-0.254L0.228,0L0.072,0L0.072,-0.538L0.221,-0.538L0.221,-0.467Z" style="fill:rgb(42,42,42);fill-rule:nonzero;"/>
                        </g>
                        <g transform="matrix(189.613,0,0,189.613,163.26,149.228)">
                            <path d="M0.599,-0.267C0.599,-0.265 0.598,-0.251 0.596,-0.225L0.189,-0.225C0.196,-0.192 0.214,-0.165 0.241,-0.146C0.268,-0.127 0.302,-0.117 0.343,-0.117C0.371,-0.117 0.396,-0.121 0.418,-0.13C0.439,-0.138 0.459,-0.151 0.478,-0.169L0.561,-0.079C0.51,-0.021 0.436,0.008 0.339,0.008C0.278,0.008 0.225,-0.004 0.178,-0.028C0.131,-0.051 0.095,-0.084 0.07,-0.126C0.045,-0.168 0.032,-0.216 0.032,-0.269C0.032,-0.322 0.045,-0.369 0.07,-0.412C0.094,-0.454 0.129,-0.487 0.173,-0.511C0.216,-0.534 0.265,-0.546 0.319,-0.546C0.372,-0.546 0.419,-0.535 0.462,-0.512C0.505,-0.489 0.538,-0.457 0.563,-0.415C0.587,-0.372 0.599,-0.323 0.599,-0.267ZM0.32,-0.428C0.285,-0.428 0.255,-0.418 0.231,-0.398C0.207,-0.378 0.192,-0.351 0.187,-0.316L0.452,-0.316C0.447,-0.35 0.432,-0.377 0.408,-0.398C0.384,-0.418 0.355,-0.428 0.32,-0.428Z" style="fill:rgb(42,42,42);fill-rule:nonzero;"/>
                        </g>
                        <g transform="matrix(189.613,0,0,189.613,268.685,149.228)">
                            <path d="M0.289,-0.546C0.372,-0.546 0.436,-0.526 0.481,-0.487C0.526,-0.447 0.548,-0.387 0.548,-0.307L0.548,0L0.402,0L0.402,-0.067C0.373,-0.017 0.318,0.008 0.238,0.008C0.197,0.008 0.161,0.001 0.131,-0.013C0.1,-0.027 0.077,-0.046 0.061,-0.071C0.045,-0.096 0.037,-0.124 0.037,-0.155C0.037,-0.205 0.056,-0.244 0.094,-0.273C0.131,-0.302 0.189,-0.316 0.268,-0.316L0.392,-0.316C0.392,-0.35 0.382,-0.376 0.361,-0.395C0.34,-0.413 0.309,-0.422 0.268,-0.422C0.239,-0.422 0.211,-0.418 0.184,-0.409C0.156,-0.4 0.132,-0.387 0.113,-0.372L0.057,-0.481C0.086,-0.502 0.122,-0.518 0.163,-0.529C0.204,-0.54 0.246,-0.546 0.289,-0.546ZM0.277,-0.097C0.304,-0.097 0.327,-0.103 0.348,-0.116C0.369,-0.128 0.383,-0.146 0.392,-0.17L0.392,-0.225L0.285,-0.225C0.221,-0.225 0.189,-0.204 0.189,-0.162C0.189,-0.142 0.197,-0.126 0.213,-0.115C0.228,-0.103 0.25,-0.097 0.277,-0.097Z" style="fill:rgb(42,42,42);fill-rule:nonzero;"/>
                        </g>
                        <g transform="matrix(189.613,0,0,189.613,374.3,149.228)">
                            <path d="M0.419,-0.026C0.404,-0.015 0.385,-0.006 0.363,-0.001C0.34,0.005 0.317,0.008 0.292,0.008C0.228,0.008 0.179,-0.008 0.144,-0.041C0.109,-0.074 0.091,-0.122 0.091,-0.185L0.091,-0.406L0.008,-0.406L0.008,-0.526L0.091,-0.526L0.091,-0.657L0.247,-0.657L0.247,-0.526L0.381,-0.526L0.381,-0.406L0.247,-0.406L0.247,-0.187C0.247,-0.164 0.253,-0.147 0.265,-0.135C0.276,-0.122 0.293,-0.116 0.314,-0.116C0.339,-0.116 0.36,-0.123 0.377,-0.136L0.419,-0.026Z" style="fill:rgb(42,42,42);fill-rule:nonzero;"/>
                        </g>
                        <g transform="matrix(189.613,0,0,189.613,445.405,149.228)">
                            <path d="M0.072,-0.538L0.228,-0.538L0.228,0L0.072,0L0.072,-0.538ZM0.15,-0.613C0.121,-0.613 0.098,-0.621 0.08,-0.638C0.062,-0.655 0.053,-0.675 0.053,-0.7C0.053,-0.725 0.062,-0.745 0.08,-0.762C0.098,-0.779 0.121,-0.787 0.15,-0.787C0.179,-0.787 0.202,-0.779 0.22,-0.763C0.238,-0.747 0.247,-0.727 0.247,-0.703C0.247,-0.677 0.238,-0.656 0.22,-0.639C0.202,-0.622 0.179,-0.613 0.15,-0.613Z" style="fill:rgb(42,42,42);fill-rule:nonzero;"/>
                        </g>
                        <g transform="matrix(189.613,0,0,189.613,491.102,149.228)">
                            <path d="M0.606,-0.538L0.379,0L0.218,0L-0.008,-0.538L0.153,-0.538L0.302,-0.172L0.456,-0.538L0.606,-0.538Z" style="fill:rgb(42,42,42);fill-rule:nonzero;"/>
                        </g>
                        <g transform="matrix(189.613,0,0,189.613,590.27,149.228)">
                            <path d="M0.599,-0.267C0.599,-0.265 0.598,-0.251 0.596,-0.225L0.189,-0.225C0.196,-0.192 0.214,-0.165 0.241,-0.146C0.268,-0.127 0.302,-0.117 0.343,-0.117C0.371,-0.117 0.396,-0.121 0.418,-0.13C0.439,-0.138 0.459,-0.151 0.478,-0.169L0.561,-0.079C0.51,-0.021 0.436,0.008 0.339,0.008C0.278,0.008 0.225,-0.004 0.178,-0.028C0.131,-0.051 0.095,-0.084 0.07,-0.126C0.045,-0.168 0.032,-0.216 0.032,-0.269C0.032,-0.322 0.045,-0.369 0.07,-0.412C0.094,-0.454 0.129,-0.487 0.173,-0.511C0.216,-0.534 0.265,-0.546 0.319,-0.546C0.372,-0.546 0.419,-0.535 0.462,-0.512C0.505,-0.489 0.538,-0.457 0.563,-0.415C0.587,-0.372 0.599,-0.323 0.599,-0.267ZM0.32,-0.428C0.285,-0.428 0.255,-0.418 0.231,-0.398C0.207,-0.378 0.192,-0.351 0.187,-0.316L0.452,-0.316C0.447,-0.35 0.432,-0.377 0.408,-0.398C0.384,-0.418 0.355,-0.428 0.32,-0.428Z" style="fill:rgb(42,42,42);fill-rule:nonzero;"/>
                        </g>
                    </g>
                    <g transform="matrix(0.824182,0,0,0.824182,-394.391,172.765)">
                        <path d="M670.848,117.589C668.653,117.589 666.995,118.185 665.873,119.378C664.752,120.571 664.191,122.337 664.191,124.676L664.191,129.114L675.788,129.114L675.788,133.409L664.334,133.409L664.334,166.767L659.251,166.767L659.251,133.409L652.522,133.409L652.522,129.114L659.251,129.114L659.251,124.461C659.251,121.025 660.242,118.305 662.222,116.3C664.203,114.296 667.006,113.294 670.633,113.294C672.065,113.294 673.449,113.496 674.785,113.902C676.122,114.308 677.243,114.892 678.15,115.656L676.432,119.45C674.952,118.209 673.091,117.589 670.848,117.589Z" style="fill:rgb(42,42,42);fill-rule:nonzero;"/>
                        <path d="M697.406,167.125C693.779,167.125 690.51,166.302 687.599,164.656C684.688,163.009 682.397,160.73 680.727,157.819C679.057,154.908 678.221,151.615 678.221,147.941C678.221,144.266 679.057,140.973 680.727,138.062C682.397,135.151 684.688,132.884 687.599,131.261C690.51,129.639 693.779,128.828 697.406,128.828C701.033,128.828 704.302,129.639 707.213,131.261C710.124,132.884 712.403,135.151 714.05,138.062C715.696,140.973 716.519,144.266 716.519,147.941C716.519,151.615 715.696,154.908 714.05,157.819C712.403,160.73 710.124,163.009 707.213,164.656C704.302,166.302 701.033,167.125 697.406,167.125ZM697.406,162.616C700.079,162.616 702.477,162.007 704.6,160.79C706.724,159.573 708.382,157.843 709.576,155.6C710.769,153.357 711.365,150.804 711.365,147.941C711.365,145.077 710.769,142.524 709.576,140.281C708.382,138.038 706.724,136.308 704.6,135.091C702.477,133.874 700.079,133.266 697.406,133.266C694.734,133.266 692.336,133.874 690.212,135.091C688.088,136.308 686.418,138.038 685.201,140.281C683.984,142.524 683.376,145.077 683.376,147.941C683.376,150.804 683.984,153.357 685.201,155.6C686.418,157.843 688.088,159.573 690.212,160.79C692.336,162.007 694.734,162.616 697.406,162.616Z" style="fill:rgb(42,42,42);fill-rule:nonzero;"/>
                        <path d="M731.767,136.487C732.96,133.958 734.738,132.049 737.1,130.76C739.462,129.472 742.385,128.828 745.869,128.828L745.869,133.767L744.652,133.695C740.691,133.695 737.589,134.912 735.346,137.346C733.103,139.78 731.982,143.192 731.982,147.583L731.982,166.767L726.899,166.767L726.899,129.114L731.767,129.114L731.767,136.487Z" style="fill:rgb(42,42,42);fill-rule:nonzero;"/>
                        <path d="M793.759,128.828C797.291,128.828 800.488,129.627 803.352,131.226C806.215,132.824 808.458,135.079 810.081,137.99C811.703,140.901 812.514,144.218 812.514,147.941C812.514,151.663 811.703,154.98 810.081,157.891C808.458,160.802 806.215,163.069 803.352,164.691C800.488,166.314 797.291,167.125 793.759,167.125C790.609,167.125 787.782,166.457 785.276,165.121C782.771,163.785 780.755,161.852 779.227,159.323L779.227,166.767L774.36,166.767L774.36,113.652L779.442,113.652L779.442,136.272C781.017,133.838 783.033,131.989 785.491,130.725C787.949,129.46 790.705,128.828 793.759,128.828ZM793.401,162.616C796.026,162.616 798.412,162.007 800.56,160.79C802.707,159.573 804.39,157.843 805.606,155.6C806.823,153.357 807.432,150.804 807.432,147.941C807.432,145.077 806.823,142.524 805.606,140.281C804.39,138.038 802.707,136.308 800.56,135.091C798.412,133.874 796.026,133.266 793.401,133.266C790.729,133.266 788.331,133.874 786.207,135.091C784.083,136.308 782.413,138.038 781.196,140.281C779.979,142.524 779.371,145.077 779.371,147.941C779.371,150.804 779.979,153.357 781.196,155.6C782.413,157.843 784.083,159.573 786.207,160.79C788.331,162.007 790.729,162.616 793.401,162.616Z" style="fill:rgb(42,42,42);fill-rule:nonzero;"/>
                        <path d="M856.825,129.114L856.825,166.767L851.958,166.767L851.958,159.895C850.621,162.186 848.784,163.964 846.446,165.228C844.107,166.493 841.435,167.125 838.428,167.125C833.513,167.125 829.635,165.753 826.796,163.009C823.956,160.265 822.536,156.244 822.536,150.947L822.536,129.114L827.619,129.114L827.619,150.446C827.619,154.407 828.597,157.414 830.554,159.466C832.51,161.518 835.302,162.544 838.929,162.544C842.89,162.544 846.016,161.339 848.307,158.929C850.597,156.519 851.743,153.166 851.743,148.871L851.743,129.114L856.825,129.114Z" style="fill:rgb(42,42,42);fill-rule:nonzero;"/>
                        <path d="M881.164,167.125C878.11,167.125 875.187,166.684 872.395,165.801C869.603,164.918 867.42,163.809 865.845,162.472L868.136,158.464C869.711,159.704 871.691,160.719 874.077,161.506C876.463,162.293 878.945,162.687 881.522,162.687C884.958,162.687 887.499,162.15 889.146,161.076C890.792,160.003 891.616,158.487 891.616,156.531C891.616,155.147 891.162,154.061 890.255,153.274C889.349,152.486 888.203,151.89 886.819,151.484C885.435,151.078 883.598,150.685 881.307,150.303C878.253,149.73 875.795,149.146 873.934,148.549C872.073,147.953 870.486,146.938 869.174,145.507C867.861,144.075 867.205,142.095 867.205,139.565C867.205,136.416 868.518,133.838 871.142,131.834C873.767,129.83 877.418,128.828 882.095,128.828C884.529,128.828 886.963,129.15 889.396,129.794C891.83,130.438 893.835,131.285 895.41,132.335L893.19,136.416C890.088,134.268 886.39,133.194 882.095,133.194C878.85,133.194 876.404,133.767 874.757,134.912C873.111,136.058 872.288,137.561 872.288,139.422C872.288,140.854 872.753,141.999 873.684,142.858C874.614,143.717 875.771,144.349 877.155,144.755C878.539,145.161 880.448,145.578 882.882,146.008C885.889,146.581 888.299,147.153 890.112,147.726C891.926,148.299 893.477,149.277 894.765,150.661C896.054,152.045 896.698,153.954 896.698,156.388C896.698,159.681 895.326,162.293 892.582,164.226C889.838,166.159 886.032,167.125 881.164,167.125Z" style="fill:rgb(42,42,42);fill-rule:nonzero;"/>
                        <path d="M906.076,129.114L911.158,129.114L911.158,166.767L906.076,166.767L906.076,129.114ZM908.653,120.882C907.603,120.882 906.72,120.524 906.004,119.808C905.288,119.092 904.93,118.233 904.93,117.231C904.93,116.276 905.288,115.441 906.004,114.725C906.72,114.009 907.603,113.652 908.653,113.652C909.703,113.652 910.586,113.998 911.301,114.69C912.017,115.382 912.375,116.205 912.375,117.159C912.375,118.209 912.017,119.092 911.301,119.808C910.586,120.524 909.703,120.882 908.653,120.882Z" style="fill:rgb(42,42,42);fill-rule:nonzero;"/>
                        <path d="M944.517,128.828C949.241,128.828 952.999,130.2 955.791,132.944C958.583,135.688 959.979,139.685 959.979,144.934L959.979,166.767L954.896,166.767L954.896,145.435C954.896,141.522 953.918,138.539 951.962,136.487C950.005,134.435 947.213,133.409 943.586,133.409C939.53,133.409 936.32,134.614 933.958,137.024C931.596,139.434 930.415,142.763 930.415,147.01L930.415,166.767L925.332,166.767L925.332,129.114L930.2,129.114L930.2,136.058C931.584,133.767 933.505,131.989 935.962,130.725C938.42,129.46 941.272,128.828 944.517,128.828Z" style="fill:rgb(42,42,42);fill-rule:nonzero;"/>
                        <path d="M1006.72,149.516L975.227,149.516C975.513,153.429 977.016,156.59 979.736,159.001C982.457,161.411 985.893,162.616 990.045,162.616C992.383,162.616 994.531,162.198 996.487,161.363C998.444,160.528 1000.14,159.299 1001.57,157.676L1004.43,160.969C1002.76,162.973 1000.68,164.501 998.169,165.551C995.664,166.6 992.908,167.125 989.901,167.125C986.036,167.125 982.612,166.302 979.629,164.656C976.646,163.009 974.32,160.73 972.65,157.819C970.979,154.908 970.144,151.615 970.144,147.941C970.144,144.266 970.943,140.973 972.542,138.062C974.141,135.151 976.336,132.884 979.128,131.261C981.92,129.639 985.058,128.828 988.541,128.828C992.025,128.828 995.151,129.639 997.919,131.261C1000.69,132.884 1002.86,135.139 1004.43,138.026C1006.01,140.913 1006.8,144.218 1006.8,147.941L1006.72,149.516ZM988.541,133.194C984.914,133.194 981.872,134.351 979.414,136.666C976.957,138.981 975.561,141.999 975.227,145.722L1001.93,145.722C1001.59,141.999 1000.2,138.981 997.74,136.666C995.282,134.351 992.216,133.194 988.541,133.194Z" style="fill:rgb(42,42,42);fill-rule:nonzero;"/>
                        <path d="M1027.27,167.125C1024.21,167.125 1021.29,166.684 1018.5,165.801C1015.71,164.918 1013.52,163.809 1011.95,162.472L1014.24,158.464C1015.82,159.704 1017.8,160.719 1020.18,161.506C1022.57,162.293 1025.05,162.687 1027.63,162.687C1031.06,162.687 1033.6,162.15 1035.25,161.076C1036.9,160.003 1037.72,158.487 1037.72,156.531C1037.72,155.147 1037.27,154.061 1036.36,153.274C1035.45,152.486 1034.31,151.89 1032.92,151.484C1031.54,151.078 1029.7,150.685 1027.41,150.303C1024.36,149.73 1021.9,149.146 1020.04,148.549C1018.18,147.953 1016.59,146.938 1015.28,145.507C1013.97,144.075 1013.31,142.095 1013.31,139.565C1013.31,136.416 1014.62,133.838 1017.25,131.834C1019.87,129.83 1023.52,128.828 1028.2,128.828C1030.63,128.828 1033.07,129.15 1035.5,129.794C1037.93,130.438 1039.94,131.285 1041.51,132.335L1039.3,136.416C1036.19,134.268 1032.49,133.194 1028.2,133.194C1024.95,133.194 1022.51,133.767 1020.86,134.912C1019.22,136.058 1018.39,137.561 1018.39,139.422C1018.39,140.854 1018.86,141.999 1019.79,142.858C1020.72,143.717 1021.88,144.349 1023.26,144.755C1024.64,145.161 1026.55,145.578 1028.99,146.008C1031.99,146.581 1034.4,147.153 1036.22,147.726C1038.03,148.299 1039.58,149.277 1040.87,150.661C1042.16,152.045 1042.8,153.954 1042.8,156.388C1042.8,159.681 1041.43,162.293 1038.69,164.226C1035.94,166.159 1032.14,167.125 1027.27,167.125Z" style="fill:rgb(42,42,42);fill-rule:nonzero;"/>
                        <path d="M1062.27,167.125C1059.22,167.125 1056.3,166.684 1053.5,165.801C1050.71,164.918 1048.53,163.809 1046.95,162.472L1049.25,158.464C1050.82,159.704 1052.8,160.719 1055.19,161.506C1057.57,162.293 1060.05,162.687 1062.63,162.687C1066.07,162.687 1068.61,162.15 1070.26,161.076C1071.9,160.003 1072.72,158.487 1072.72,156.531C1072.72,155.147 1072.27,154.061 1071.37,153.274C1070.46,152.486 1069.31,151.89 1067.93,151.484C1066.55,151.078 1064.71,150.685 1062.42,150.303C1059.36,149.73 1056.9,149.146 1055.04,148.549C1053.18,147.953 1051.6,146.938 1050.28,145.507C1048.97,144.075 1048.32,142.095 1048.32,139.565C1048.32,136.416 1049.63,133.838 1052.25,131.834C1054.88,129.83 1058.53,128.828 1063.2,128.828C1065.64,128.828 1068.07,129.15 1070.51,129.794C1072.94,130.438 1074.94,131.285 1076.52,132.335L1074.3,136.416C1071.2,134.268 1067.5,133.194 1063.2,133.194C1059.96,133.194 1057.51,133.767 1055.87,134.912C1054.22,136.058 1053.4,137.561 1053.4,139.422C1053.4,140.854 1053.86,141.999 1054.79,142.858C1055.72,143.717 1056.88,144.349 1058.27,144.755C1059.65,145.161 1061.56,145.578 1063.99,146.008C1067,146.581 1069.41,147.153 1071.22,147.726C1073.04,148.299 1074.59,149.277 1075.88,150.661C1077.16,152.045 1077.81,153.954 1077.81,156.388C1077.81,159.681 1076.43,162.293 1073.69,164.226C1070.95,166.159 1067.14,167.125 1062.27,167.125Z" style="fill:rgb(42,42,42);fill-rule:nonzero;"/>
                    </g>
                </g>
                <g transform="matrix(2.70488e-17,-0.441741,0.0363965,2.22864e-18,105.709,903.009)">
                    <path d="M896.089,135.145C896.089,127.132 895.553,120.627 894.893,120.627L620.838,120.627C620.178,120.627 619.642,127.132 619.642,135.145L619.642,382.557C619.642,390.569 620.178,397.074 620.838,397.074L894.893,397.074C895.553,397.074 896.089,390.569 896.089,382.557L896.089,135.145Z" style="fill:rgb(55,98,244);"/>
                </g>
            </g>
        </g>
    </g>
</svg>
