<?xml version="1.0" encoding="UTF-8" standalone="no"?>
<!DOCTYPE svg PUBLIC "-//W3C//DTD SVG 1.1//EN" "http://www.w3.org/Graphics/SVG/1.1/DTD/svg11.dtd">
<svg width="100%" height="100%" viewBox="0 0 727 70" version="1.1" xmlns="http://www.w3.org/2000/svg" xmlns:xlink="http://www.w3.org/1999/xlink" xml:space="preserve" xmlns:serif="http://www.serif.com/" style="fill-rule:evenodd;clip-rule:evenodd;stroke-linejoin:round;stroke-miterlimit:2;">
    <g transform="matrix(1,0,0,1,-148.698,-245.68)">
        <g transform="matrix(1,0,0,1,-6.38028,57.7876)">
            <g transform="matrix(0.458618,0,0,0.458618,155.077,187.892)">
                <g transform="matrix(189.613,0,0,189.613,-6.06447,149.228)">
                    <path d="M0.332,0.008C0.275,0.008 0.223,-0.004 0.178,-0.028C0.132,-0.051 0.096,-0.084 0.071,-0.126C0.045,-0.168 0.032,-0.216 0.032,-0.269C0.032,-0.322 0.045,-0.37 0.071,-0.412C0.096,-0.454 0.132,-0.487 0.178,-0.511C0.223,-0.534 0.275,-0.546 0.332,-0.546C0.389,-0.546 0.438,-0.534 0.481,-0.511C0.523,-0.487 0.554,-0.453 0.573,-0.409L0.452,-0.344C0.424,-0.393 0.384,-0.418 0.331,-0.418C0.29,-0.418 0.257,-0.405 0.23,-0.378C0.203,-0.351 0.19,-0.315 0.19,-0.269C0.19,-0.223 0.203,-0.187 0.23,-0.16C0.257,-0.133 0.29,-0.12 0.331,-0.12C0.384,-0.12 0.425,-0.145 0.452,-0.194L0.573,-0.128C0.554,-0.085 0.523,-0.052 0.481,-0.028C0.438,-0.004 0.389,0.008 0.332,0.008Z" style="fill:white;fill-rule:nonzero;"/>
                </g>
                <g transform="matrix(189.613,0,0,189.613,94.6203,149.228)">
                    <path d="M0.221,-0.467C0.24,-0.493 0.265,-0.513 0.297,-0.526C0.328,-0.539 0.365,-0.546 0.406,-0.546L0.406,-0.402C0.389,-0.403 0.377,-0.404 0.371,-0.404C0.326,-0.404 0.291,-0.392 0.266,-0.367C0.241,-0.341 0.228,-0.304 0.228,-0.254L0.228,0L0.072,0L0.072,-0.538L0.221,-0.538L0.221,-0.467Z" style="fill:white;fill-rule:nonzero;"/>
                </g>
                <g transform="matrix(189.613,0,0,189.613,163.26,149.228)">
                    <path d="M0.599,-0.267C0.599,-0.265 0.598,-0.251 0.596,-0.225L0.189,-0.225C0.196,-0.192 0.214,-0.165 0.241,-0.146C0.268,-0.127 0.302,-0.117 0.343,-0.117C0.371,-0.117 0.396,-0.121 0.418,-0.13C0.439,-0.138 0.459,-0.151 0.478,-0.169L0.561,-0.079C0.51,-0.021 0.436,0.008 0.339,0.008C0.278,0.008 0.225,-0.004 0.178,-0.028C0.131,-0.051 0.095,-0.084 0.07,-0.126C0.045,-0.168 0.032,-0.216 0.032,-0.269C0.032,-0.322 0.045,-0.369 0.07,-0.412C0.094,-0.454 0.129,-0.487 0.173,-0.511C0.216,-0.534 0.265,-0.546 0.319,-0.546C0.372,-0.546 0.419,-0.535 0.462,-0.512C0.505,-0.489 0.538,-0.457 0.563,-0.415C0.587,-0.372 0.599,-0.323 0.599,-0.267ZM0.32,-0.428C0.285,-0.428 0.255,-0.418 0.231,-0.398C0.207,-0.378 0.192,-0.351 0.187,-0.316L0.452,-0.316C0.447,-0.35 0.432,-0.377 0.408,-0.398C0.384,-0.418 0.355,-0.428 0.32,-0.428Z" style="fill:white;fill-rule:nonzero;"/>
                </g>
                <g transform="matrix(189.613,0,0,189.613,268.685,149.228)">
                    <path d="M0.289,-0.546C0.372,-0.546 0.436,-0.526 0.481,-0.487C0.526,-0.447 0.548,-0.387 0.548,-0.307L0.548,0L0.402,0L0.402,-0.067C0.373,-0.017 0.318,0.008 0.238,0.008C0.197,0.008 0.161,0.001 0.131,-0.013C0.1,-0.027 0.077,-0.046 0.061,-0.071C0.045,-0.096 0.037,-0.124 0.037,-0.155C0.037,-0.205 0.056,-0.244 0.094,-0.273C0.131,-0.302 0.189,-0.316 0.268,-0.316L0.392,-0.316C0.392,-0.35 0.382,-0.376 0.361,-0.395C0.34,-0.413 0.309,-0.422 0.268,-0.422C0.239,-0.422 0.211,-0.418 0.184,-0.409C0.156,-0.4 0.132,-0.387 0.113,-0.372L0.057,-0.481C0.086,-0.502 0.122,-0.518 0.163,-0.529C0.204,-0.54 0.246,-0.546 0.289,-0.546ZM0.277,-0.097C0.304,-0.097 0.327,-0.103 0.348,-0.116C0.369,-0.128 0.383,-0.146 0.392,-0.17L0.392,-0.225L0.285,-0.225C0.221,-0.225 0.189,-0.204 0.189,-0.162C0.189,-0.142 0.197,-0.126 0.213,-0.115C0.228,-0.103 0.25,-0.097 0.277,-0.097Z" style="fill:white;fill-rule:nonzero;"/>
                </g>
                <g transform="matrix(189.613,0,0,189.613,374.3,149.228)">
                    <path d="M0.419,-0.026C0.404,-0.015 0.385,-0.006 0.363,-0.001C0.34,0.005 0.317,0.008 0.292,0.008C0.228,0.008 0.179,-0.008 0.144,-0.041C0.109,-0.074 0.091,-0.122 0.091,-0.185L0.091,-0.406L0.008,-0.406L0.008,-0.526L0.091,-0.526L0.091,-0.657L0.247,-0.657L0.247,-0.526L0.381,-0.526L0.381,-0.406L0.247,-0.406L0.247,-0.187C0.247,-0.164 0.253,-0.147 0.265,-0.135C0.276,-0.122 0.293,-0.116 0.314,-0.116C0.339,-0.116 0.36,-0.123 0.377,-0.136L0.419,-0.026Z" style="fill:white;fill-rule:nonzero;"/>
                </g>
                <g transform="matrix(189.613,0,0,189.613,445.405,149.228)">
                    <path d="M0.072,-0.538L0.228,-0.538L0.228,0L0.072,0L0.072,-0.538ZM0.15,-0.613C0.121,-0.613 0.098,-0.621 0.08,-0.638C0.062,-0.655 0.053,-0.675 0.053,-0.7C0.053,-0.725 0.062,-0.745 0.08,-0.762C0.098,-0.779 0.121,-0.787 0.15,-0.787C0.179,-0.787 0.202,-0.779 0.22,-0.763C0.238,-0.747 0.247,-0.727 0.247,-0.703C0.247,-0.677 0.238,-0.656 0.22,-0.639C0.202,-0.622 0.179,-0.613 0.15,-0.613Z" style="fill:white;fill-rule:nonzero;"/>
                </g>
                <g transform="matrix(189.613,0,0,189.613,491.102,149.228)">
                    <path d="M0.606,-0.538L0.379,0L0.218,0L-0.008,-0.538L0.153,-0.538L0.302,-0.172L0.456,-0.538L0.606,-0.538Z" style="fill:white;fill-rule:nonzero;"/>
                </g>
                <g transform="matrix(189.613,0,0,189.613,590.27,149.228)">
                    <path d="M0.599,-0.267C0.599,-0.265 0.598,-0.251 0.596,-0.225L0.189,-0.225C0.196,-0.192 0.214,-0.165 0.241,-0.146C0.268,-0.127 0.302,-0.117 0.343,-0.117C0.371,-0.117 0.396,-0.121 0.418,-0.13C0.439,-0.138 0.459,-0.151 0.478,-0.169L0.561,-0.079C0.51,-0.021 0.436,0.008 0.339,0.008C0.278,0.008 0.225,-0.004 0.178,-0.028C0.131,-0.051 0.095,-0.084 0.07,-0.126C0.045,-0.168 0.032,-0.216 0.032,-0.269C0.032,-0.322 0.045,-0.369 0.07,-0.412C0.094,-0.454 0.129,-0.487 0.173,-0.511C0.216,-0.534 0.265,-0.546 0.319,-0.546C0.372,-0.546 0.419,-0.535 0.462,-0.512C0.505,-0.489 0.538,-0.457 0.563,-0.415C0.587,-0.372 0.599,-0.323 0.599,-0.267ZM0.32,-0.428C0.285,-0.428 0.255,-0.418 0.231,-0.398C0.207,-0.378 0.192,-0.351 0.187,-0.316L0.452,-0.316C0.447,-0.35 0.432,-0.377 0.408,-0.398C0.384,-0.418 0.355,-0.428 0.32,-0.428Z" style="fill:white;fill-rule:nonzero;"/>
                </g>
            </g>
            <g transform="matrix(6.53433,0,0,6.53433,-2844.4,-1281.13)">
                <path d="M516.148,227.092C515.78,227.092 515.502,227.192 515.314,227.392C515.126,227.592 515.032,227.888 515.032,228.28L515.032,229.024L516.976,229.024L516.976,229.744L515.056,229.744L515.056,235.336L514.204,235.336L514.204,229.744L513.076,229.744L513.076,229.024L514.204,229.024L514.204,228.244C514.204,227.668 514.37,227.212 514.702,226.876C515.034,226.54 515.504,226.372 516.112,226.372C516.352,226.372 516.584,226.406 516.808,226.474C517.032,226.542 517.22,226.64 517.372,226.768L517.084,227.404C516.836,227.196 516.524,227.092 516.148,227.092Z" style="fill:white;fill-rule:nonzero;"/>
                <path d="M520.6,235.396C519.992,235.396 519.444,235.258 518.956,234.982C518.468,234.706 518.084,234.324 517.804,233.836C517.524,233.348 517.384,232.796 517.384,232.18C517.384,231.564 517.524,231.012 517.804,230.524C518.084,230.036 518.468,229.656 518.956,229.384C519.444,229.112 519.992,228.976 520.6,228.976C521.208,228.976 521.756,229.112 522.244,229.384C522.732,229.656 523.114,230.036 523.39,230.524C523.666,231.012 523.804,231.564 523.804,232.18C523.804,232.796 523.666,233.348 523.39,233.836C523.114,234.324 522.732,234.706 522.244,234.982C521.756,235.258 521.208,235.396 520.6,235.396ZM520.6,234.64C521.048,234.64 521.45,234.538 521.806,234.334C522.162,234.13 522.44,233.84 522.64,233.464C522.84,233.088 522.94,232.66 522.94,232.18C522.94,231.7 522.84,231.272 522.64,230.896C522.44,230.52 522.162,230.23 521.806,230.026C521.45,229.822 521.048,229.72 520.6,229.72C520.152,229.72 519.75,229.822 519.394,230.026C519.038,230.23 518.758,230.52 518.554,230.896C518.35,231.272 518.248,231.7 518.248,232.18C518.248,232.66 518.35,233.088 518.554,233.464C518.758,233.84 519.038,234.13 519.394,234.334C519.75,234.538 520.152,234.64 520.6,234.64Z" style="fill:white;fill-rule:nonzero;"/>
                <path d="M526.36,230.26C526.56,229.836 526.858,229.516 527.254,229.3C527.65,229.084 528.14,228.976 528.724,228.976L528.724,229.804L528.52,229.792C527.856,229.792 527.336,229.996 526.96,230.404C526.584,230.812 526.396,231.384 526.396,232.12L526.396,235.336L525.544,235.336L525.544,229.024L526.36,229.024L526.36,230.26Z" style="fill:white;fill-rule:nonzero;"/>
                <path d="M538.948,233.092L534.268,233.092L533.26,235.336L532.336,235.336L536.176,226.936L537.052,226.936L540.892,235.336L539.956,235.336L538.948,233.092ZM538.624,232.372L536.608,227.86L534.592,232.372L538.624,232.372Z" style="fill:white;fill-rule:nonzero;"/>
                <path d="M542.92,230.26C543.12,229.836 543.418,229.516 543.814,229.3C544.21,229.084 544.7,228.976 545.284,228.976L545.284,229.804L545.08,229.792C544.416,229.792 543.896,229.996 543.52,230.404C543.144,230.812 542.956,231.384 542.956,232.12L542.956,235.336L542.104,235.336L542.104,229.024L542.92,229.024L542.92,230.26Z" style="fill:white;fill-rule:nonzero;"/>
                <path d="M550.42,234.952C550.26,235.096 550.062,235.206 549.826,235.282C549.59,235.358 549.344,235.396 549.088,235.396C548.496,235.396 548.04,235.236 547.72,234.916C547.4,234.596 547.24,234.144 547.24,233.56L547.24,229.744L546.112,229.744L546.112,229.024L547.24,229.024L547.24,227.644L548.092,227.644L548.092,229.024L550.012,229.024L550.012,229.744L548.092,229.744L548.092,233.512C548.092,233.888 548.186,234.174 548.374,234.37C548.562,234.566 548.832,234.664 549.184,234.664C549.36,234.664 549.53,234.636 549.694,234.58C549.858,234.524 550,234.444 550.12,234.34L550.42,234.952Z" style="fill:white;fill-rule:nonzero;"/>
                <path d="M551.968,229.024L552.82,229.024L552.82,235.336L551.968,235.336L551.968,229.024ZM552.4,227.644C552.224,227.644 552.076,227.584 551.956,227.464C551.836,227.344 551.776,227.2 551.776,227.032C551.776,226.872 551.836,226.732 551.956,226.612C552.076,226.492 552.224,226.432 552.4,226.432C552.576,226.432 552.724,226.49 552.844,226.606C552.964,226.722 553.024,226.86 553.024,227.02C553.024,227.196 552.964,227.344 552.844,227.464C552.724,227.584 552.576,227.644 552.4,227.644Z" style="fill:white;fill-rule:nonzero;"/>
                <path d="M556.888,235.396C556.376,235.396 555.886,235.322 555.418,235.174C554.95,235.026 554.584,234.84 554.32,234.616L554.704,233.944C554.968,234.152 555.3,234.322 555.7,234.454C556.1,234.586 556.516,234.652 556.948,234.652C557.524,234.652 557.95,234.562 558.226,234.382C558.502,234.202 558.64,233.948 558.64,233.62C558.64,233.388 558.564,233.206 558.412,233.074C558.26,232.942 558.068,232.842 557.836,232.774C557.604,232.706 557.296,232.64 556.912,232.576C556.4,232.48 555.988,232.382 555.676,232.282C555.364,232.182 555.098,232.012 554.878,231.772C554.658,231.532 554.548,231.2 554.548,230.776C554.548,230.248 554.768,229.816 555.208,229.48C555.648,229.144 556.26,228.976 557.044,228.976C557.452,228.976 557.86,229.03 558.268,229.138C558.676,229.246 559.012,229.388 559.276,229.564L558.904,230.248C558.384,229.888 557.764,229.708 557.044,229.708C556.5,229.708 556.09,229.804 555.814,229.996C555.538,230.188 555.4,230.44 555.4,230.752C555.4,230.992 555.478,231.184 555.634,231.328C555.79,231.472 555.984,231.578 556.216,231.646C556.448,231.714 556.768,231.784 557.176,231.856C557.68,231.952 558.084,232.048 558.388,232.144C558.692,232.24 558.952,232.404 559.168,232.636C559.384,232.868 559.492,233.188 559.492,233.596C559.492,234.148 559.262,234.586 558.802,234.91C558.342,235.234 557.704,235.396 556.888,235.396Z" style="fill:white;fill-rule:nonzero;"/>
                <path d="M564.388,234.952C564.228,235.096 564.03,235.206 563.794,235.282C563.558,235.358 563.312,235.396 563.056,235.396C562.464,235.396 562.008,235.236 561.688,234.916C561.368,234.596 561.208,234.144 561.208,233.56L561.208,229.744L560.08,229.744L560.08,229.024L561.208,229.024L561.208,227.644L562.06,227.644L562.06,229.024L563.98,229.024L563.98,229.744L562.06,229.744L562.06,233.512C562.06,233.888 562.154,234.174 562.342,234.37C562.53,234.566 562.8,234.664 563.152,234.664C563.328,234.664 563.498,234.636 563.662,234.58C563.826,234.524 563.968,234.444 564.088,234.34L564.388,234.952Z" style="fill:white;fill-rule:nonzero;"/>
                <path d="M567.628,235.396C567.116,235.396 566.626,235.322 566.158,235.174C565.69,235.026 565.324,234.84 565.06,234.616L565.444,233.944C565.708,234.152 566.04,234.322 566.44,234.454C566.84,234.586 567.256,234.652 567.688,234.652C568.264,234.652 568.69,234.562 568.966,234.382C569.242,234.202 569.38,233.948 569.38,233.62C569.38,233.388 569.304,233.206 569.152,233.074C569,232.942 568.808,232.842 568.576,232.774C568.344,232.706 568.036,232.64 567.652,232.576C567.14,232.48 566.728,232.382 566.416,232.282C566.104,232.182 565.838,232.012 565.618,231.772C565.398,231.532 565.288,231.2 565.288,230.776C565.288,230.248 565.508,229.816 565.948,229.48C566.388,229.144 567,228.976 567.784,228.976C568.192,228.976 568.6,229.03 569.008,229.138C569.416,229.246 569.752,229.388 570.016,229.564L569.644,230.248C569.124,229.888 568.504,229.708 567.784,229.708C567.24,229.708 566.83,229.804 566.554,229.996C566.278,230.188 566.14,230.44 566.14,230.752C566.14,230.992 566.218,231.184 566.374,231.328C566.53,231.472 566.724,231.578 566.956,231.646C567.188,231.714 567.508,231.784 567.916,231.856C568.42,231.952 568.824,232.048 569.128,232.144C569.432,232.24 569.692,232.404 569.908,232.636C570.124,232.868 570.232,233.188 570.232,233.596C570.232,234.148 570.002,234.586 569.542,234.91C569.082,235.234 568.444,235.396 567.628,235.396Z" style="fill:white;fill-rule:nonzero;"/>
            </g>
        </g>
    </g>
</svg>
