<?xml version="1.0" encoding="UTF-8" standalone="no"?>
<!DOCTYPE svg PUBLIC "-//W3C//DTD SVG 1.1//EN" "http://www.w3.org/Graphics/SVG/1.1/DTD/svg11.dtd">
<svg width="100%" height="100%" viewBox="0 0 357 67" version="1.1" xmlns="http://www.w3.org/2000/svg" xmlns:xlink="http://www.w3.org/1999/xlink" xml:space="preserve" xmlns:serif="http://www.serif.com/" style="fill-rule:evenodd;clip-rule:evenodd;stroke-linejoin:round;stroke-miterlimit:2;">
    <g transform="matrix(1,0,0,1,-69.224,-208.042)">
        <g>
            <g>
                <clipPath id="_clip1">
                    <path d="M187.656,218.974C176.906,207.073 159.135,204.615 145.495,212.958C142.599,214.734 139.844,217.198 137.365,220.203L132.682,225.948L120.693,240.854L113.391,249.745C112.286,251.109 111.047,252.203 109.948,252.885C104.021,256.443 96.443,255.349 91.76,250.286C86.938,244.958 86.938,236.75 91.76,231.417C94.516,228.406 98.375,226.771 102.37,226.771C104.99,226.771 107.604,227.589 109.948,228.823C111.188,229.5 112.292,230.599 113.391,231.964L115.354,234.354L127.469,219.604C125.125,216.88 122.557,214.609 119.865,212.958C106.229,204.615 88.453,207.073 77.708,218.974C66.547,231.417 66.547,250.698 77.708,263.01C84.182,270.255 93.276,273.948 102.37,273.948C108.432,273.948 114.354,272.307 119.865,268.885C122.76,267.109 125.516,264.646 127.995,261.635L132.682,255.896L144.807,240.99L152.109,232.104C153.208,230.734 154.448,229.641 155.552,228.953C161.479,225.401 169.057,226.495 173.74,231.557C178.563,236.891 178.563,245.094 173.74,250.427C169.052,255.49 161.479,256.578 155.552,253.026C154.313,252.339 153.208,251.25 152.109,249.88L150.073,247.401L137.828,262.302C140.188,265.063 142.776,267.359 145.495,269.026C159.135,277.37 176.906,274.906 187.656,263.01C198.813,250.563 198.813,231.281 187.656,218.974Z"/>
                </clipPath>
                <g clip-path="url(#_clip1)">
                    <rect x="69.224" y="208.042" width="127" height="66" style="fill:url(#_Linear2);fill-rule:nonzero;"/>
                </g>
            </g>
            <g transform="matrix(1,0,0,1,182.178,273.924)">
                <g>
                    <path d="M49.214,-15.161C45.729,-12.333 40.87,-10.714 36.797,-10.714C24.958,-10.714 15.448,-19.812 15.448,-31.479C15.448,-43.151 24.922,-52.37 36.797,-52.37C41.073,-52.37 45.854,-50.792 49.339,-47.802C50.422,-46.932 51.583,-47.182 52.042,-47.885L56.776,-55.031C57.229,-55.693 57.188,-56.651 56.151,-57.437C50.958,-61.594 43.109,-64.042 36.797,-64.042C18.359,-64.042 3.74,-49.755 3.74,-31.479C3.74,-13.208 18.359,0.995 36.797,0.995C43.276,0.995 50.917,-1.578 55.901,-5.484C56.818,-6.146 57.188,-7.229 56.776,-7.849L52.042,-15.078C51.5,-15.865 50.255,-15.906 49.214,-15.161Z" style="fill:white;fill-rule:nonzero;"/>
                </g>
            </g>
            <g transform="matrix(1,0,0,1,242.757,273.924)">
                <g>
                    <path d="M47.141,-18.646C53.745,-22.885 57.813,-30.026 57.813,-38.625C57.813,-52.828 47.099,-63.089 32.313,-63.089L9.385,-63.089C8.307,-63.089 7.516,-62.339 7.516,-61.302L7.516,-1.786C7.516,-0.667 8.307,0.042 9.385,0.042L17.359,0.042C18.484,0.042 19.271,-0.667 19.271,-1.786L19.271,-14.578L32.313,-14.578C33.807,-14.578 35.219,-14.661 36.63,-14.87L43.151,-1.495C43.609,-0.625 44.479,0.042 45.271,0.042L54.406,0.042C55.734,0.042 56.234,-0.911 55.609,-2.12L47.141,-18.646ZM31.563,-24.38L19.271,-24.38L19.271,-52.828L31.563,-52.828C39.87,-52.828 46.099,-46.891 46.099,-38.708C46.099,-30.276 40.036,-24.38 31.563,-24.38Z" style="fill:white;fill-rule:nonzero;"/>
                </g>
            </g>
            <g transform="matrix(1,0,0,1,305.164,273.924)">
                <g>
                    <path d="M53.203,-11.13L19.271,-11.13L19.271,-23.797L45.646,-23.797C47.016,-23.797 47.844,-24.547 47.844,-25.667L47.844,-32.604C47.844,-33.849 47.016,-34.557 45.646,-34.557L19.271,-34.557L19.271,-51.958L52.953,-51.958C54.156,-51.958 54.865,-52.661 54.865,-53.87L54.865,-61.26C54.865,-62.38 54.156,-63.089 52.953,-63.089L9.385,-63.089C8.182,-63.089 7.516,-62.464 7.516,-61.219L7.516,-1.828C7.516,-0.667 8.182,0 9.385,0L53.828,0C54.99,0 55.734,-0.708 55.734,-1.828L55.734,-8.807C55.734,-10.219 54.74,-11.13 53.203,-11.13Z" style="fill:white;fill-rule:nonzero;"/>
                </g>
            </g>
            <g transform="matrix(1,0,0,1,364.539,273.924)">
                <g>
                    <path d="M61.094,-2.036L34.141,-62.255C33.682,-63.255 32.854,-63.917 31.854,-63.917L31.318,-63.917C30.401,-63.917 29.49,-63.297 29.031,-62.297L2.161,-2.078C1.578,-0.792 2.203,0.042 3.573,0.042L12.458,0.042C13.5,0.042 14.245,-0.708 14.62,-1.578L17.151,-7.682L46.141,-7.682L48.677,-1.536C49.052,-0.625 49.839,0.083 50.792,0.083L59.724,0.083C61.094,0.083 61.635,-0.828 61.094,-2.036ZM21.266,-17.734L31.646,-42.859L41.99,-17.734L21.266,-17.734Z" style="fill:white;fill-rule:nonzero;"/>
                </g>
            </g>
        </g>
    </g>
    <defs>
        <linearGradient id="_Linear2" x1="0" y1="0" x2="1" y2="0" gradientUnits="userSpaceOnUse" gradientTransform="matrix(127,0,0,127,69.2232,240.998)"><stop offset="0" style="stop-color:rgb(158,0,254);stop-opacity:1"/><stop offset="0.06" style="stop-color:rgb(156,0,254);stop-opacity:1"/><stop offset="0.44" style="stop-color:rgb(147,0,254);stop-opacity:1"/><stop offset="0.59" style="stop-color:rgb(143,0,254);stop-opacity:1"/><stop offset="0.84" style="stop-color:rgb(137,0,254);stop-opacity:1"/><stop offset="1" style="stop-color:rgb(133,0,254);stop-opacity:1"/></linearGradient>
    </defs>
</svg>
