<?xml version="1.0" encoding="UTF-8" standalone="no"?>
<!DOCTYPE svg PUBLIC "-//W3C//DTD SVG 1.1//EN" "http://www.w3.org/Graphics/SVG/1.1/DTD/svg11.dtd">
<svg width="100%" height="100%" viewBox="0 0 338 354" version="1.1" xmlns="http://www.w3.org/2000/svg" xmlns:xlink="http://www.w3.org/1999/xlink" xml:space="preserve" xmlns:serif="http://www.serif.com/" style="fill-rule:evenodd;clip-rule:evenodd;stroke-linejoin:round;stroke-miterlimit:2;">
    <g transform="matrix(1,0,0,1,-1494.15,-665.932)">
        <g transform="matrix(1,0,0,2.07621,16.9313,48.3555)">
            <g transform="matrix(0.790717,0,0,0.380847,824.922,249.089)">
                <g transform="matrix(1.06761,0,0,1.06761,350.539,78.1567)">
                    <path d="M498.123,355.518C516.21,355.518 532.824,346.475 542.499,331.333C545.653,326.495 544.392,319.976 539.554,316.821C534.717,313.877 528.198,315.139 525.043,319.976C519.154,329.23 509.059,334.698 498.123,334.698C480.667,334.698 466.156,320.186 466.156,302.73C466.156,285.064 480.667,270.763 498.123,270.763C509.69,270.763 520.206,276.862 525.884,286.747C528.829,291.584 535.138,293.266 540.185,290.532C545.023,287.588 546.915,281.279 543.971,276.231C534.507,260.037 517.051,249.942 498.123,249.942C469.1,249.942 445.545,273.497 445.545,302.73C445.545,331.753 469.1,355.518 498.123,355.518ZM610.009,249.942C580.986,249.942 557.221,273.497 557.221,302.73L557.221,345.003C557.221,350.681 561.847,355.518 567.736,355.518C573.415,355.518 578.041,350.681 578.041,345.003L578.041,302.73C578.041,285.064 592.343,270.763 610.009,270.763C615.897,270.763 620.524,265.926 620.524,260.247C620.524,254.569 615.897,249.942 610.009,249.942ZM672.681,249.732C643.448,249.732 619.893,273.287 619.893,302.52C619.893,331.543 643.448,355.308 672.681,355.308C680.463,355.308 691.189,355.518 705.069,346.265C709.906,343.11 712.64,337.642 710.117,332.384C707.593,327.337 701.073,324.392 696.236,327.547C686.141,334.067 677.519,334.487 672.681,334.487C658.591,334.487 646.813,325.444 642.397,312.825L714.954,312.825C720.843,312.825 725.469,308.198 725.469,302.52C725.469,268.239 698.129,249.732 672.681,249.732ZM791.507,250.153C761.853,250.153 738.298,273.707 738.298,303.361C738.298,333.015 761.853,355.098 791.507,355.098C803.495,355.098 813.59,352.153 822.633,344.582C822.633,350.681 828.522,355.098 832.728,355.098C838.827,355.098 843.244,350.681 843.244,344.582L843.244,303.361C843.244,273.707 821.161,250.153 791.507,250.153ZM791.507,334.487C773.841,334.487 758.909,321.027 758.909,303.361C758.909,285.695 773.841,270.763 791.507,270.763C809.173,270.763 822.633,285.695 822.633,303.361C822.633,321.027 809.173,334.487 791.507,334.487ZM672.681,270.553C685.3,270.553 698.76,277.283 703.176,292.004L642.397,292.004C646.813,279.596 658.591,270.553 672.681,270.553Z" style="fill:white;fill-rule:nonzero;"/>
                </g>
                <g transform="matrix(0.710408,0,0,0.710408,499.37,166.345)">
                    <path d="M636,471.555C636,443.308 613.036,420.548 584.992,420.548C556.745,420.548 533.985,443.308 533.985,471.555C533.985,499.599 556.745,522.563 584.992,522.563C596.575,522.563 607.143,518.498 615.881,511.996L615.881,523.172C615.475,539.836 601.859,553.452 584.992,553.452C573.002,553.452 562.435,546.746 557.151,535.975C554.713,531.098 548.616,529.066 543.739,531.504C538.659,533.943 536.627,539.836 539.065,544.917C547.803,562.596 565.28,573.57 584.992,573.57C613.036,573.57 636,550.607 636,522.563L636,471.555ZM584.992,502.444C567.922,502.444 554.103,488.422 554.103,471.555C554.103,454.485 567.922,440.666 584.992,440.666C601.859,440.666 615.881,454.485 615.881,471.555C615.881,488.422 601.859,502.444 584.992,502.444Z" style="fill:white;fill-rule:nonzero;"/>
                    <path d="M698.997,420.751C670.953,420.751 647.989,443.511 647.989,471.759L647.989,512.605C647.989,518.092 652.46,522.766 658.15,522.766C663.637,522.766 668.108,518.092 668.108,512.605L668.108,471.759C668.108,454.688 681.927,440.87 698.997,440.87C704.687,440.87 709.158,436.196 709.158,430.709C709.158,425.222 704.687,420.751 698.997,420.751Z" style="fill:white;fill-rule:nonzero;"/>
                    <path d="M759.555,522.563C787.802,522.563 810.563,499.599 810.563,471.555C810.563,443.308 787.802,420.548 759.555,420.548C731.511,420.548 708.548,443.308 708.548,471.555C708.548,499.599 731.511,522.563 759.555,522.563ZM759.555,440.666C776.626,440.666 790.444,454.485 790.444,471.555C790.444,488.422 776.626,502.444 759.555,502.444C742.485,502.444 728.666,488.422 728.666,471.555C728.666,454.485 742.485,440.666 759.555,440.666Z" style="fill:white;fill-rule:nonzero;"/>
                    <path d="M894.491,420.751C888.801,420.751 884.33,425.222 884.33,430.709L884.33,481.513C884.33,493.096 874.982,502.648 863.196,502.648C851.612,502.648 842.264,493.096 842.264,481.513L842.264,430.709C842.264,425.222 837.794,420.751 832.104,420.751C826.617,420.751 822.146,425.222 822.146,430.709L822.146,481.919C822.349,504.476 840.639,522.766 863.196,522.766C885.956,522.766 904.246,504.476 904.449,481.919L904.449,430.709C904.449,425.222 899.978,420.751 894.491,420.751Z" style="fill:white;fill-rule:nonzero;"/>
                    <path d="M967.852,523.376C996.1,523.376 1018.86,500.615 1018.86,472.368C1018.86,444.324 996.1,421.361 967.852,421.361C939.809,421.361 916.845,444.324 916.845,472.368L916.845,563.613C916.845,569.099 921.316,573.57 927.006,573.57C932.493,573.57 936.963,569.099 936.963,563.613L936.963,513.012C945.499,519.515 956.269,523.376 967.852,523.376ZM967.852,441.479C984.923,441.479 998.741,455.501 998.741,472.368C998.741,489.438 984.923,503.257 967.852,503.257C950.782,503.257 936.963,489.438 936.963,472.571L936.963,472.368C936.963,455.298 950.782,441.479 967.852,441.479Z" style="fill:white;fill-rule:nonzero;"/>
                </g>
            </g>
            <g transform="matrix(0.527205,0,0,0.253927,1461.81,258.674)">
                <path d="M570.26,196.94C527.112,148.811 455.75,138.854 400.98,172.6C389.363,179.791 378.3,189.748 368.343,201.92L349.534,225.154L301.405,285.451L272.085,321.408C267.659,326.939 262.679,331.365 258.257,334.131C234.468,348.514 204.042,344.088 185.234,323.619C165.871,302.045 165.871,268.853 185.234,247.279C196.296,235.107 211.789,228.47 227.832,228.47C238.344,228.47 248.855,231.79 258.258,236.767C263.239,239.533 267.664,243.958 272.086,249.49L279.961,259.15L328.598,199.502C319.192,188.463 308.899,179.291 298.086,172.596C243.32,138.85 171.956,148.807 128.806,196.936C83.997,247.276 83.997,325.276 128.806,375.066C154.806,404.386 191.318,419.32 227.829,419.32C252.169,419.32 275.958,412.683 298.087,398.851C309.704,391.66 320.767,381.703 330.728,369.531L349.537,346.297L398.217,286L427.537,250.043C431.963,244.512 436.939,240.086 441.365,237.32C465.154,222.937 495.58,227.363 514.388,247.832C533.751,269.406 533.751,302.598 514.388,324.172C495.579,344.641 465.154,349.067 441.365,334.684C436.384,331.919 431.959,327.493 427.537,321.961L419.365,311.938L370.213,372.219C379.686,383.391 390.072,392.66 400.979,399.41C455.745,433.156 527.109,423.199 570.259,375.07C615.068,324.73 615.068,246.73 570.259,196.94L570.26,196.94Z" style="fill:white;fill-rule:nonzero;"/>
            </g>
        </g>
    </g>
</svg>
