<?xml version="1.0" encoding="UTF-8" standalone="no"?>
<!DOCTYPE svg PUBLIC "-//W3C//DTD SVG 1.1//EN" "http://www.w3.org/Graphics/SVG/1.1/DTD/svg11.dtd">
<svg width="100%" height="100%" viewBox="0 0 627 70" version="1.1" xmlns="http://www.w3.org/2000/svg" xmlns:xlink="http://www.w3.org/1999/xlink" xml:space="preserve" xmlns:serif="http://www.serif.com/" style="fill-rule:evenodd;clip-rule:evenodd;stroke-linejoin:round;stroke-miterlimit:2;">
    <g transform="matrix(1,0,0,1,-198.539,-525.29)">
        <g id="MARKETING360" transform="matrix(1,0,0,1,23.0358,182.455)">
            <g transform="matrix(6.79828,0,0,6.79828,-1985.51,-1101.43)">
                <path d="M318.237,222.311C318.133,222.311 318.047,222.277 317.979,222.209C317.911,222.141 317.877,222.055 317.877,221.951L317.877,213.299C317.877,213.195 317.911,213.109 317.979,213.041C318.047,212.973 318.133,212.939 318.237,212.939C318.397,212.939 318.505,212.999 318.561,213.119L322.809,221.507L322.389,221.507L326.577,213.119C326.649,212.999 326.757,212.939 326.901,212.939C327.005,212.939 327.089,212.973 327.153,213.041C327.217,213.109 327.249,213.195 327.249,213.299L327.249,221.951C327.249,222.055 327.217,222.141 327.153,222.209C327.089,222.277 327.005,222.311 326.901,222.311C326.797,222.311 326.709,222.277 326.637,222.209C326.565,222.141 326.529,222.055 326.529,221.951L326.529,214.163L326.709,214.223L322.881,222.023C322.825,222.135 322.721,222.191 322.569,222.191C322.425,222.191 322.313,222.115 322.233,221.963L318.357,214.223L318.597,214.163L318.597,221.951C318.597,222.055 318.563,222.141 318.495,222.209C318.427,222.277 318.341,222.311 318.237,222.311Z" style="fill:white;fill-rule:nonzero;"/>
            </g>
            <g transform="matrix(6.79828,0,0,6.79828,-1985.51,-1101.43)">
                <path d="M328.437,222.311C328.285,222.311 328.179,222.251 328.119,222.131C328.059,222.011 328.057,221.899 328.113,221.795L331.749,213.191C331.813,213.023 331.929,212.939 332.097,212.939C332.257,212.939 332.373,213.023 332.445,213.191L336.093,221.795C336.157,221.907 336.153,222.021 336.081,222.137C336.009,222.253 335.905,222.311 335.769,222.311C335.689,222.311 335.623,222.293 335.571,222.257C335.519,222.221 335.473,222.163 335.433,222.083L331.905,213.671L332.289,213.671L328.773,222.083C328.741,222.163 328.697,222.221 328.641,222.257C328.585,222.293 328.517,222.311 328.437,222.311ZM329.325,219.959L329.613,219.311L334.605,219.311L334.881,219.959L329.325,219.959Z" style="fill:white;fill-rule:nonzero;"/>
            </g>
            <g transform="matrix(6.79828,0,0,6.79828,-1985.51,-1101.43)">
                <path d="M337.245,222.311C337.141,222.311 337.055,222.277 336.987,222.209C336.919,222.141 336.885,222.055 336.885,221.951L336.885,213.299C336.885,213.187 336.919,213.099 336.987,213.035C337.055,212.971 337.141,212.939 337.245,212.939L339.537,212.939C340.121,212.939 340.639,213.061 341.091,213.305C341.543,213.549 341.897,213.883 342.153,214.307C342.409,214.731 342.537,215.223 342.537,215.783C342.537,216.327 342.409,216.811 342.153,217.235C341.897,217.659 341.543,217.991 341.091,218.231C340.639,218.471 340.121,218.591 339.537,218.591L337.605,218.591L337.605,221.951C337.605,222.055 337.573,222.141 337.509,222.209C337.445,222.277 337.357,222.311 337.245,222.311ZM342.285,222.311C342.197,222.311 342.131,222.293 342.087,222.257C342.043,222.221 342.001,222.175 341.961,222.119L339.573,218.303L340.317,218.135L342.585,221.759C342.689,221.919 342.711,222.051 342.651,222.155C342.591,222.259 342.469,222.311 342.285,222.311ZM337.605,217.871L339.537,217.871C339.985,217.871 340.379,217.781 340.719,217.601C341.059,217.421 341.327,217.175 341.523,216.863C341.719,216.551 341.817,216.191 341.817,215.783C341.817,215.367 341.719,214.999 341.523,214.679C341.327,214.359 341.059,214.109 340.719,213.929C340.379,213.749 339.985,213.659 339.537,213.659L337.605,213.659L337.605,217.871Z" style="fill:white;fill-rule:nonzero;"/>
            </g>
            <g transform="matrix(6.79828,0,0,6.79828,-1985.51,-1101.43)">
                <path d="M343.941,222.311C343.845,222.311 343.761,222.277 343.689,222.209C343.617,222.141 343.581,222.055 343.581,221.951L343.581,213.299C343.581,213.195 343.617,213.109 343.689,213.041C343.761,212.973 343.845,212.939 343.941,212.939C344.045,212.939 344.131,212.973 344.199,213.041C344.267,213.109 344.301,213.195 344.301,213.299L344.301,217.703L348.957,213.047C348.997,213.007 349.039,212.979 349.083,212.963C349.127,212.947 349.177,212.939 349.233,212.939C349.337,212.939 349.421,212.973 349.485,213.041C349.549,213.109 349.585,213.191 349.593,213.287C349.601,213.383 349.565,213.475 349.485,213.563L346.041,217.007L349.521,221.735C349.585,221.823 349.609,221.913 349.593,222.005C349.577,222.097 349.537,222.171 349.473,222.227C349.409,222.283 349.333,222.311 349.245,222.311C349.109,222.311 349.005,222.259 348.933,222.155L345.513,217.535L344.301,218.747L344.301,221.951C344.301,222.055 344.267,222.141 344.199,222.209C344.131,222.277 344.045,222.311 343.941,222.311Z" style="fill:white;fill-rule:nonzero;"/>
            </g>
            <g transform="matrix(6.79828,0,0,6.79828,-1985.51,-1101.43)">
                <path d="M351.105,222.311C351.001,222.311 350.915,222.277 350.847,222.209C350.779,222.141 350.745,222.055 350.745,221.951L350.745,213.299C350.745,213.195 350.779,213.109 350.847,213.041C350.915,212.973 351.001,212.939 351.105,212.939L356.877,212.939C356.973,212.939 357.057,212.973 357.129,213.041C357.201,213.109 357.237,213.195 357.237,213.299C357.237,213.395 357.201,213.479 357.129,213.551C357.057,213.623 356.973,213.659 356.877,213.659L351.465,213.659L351.465,217.259L355.437,217.259C355.541,217.259 355.627,217.293 355.695,217.361C355.763,217.429 355.797,217.515 355.797,217.619C355.797,217.723 355.763,217.811 355.695,217.883C355.627,217.955 355.541,217.991 355.437,217.991L351.465,217.991L351.465,221.591L356.877,221.591C356.973,221.591 357.057,221.627 357.129,221.699C357.201,221.771 357.237,221.855 357.237,221.951C357.237,222.055 357.201,222.141 357.129,222.209C357.057,222.277 356.973,222.311 356.877,222.311L351.105,222.311Z" style="fill:white;fill-rule:nonzero;"/>
            </g>
            <g transform="matrix(6.79828,0,0,6.79828,-1985.51,-1101.43)">
                <path d="M361.077,222.311C360.973,222.311 360.887,222.277 360.819,222.209C360.751,222.141 360.717,222.055 360.717,221.951L360.717,212.939L361.437,212.939L361.437,221.951C361.437,222.055 361.403,222.141 361.335,222.209C361.267,222.277 361.181,222.311 361.077,222.311ZM357.681,213.587C357.585,213.587 357.507,213.557 357.447,213.497C357.387,213.437 357.357,213.359 357.357,213.263C357.357,213.167 357.387,213.089 357.447,213.029C357.507,212.969 357.585,212.939 357.681,212.939L364.473,212.939C364.569,212.939 364.647,212.969 364.707,213.029C364.767,213.089 364.797,213.167 364.797,213.263C364.797,213.359 364.767,213.437 364.707,213.497C364.647,213.557 364.569,213.587 364.473,213.587L357.681,213.587Z" style="fill:white;fill-rule:nonzero;"/>
            </g>
            <g transform="matrix(6.79828,0,0,6.79828,-1985.51,-1101.43)">
                <path d="M365.937,222.311C365.833,222.311 365.747,222.277 365.679,222.209C365.611,222.141 365.577,222.055 365.577,221.951L365.577,213.299C365.577,213.195 365.611,213.109 365.679,213.041C365.747,212.973 365.833,212.939 365.937,212.939C366.041,212.939 366.127,212.973 366.195,213.041C366.263,213.109 366.297,213.195 366.297,213.299L366.297,221.951C366.297,222.055 366.263,222.141 366.195,222.209C366.127,222.277 366.041,222.311 365.937,222.311Z" style="fill:white;fill-rule:nonzero;"/>
            </g>
            <g transform="matrix(6.79828,0,0,6.79828,-1985.51,-1101.43)">
                <path d="M368.457,222.311C368.353,222.311 368.267,222.277 368.199,222.209C368.131,222.141 368.097,222.055 368.097,221.951L368.097,213.299C368.097,213.195 368.131,213.109 368.199,213.041C368.267,212.973 368.353,212.939 368.457,212.939C368.569,212.939 368.661,212.979 368.733,213.059L374.829,220.991L374.829,213.299C374.829,213.195 374.863,213.109 374.931,213.041C374.999,212.973 375.085,212.939 375.189,212.939C375.285,212.939 375.369,212.973 375.441,213.041C375.513,213.109 375.549,213.195 375.549,213.299L375.549,221.951C375.549,222.055 375.513,222.141 375.441,222.209C375.369,222.277 375.285,222.311 375.189,222.311C375.133,222.311 375.083,222.301 375.039,222.281C374.995,222.261 374.957,222.235 374.925,222.203L368.817,214.259L368.817,221.951C368.817,222.055 368.783,222.141 368.715,222.209C368.647,222.277 368.561,222.311 368.457,222.311Z" style="fill:white;fill-rule:nonzero;"/>
            </g>
            <g transform="matrix(6.79828,0,0,6.79828,-1985.51,-1101.43)">
                <path d="M381.561,222.431C380.921,222.431 380.319,222.305 379.755,222.053C379.191,221.801 378.693,221.453 378.261,221.009C377.829,220.565 377.489,220.053 377.241,219.473C376.993,218.893 376.869,218.275 376.869,217.619C376.869,216.971 376.989,216.357 377.229,215.777C377.469,215.197 377.803,214.685 378.231,214.241C378.659,213.797 379.157,213.449 379.725,213.197C380.293,212.945 380.905,212.819 381.561,212.819C382.113,212.819 382.637,212.907 383.133,213.083C383.629,213.259 384.093,213.527 384.525,213.887C384.597,213.943 384.633,214.021 384.633,214.121C384.633,214.221 384.601,214.309 384.537,214.385C384.473,214.461 384.385,214.499 384.273,214.499C384.241,214.499 384.209,214.493 384.177,214.481C384.145,214.469 384.113,214.453 384.081,214.433C384.049,214.413 384.013,214.387 383.973,214.355C383.653,214.067 383.289,213.859 382.881,213.731C382.473,213.603 382.033,213.539 381.561,213.539C381.025,213.539 380.517,213.649 380.037,213.869C379.557,214.089 379.133,214.389 378.765,214.769C378.397,215.149 378.109,215.583 377.901,216.071C377.693,216.559 377.589,217.075 377.589,217.619C377.589,218.179 377.693,218.707 377.901,219.203C378.109,219.699 378.395,220.135 378.759,220.511C379.123,220.887 379.545,221.181 380.025,221.393C380.505,221.605 381.017,221.711 381.561,221.711C382.033,221.711 382.475,221.639 382.887,221.495C383.299,221.351 383.685,221.131 384.045,220.835C384.109,220.779 384.185,220.759 384.273,220.775C384.361,220.791 384.437,220.831 384.501,220.895C384.565,220.959 384.597,221.043 384.597,221.147C384.597,221.195 384.593,221.239 384.585,221.279C384.577,221.319 384.553,221.359 384.513,221.399C384.121,221.791 383.667,222.061 383.151,222.209C382.635,222.357 382.105,222.431 381.561,222.431ZM384.597,221.147L383.877,220.991L383.877,218.399L381.861,218.399C381.757,218.399 381.671,218.367 381.603,218.303C381.535,218.239 381.501,218.159 381.501,218.063C381.501,217.975 381.535,217.901 381.603,217.841C381.671,217.781 381.757,217.751 381.861,217.751L384.237,217.751C384.349,217.751 384.437,217.783 384.501,217.847C384.565,217.911 384.597,217.995 384.597,218.099L384.597,221.147Z" style="fill:white;fill-rule:nonzero;"/>
            </g>
            <g transform="matrix(6.79828,0,0,6.79828,-1512.08,-1099.97)">
                <path d="M320.487,222.503C319.891,222.503 319.336,222.405 318.822,222.209C318.308,222.013 317.86,221.736 317.478,221.378C317.096,221.02 316.807,220.595 316.611,220.103L319.047,218.879C319.083,219.147 319.161,219.383 319.281,219.587C319.401,219.791 319.563,219.952 319.767,220.07C319.971,220.188 320.213,220.247 320.493,220.247C320.861,220.247 321.154,220.146 321.372,219.944C321.59,219.742 321.699,219.469 321.699,219.125C321.699,218.877 321.645,218.659 321.537,218.471C321.429,218.283 321.283,218.136 321.099,218.03C320.915,217.924 320.709,217.871 320.481,217.871C320.301,217.871 320.143,217.899 320.007,217.955L320.007,216.251L320.547,216.251C320.715,216.251 320.871,216.203 321.015,216.107C321.159,216.011 321.275,215.886 321.363,215.732C321.451,215.578 321.495,215.415 321.495,215.243C321.495,215.075 321.449,214.923 321.357,214.787C321.265,214.651 321.14,214.543 320.982,214.463C320.824,214.383 320.643,214.343 320.439,214.343C320.235,214.343 320.043,214.385 319.863,214.469C319.683,214.553 319.53,214.672 319.404,214.826C319.278,214.98 319.187,215.163 319.131,215.375L317.067,214.343C317.227,213.911 317.472,213.537 317.802,213.221C318.132,212.905 318.527,212.661 318.987,212.489C319.447,212.317 319.947,212.231 320.487,212.231C321.147,212.231 321.733,212.358 322.245,212.612C322.757,212.866 323.158,213.216 323.448,213.662C323.738,214.108 323.883,214.619 323.883,215.195C323.883,215.427 323.858,215.644 323.808,215.846C323.758,216.048 323.683,216.238 323.583,216.416C323.483,216.594 323.355,216.763 323.199,216.923C323.455,217.107 323.666,217.311 323.832,217.535C323.998,217.759 324.122,218.003 324.204,218.267C324.286,218.531 324.327,218.819 324.327,219.131C324.327,219.779 324.161,220.357 323.829,220.865C323.497,221.373 323.042,221.773 322.464,222.065C321.886,222.357 321.227,222.503 320.487,222.503Z" style="fill:white;fill-rule:nonzero;"/>
            </g>
            <g transform="matrix(6.79828,0,0,6.79828,-1512.08,-1099.97)">
                <path d="M328.521,222.503C327.929,222.503 327.384,222.414 326.886,222.236C326.388,222.058 325.957,221.808 325.593,221.486C325.229,221.164 324.947,220.782 324.747,220.34C324.547,219.898 324.447,219.413 324.447,218.885C324.447,218.289 324.602,217.636 324.912,216.926C325.222,216.216 325.655,215.523 326.211,214.847L328.203,212.411L331.395,212.411L328.587,215.735C328.651,215.707 328.734,215.686 328.836,215.672C328.938,215.658 329.053,215.651 329.181,215.651C329.633,215.651 330.046,215.734 330.42,215.9C330.794,216.066 331.117,216.3 331.389,216.602C331.661,216.904 331.872,217.262 332.022,217.676C332.172,218.09 332.247,218.545 332.247,219.041C332.247,219.737 332.092,220.344 331.782,220.862C331.472,221.38 331.038,221.783 330.48,222.071C329.922,222.359 329.269,222.503 328.521,222.503ZM328.383,220.319C328.615,220.319 328.822,220.267 329.004,220.163C329.186,220.059 329.33,219.917 329.436,219.737C329.542,219.557 329.595,219.353 329.595,219.125C329.595,218.893 329.542,218.685 329.436,218.501C329.33,218.317 329.186,218.172 329.004,218.066C328.822,217.96 328.615,217.907 328.383,217.907C328.155,217.907 327.952,217.96 327.774,218.066C327.596,218.172 327.455,218.316 327.351,218.498C327.247,218.68 327.195,218.889 327.195,219.125C327.195,219.357 327.246,219.563 327.348,219.743C327.45,219.923 327.591,220.064 327.771,220.166C327.951,220.268 328.155,220.319 328.383,220.319Z" style="fill:white;fill-rule:nonzero;"/>
            </g>
            <g transform="matrix(6.79828,0,0,6.79828,-1512.08,-1099.97)">
                <path d="M336.363,222.503C335.555,222.503 334.843,222.287 334.227,221.855C333.611,221.423 333.131,220.821 332.787,220.049C332.443,219.277 332.271,218.383 332.271,217.367C332.271,216.351 332.443,215.457 332.787,214.685C333.131,213.913 333.611,213.311 334.227,212.879C334.843,212.447 335.555,212.231 336.363,212.231C337.175,212.231 337.888,212.447 338.502,212.879C339.116,213.311 339.595,213.913 339.939,214.685C340.283,215.457 340.455,216.351 340.455,217.367C340.455,218.383 340.283,219.277 339.939,220.049C339.595,220.821 339.116,221.423 338.502,221.855C337.888,222.287 337.175,222.503 336.363,222.503ZM336.363,220.187C336.643,220.187 336.88,220.077 337.074,219.857C337.268,219.637 337.416,219.316 337.518,218.894C337.62,218.472 337.671,217.963 337.671,217.367C337.671,216.767 337.62,216.257 337.518,215.837C337.416,215.417 337.268,215.097 337.074,214.877C336.88,214.657 336.643,214.547 336.363,214.547C336.087,214.547 335.851,214.657 335.655,214.877C335.459,215.097 335.31,215.417 335.208,215.837C335.106,216.257 335.055,216.767 335.055,217.367C335.055,217.963 335.106,218.472 335.208,218.894C335.31,219.316 335.459,219.637 335.655,219.857C335.851,220.077 336.087,220.187 336.363,220.187Z" style="fill:white;fill-rule:nonzero;"/>
            </g>
        </g>
    </g>
</svg>
