<?xml version="1.0" encoding="UTF-8" standalone="no"?>
<!DOCTYPE svg PUBLIC "-//W3C//DTD SVG 1.1//EN" "http://www.w3.org/Graphics/SVG/1.1/DTD/svg11.dtd">
<svg width="100%" height="100%" viewBox="0 0 358 128" version="1.1" xmlns="http://www.w3.org/2000/svg" xmlns:xlink="http://www.w3.org/1999/xlink" xml:space="preserve" xmlns:serif="http://www.serif.com/" style="fill-rule:evenodd;clip-rule:evenodd;stroke-linejoin:round;stroke-miterlimit:2;">
    <g transform="matrix(1,0,0,1,-545.606,-1840.97)">
        <g transform="matrix(1,0,0,0.575865,-20.5995,1614.5)">
            <g id="creative-for-artists--blanco-" serif:id="creative for artists (blanco)" transform="matrix(1.04545,0,0,1.81545,451.102,-527.46)">
                <g transform="matrix(2.70488e-17,-0.441741,0.0363965,2.22864e-18,105.709,903.009)">
                    <path d="M896.089,135.145C896.089,127.132 895.553,120.627 894.893,120.627L620.838,120.627C620.178,120.627 619.642,127.132 619.642,135.145L619.642,382.557C619.642,390.569 620.178,397.074 620.838,397.074L894.893,397.074C895.553,397.074 896.089,390.569 896.089,382.557L896.089,135.145Z" style="fill:rgb(220,53,69);"/>
                </g>
                <g transform="matrix(2.25534,0,0,2.25534,-362.14,-3969.16)">
                    <g>
                        <path d="M240.577,2009.33L240.523,1999.24L235.627,2007.45L233.234,2007.45L228.365,1999.51L228.365,2009.33L223.388,2009.33L223.388,1990.29L227.821,1990.29L234.512,2001.28L241.04,1990.29L245.473,1990.29L245.527,2009.33L240.577,2009.33Z" style="fill:rgb(42,42,42);fill-rule:nonzero;"/>
                        <path d="M254.34,1994.34C256.787,1994.34 258.655,1994.9 259.942,1996.02C261.23,1997.13 261.874,1998.84 261.874,2001.14L261.874,2009.33L257.059,2009.33L257.059,2007.42C256.316,2008.86 254.865,2009.57 252.708,2009.57C251.565,2009.57 250.577,2009.37 249.743,2008.98C248.909,2008.58 248.279,2008.04 247.853,2007.36C247.427,2006.68 247.214,2005.9 247.214,2005.03C247.214,2003.64 247.749,2002.55 248.818,2001.78C249.888,2001.01 251.538,2000.63 253.769,2000.63L256.706,2000.63C256.615,1999.07 255.573,1998.29 253.578,1998.29C252.871,1998.29 252.155,1998.4 251.429,1998.63C250.704,1998.85 250.088,1999.17 249.58,1999.57L247.839,1996.06C248.655,1995.51 249.648,1995.09 250.818,1994.79C251.987,1994.49 253.161,1994.34 254.34,1994.34ZM254.149,2006.31C254.748,2006.31 255.273,2006.16 255.727,2005.88C256.18,2005.59 256.506,2005.16 256.706,2004.6L256.706,2003.32L254.476,2003.32C252.971,2003.32 252.218,2003.82 252.218,2004.81C252.218,2005.27 252.39,2005.63 252.735,2005.9C253.079,2006.17 253.551,2006.31 254.149,2006.31Z" style="fill:rgb(42,42,42);fill-rule:nonzero;"/>
                        <path d="M269.027,1996.36C269.552,1995.68 270.237,1995.18 271.08,1994.85C271.923,1994.51 272.889,1994.34 273.977,1994.34L273.977,1998.99C273.505,1998.94 273.115,1998.91 272.807,1998.91C271.701,1998.91 270.835,1999.21 270.21,1999.81C269.584,2000.41 269.271,2001.32 269.271,2002.56L269.271,2009.33L264.104,2009.33L264.104,1994.59L269.027,1994.59L269.027,1996.36Z" style="fill:rgb(42,42,42);fill-rule:nonzero;"/>
                        <path d="M281.755,2004.16L280.232,2005.71L280.232,2009.33L275.065,2009.33L275.065,1989.15L280.232,1989.15L280.232,1999.73L285.509,1994.59L291.628,1994.59L285.509,2000.9L292.145,2009.33L285.89,2009.33L281.755,2004.16Z" style="fill:rgb(42,42,42);fill-rule:nonzero;"/>
                        <path d="M307.104,2001.99C307.104,2002.02 307.077,2002.45 307.022,2003.26L296.306,2003.26C296.524,2004.03 296.946,2004.61 297.571,2005.02C298.197,2005.43 298.981,2005.63 299.924,2005.63C300.631,2005.63 301.243,2005.53 301.76,2005.33C302.276,2005.13 302.798,2004.81 303.324,2004.35L306.043,2007.18C304.611,2008.78 302.517,2009.57 299.761,2009.57C298.038,2009.57 296.524,2009.25 295.218,2008.6C293.913,2007.94 292.902,2007.04 292.186,2005.88C291.47,2004.71 291.112,2003.4 291.112,2001.93C291.112,2000.48 291.461,1999.18 292.159,1998.03C292.857,1996.88 293.822,1995.98 295.055,1995.32C296.288,1994.67 297.675,1994.34 299.217,1994.34C300.685,1994.34 302.018,1994.65 303.215,1995.25C304.411,1995.86 305.359,1996.74 306.057,1997.89C306.755,1999.04 307.104,2000.41 307.104,2001.99ZM299.244,1998.02C298.446,1998.02 297.78,1998.24 297.245,1998.69C296.71,1999.15 296.37,1999.76 296.225,2000.54L302.263,2000.54C302.118,1999.76 301.778,1999.15 301.243,1998.69C300.708,1998.24 300.042,1998.02 299.244,1998.02Z" style="fill:rgb(42,42,42);fill-rule:nonzero;"/>
                        <path d="M318.636,2008.73C318.201,2009 317.671,2009.21 317.045,2009.36C316.419,2009.5 315.753,2009.57 315.046,2009.57C313.124,2009.57 311.646,2009.1 310.613,2008.16C309.579,2007.22 309.062,2005.81 309.062,2003.94L309.062,1998.99L306.914,1998.99L306.914,1995.13L309.062,1995.13L309.062,1991.3L314.23,1991.3L314.23,1995.13L317.603,1995.13L317.603,1998.99L314.23,1998.99L314.23,2003.89C314.23,2004.41 314.37,2004.83 314.652,2005.13C314.933,2005.43 315.309,2005.58 315.78,2005.58C316.379,2005.58 316.904,2005.42 317.358,2005.11L318.636,2008.73Z" style="fill:rgb(42,42,42);fill-rule:nonzero;"/>
                        <path d="M319.588,1994.59L324.756,1994.59L324.756,2009.33L319.588,2009.33L319.588,1994.59ZM322.172,1992.96C321.229,1992.96 320.467,1992.69 319.887,1992.17C319.307,1991.64 319.017,1990.99 319.017,1990.21C319.017,1989.43 319.307,1988.78 319.887,1988.25C320.467,1987.73 321.229,1987.46 322.172,1987.46C323.115,1987.46 323.876,1987.71 324.456,1988.21C325.037,1988.71 325.327,1989.35 325.327,1990.13C325.327,1990.94 325.037,1991.62 324.456,1992.15C323.876,1992.69 323.115,1992.96 322.172,1992.96Z" style="fill:rgb(42,42,42);fill-rule:nonzero;"/>
                        <path d="M336.668,1994.34C338.5,1994.34 339.973,1994.89 341.088,1995.98C342.203,1997.06 342.761,1998.7 342.761,2000.9L342.761,2009.33L337.593,2009.33L337.593,2001.74C337.593,1999.73 336.786,1998.72 335.173,1998.72C334.284,1998.72 333.572,1999.01 333.037,1999.59C332.503,2000.17 332.235,2001.04 332.235,2002.2L332.235,2009.33L327.067,2009.33L327.067,1994.59L331.99,1994.59L331.99,1996.19C332.571,1995.59 333.26,1995.14 334.057,1994.82C334.855,1994.5 335.726,1994.34 336.668,1994.34Z" style="fill:rgb(42,42,42);fill-rule:nonzero;"/>
                        <path d="M361.038,1994.59L361.038,2006.64C361.038,2009.37 360.295,2011.43 358.808,2012.8C357.321,2014.17 355.181,2014.85 352.389,2014.85C350.938,2014.85 349.578,2014.69 348.309,2014.36C347.04,2014.03 345.961,2013.55 345.073,2012.92L346.949,2009.3C347.548,2009.79 348.305,2010.18 349.22,2010.46C350.136,2010.74 351.038,2010.88 351.927,2010.88C353.286,2010.88 354.284,2010.58 354.918,2009.98C355.553,2009.38 355.87,2008.5 355.87,2007.32L355.87,2006.83C354.873,2007.99 353.413,2008.57 351.491,2008.57C350.186,2008.57 348.98,2008.27 347.874,2007.68C346.768,2007.09 345.889,2006.26 345.236,2005.18C344.583,2004.1 344.257,2002.86 344.257,2001.44C344.257,2000.05 344.583,1998.81 345.236,1997.73C345.889,1996.65 346.768,1995.82 347.874,1995.23C348.98,1994.64 350.186,1994.34 351.491,1994.34C353.595,1994.34 355.136,1995.02 356.115,1996.38L356.115,1994.59L361.038,1994.59ZM352.715,2004.46C353.64,2004.46 354.406,2004.18 355.014,2003.62C355.621,2003.06 355.925,2002.33 355.925,2001.44C355.925,2000.55 355.626,1999.83 355.027,1999.28C354.429,1998.73 353.658,1998.45 352.715,1998.45C351.772,1998.45 350.997,1998.73 350.39,1999.28C349.782,1999.83 349.479,2000.55 349.479,2001.44C349.479,2002.33 349.787,2003.06 350.403,2003.62C351.02,2004.18 351.791,2004.46 352.715,2004.46Z" style="fill:rgb(42,42,42);fill-rule:nonzero;"/>
                        <path d="M229.372,2025.65C231.366,2025.76 232.885,2026.3 233.927,2027.27C234.97,2028.24 235.491,2029.5 235.491,2031.06C235.491,2032.15 235.228,2033.11 234.703,2033.96C234.177,2034.8 233.397,2035.47 232.364,2035.96C231.33,2036.45 230.07,2036.69 228.583,2036.69C227.205,2036.69 225.904,2036.47 224.68,2036.02C223.456,2035.58 222.473,2034.99 221.729,2034.24L222.681,2032.69C223.316,2033.35 224.159,2033.88 225.21,2034.28C226.262,2034.69 227.386,2034.89 228.583,2034.89C230.142,2034.89 231.348,2034.56 232.2,2033.88C233.053,2033.19 233.479,2032.26 233.479,2031.06C233.479,2029.88 233.053,2028.96 232.2,2028.29C231.348,2027.62 230.061,2027.28 228.338,2027.28L226.978,2027.28L226.978,2025.84L232.255,2019.23L222.518,2019.23L222.518,2017.49L234.757,2017.49L234.757,2018.88L229.372,2025.65Z" style="fill:rgb(42,42,42);fill-rule:nonzero;"/>
                        <path d="M246.126,2025.13C247.377,2025.13 248.488,2025.37 249.458,2025.84C250.428,2026.31 251.185,2026.98 251.729,2027.84C252.273,2028.7 252.545,2029.7 252.545,2030.84C252.545,2032 252.264,2033.03 251.701,2033.92C251.139,2034.81 250.364,2035.49 249.376,2035.97C248.388,2036.45 247.277,2036.69 246.044,2036.69C243.524,2036.69 241.593,2035.86 240.251,2034.2C238.909,2032.54 238.238,2030.2 238.238,2027.17C238.238,2025.05 238.601,2023.25 239.326,2021.79C240.052,2020.32 241.067,2019.21 242.372,2018.45C243.678,2017.7 245.201,2017.33 246.942,2017.33C248.828,2017.33 250.332,2017.67 251.457,2018.36L250.668,2019.94C249.761,2019.34 248.528,2019.04 246.969,2019.04C244.866,2019.04 243.216,2019.71 242.019,2021.04C240.822,2022.37 240.224,2024.31 240.224,2026.85C240.224,2027.3 240.251,2027.82 240.305,2028.39C240.777,2027.36 241.529,2026.56 242.563,2025.99C243.596,2025.42 244.784,2025.13 246.126,2025.13ZM245.963,2035.03C247.341,2035.03 248.46,2034.65 249.322,2033.9C250.183,2033.15 250.614,2032.15 250.614,2030.9C250.614,2029.65 250.183,2028.65 249.322,2027.9C248.46,2027.16 247.295,2026.79 245.827,2026.79C244.866,2026.79 244.018,2026.97 243.284,2027.33C242.549,2027.7 241.974,2028.19 241.557,2028.83C241.139,2029.47 240.931,2030.17 240.931,2030.95C240.931,2031.68 241.126,2032.35 241.516,2032.96C241.906,2033.58 242.481,2034.08 243.243,2034.46C244.004,2034.84 244.911,2035.03 245.963,2035.03Z" style="fill:rgb(42,42,42);fill-rule:nonzero;"/>
                        <g transform="matrix(1,0,0,1,0,0.0126767)">
                            <path d="M262.39,2036.69C260.922,2036.69 259.612,2036.3 258.46,2035.52C257.309,2034.74 256.411,2033.62 255.768,2032.16C255.124,2030.7 254.802,2028.98 254.802,2027.01C254.802,2025.03 255.124,2023.31 255.768,2021.85C256.411,2020.39 257.309,2019.27 258.46,2018.5C259.612,2017.72 260.922,2017.33 262.39,2017.33C263.859,2017.33 265.169,2017.72 266.32,2018.5C267.472,2019.27 268.374,2020.39 269.027,2021.85C269.679,2023.31 270.006,2025.03 270.006,2027.01C270.006,2028.98 269.679,2030.7 269.027,2032.16C268.374,2033.62 267.472,2034.74 266.32,2035.52C265.169,2036.3 263.859,2036.69 262.39,2036.69ZM262.39,2034.89C263.496,2034.89 264.471,2034.59 265.314,2033.97C266.157,2033.35 266.815,2032.46 267.286,2031.28C267.757,2030.1 267.993,2028.68 267.993,2027.01C267.993,2025.34 267.757,2023.92 267.286,2022.74C266.815,2021.56 266.157,2020.66 265.314,2020.05C264.471,2019.43 263.496,2019.12 262.39,2019.12C261.284,2019.12 260.31,2019.43 259.467,2020.05C258.623,2020.66 257.966,2021.56 257.495,2022.74C257.023,2023.92 256.787,2025.34 256.787,2027.01C256.787,2028.68 257.023,2030.1 257.495,2031.28C257.966,2032.46 258.623,2033.35 259.467,2033.97C260.31,2034.59 261.284,2034.89 262.39,2034.89Z" style="fill:rgb(42,42,42);fill-rule:nonzero;"/>
                        </g>
                    </g>
                    <g transform="matrix(0.458371,0,0,0.244233,-56.3091,1888.42)">
                        <g transform="matrix(0.991992,0,0,1.73652,27.1405,-2905.01)">
                            <path d="M849.46,1978.23C849.46,1977.85 849.172,1977.54 848.818,1977.54L699.602,1977.54C699.248,1977.54 698.96,1977.85 698.96,1978.23L698.96,1979.6C698.96,1979.98 699.248,1980.29 699.602,1980.29L848.818,1980.29C849.172,1980.29 849.46,1979.98 849.46,1979.6L849.46,1978.23Z" style="fill:rgb(42,42,42);"/>
                        </g>
                        <g transform="matrix(1,0,0,1.73652,20.3377,-2832.85)">
                            <path d="M849.46,1978.23C849.46,1977.85 849.174,1977.54 848.823,1977.54L699.597,1977.54C699.246,1977.54 698.96,1977.85 698.96,1978.23L698.96,1979.6C698.96,1979.98 699.246,1980.29 699.597,1980.29L848.823,1980.29C849.174,1980.29 849.46,1979.98 849.46,1979.6L849.46,1978.23Z" style="fill:rgb(42,42,42);"/>
                        </g>
                        <g transform="matrix(0.859753,0,0,1.73652,123.177,-2893.34)">
                            <path d="M849.46,1978.23C849.46,1977.85 849.128,1977.54 848.719,1977.54L699.701,1977.54C699.292,1977.54 698.96,1977.85 698.96,1978.23L698.96,1979.6C698.96,1979.98 699.292,1980.29 699.701,1980.29L848.719,1980.29C849.128,1980.29 849.46,1979.98 849.46,1979.6L849.46,1978.23Z" style="fill:rgb(42,42,42);"/>
                        </g>
                        <g transform="matrix(0.864514,0,0,1.73652,119.133,-2844.49)">
                            <path d="M849.46,1978.23C849.46,1977.85 849.13,1977.54 848.723,1977.54L699.697,1977.54C699.29,1977.54 698.96,1977.85 698.96,1978.23L698.96,1979.6C698.96,1979.98 699.29,1980.29 699.697,1980.29L848.723,1980.29C849.13,1980.29 849.46,1979.98 849.46,1979.6L849.46,1978.23Z" style="fill:rgb(42,42,42);"/>
                        </g>
                        <g transform="matrix(0.724687,0,0,1.73652,219.738,-2881.46)">
                            <path d="M849.46,1978.23C849.46,1977.85 849.066,1977.54 848.581,1977.54L699.839,1977.54C699.354,1977.54 698.96,1977.85 698.96,1978.23L698.96,1979.6C698.96,1979.98 699.354,1980.29 699.839,1980.29L848.581,1980.29C849.066,1980.29 849.46,1979.98 849.46,1979.6L849.46,1978.23Z" style="fill:rgb(42,42,42);"/>
                        </g>
                        <g transform="matrix(0.725645,0,0,1.73652,218.923,-2857.07)">
                            <path d="M849.46,1978.23C849.46,1977.85 849.067,1977.54 848.582,1977.54L699.838,1977.54C699.353,1977.54 698.96,1977.85 698.96,1978.23L698.96,1979.6C698.96,1979.98 699.353,1980.29 699.838,1980.29L848.582,1980.29C849.067,1980.29 849.46,1979.98 849.46,1979.6L849.46,1978.23Z" style="fill:rgb(42,42,42);"/>
                        </g>
                        <g transform="matrix(0.599029,0,0,1.73652,308.596,-2869.29)">
                            <path d="M849.46,1978.23C849.46,1977.85 848.983,1977.54 848.397,1977.54L700.023,1977.54C699.437,1977.54 698.96,1977.85 698.96,1978.23L698.96,1979.6C698.96,1979.98 699.437,1980.29 700.023,1980.29L848.397,1980.29C848.983,1980.29 849.46,1979.98 849.46,1979.6L849.46,1978.23Z" style="fill:rgb(42,42,42);"/>
                        </g>
                    </g>
                </g>
            </g>
        </g>
    </g>
</svg>
