<?xml version="1.0" encoding="UTF-8" standalone="no"?>
<!DOCTYPE svg PUBLIC "-//W3C//DTD SVG 1.1//EN" "http://www.w3.org/Graphics/SVG/1.1/DTD/svg11.dtd">
<svg width="100%" height="100%" viewBox="0 0 305 81" version="1.1" xmlns="http://www.w3.org/2000/svg" xmlns:xlink="http://www.w3.org/1999/xlink" xml:space="preserve" xmlns:serif="http://www.serif.com/" style="fill-rule:evenodd;clip-rule:evenodd;stroke-linejoin:round;stroke-miterlimit:2;">
    <g transform="matrix(1,0,0,1,-1.30667,-8.79056)">
        <g transform="matrix(1,0,0,1,1.65671,7.10543e-15)">
            <g id="ISOTIPO-A" serif:id="ISOTIPO A" transform="matrix(0.0801279,0,0,0.0801279,-8.21736,0.923241)">
                <g transform="matrix(1.11309,0,0,1.11309,-121.654,-86.6548)">
                    <path d="M1099.16,247.735C1099.16,202.657 1062.57,166.059 1017.49,166.059L279.179,166.059C234.1,166.059 197.503,202.657 197.503,247.735L197.503,986.043C197.503,1031.12 234.1,1067.72 279.179,1067.72L1017.49,1067.72C1062.57,1067.72 1099.16,1031.12 1099.16,986.043L1099.16,247.735Z" style="fill:rgb(0,131,255);"/>
                </g>
                <g transform="matrix(3.2846,0,0,3.2846,-208.019,-240.858)">
                    <path d="M256,302.703C230.246,302.703 209.297,281.754 209.297,256C209.297,230.246 230.246,209.297 256,209.297C270.32,209.297 283.676,215.785 292.637,227.102L328.645,198.578C311.664,177.141 285.41,163.359 256,163.359C204.918,163.359 163.359,204.918 163.359,256C163.359,307.082 204.918,348.641 256,348.641C285.41,348.641 311.664,334.863 328.645,313.422L292.637,284.898C283.676,296.215 270.32,302.703 256,302.703Z" style="fill:white;fill-rule:nonzero;"/>
                </g>
            </g>
            <g transform="matrix(1,0,0,1,-0.392519,-0.985407)">
                <g transform="matrix(0.191616,0,0,0.191616,102.008,24.2328)">
                    <g transform="matrix(189.613,0,0,189.613,-6.06447,149.228)">
                        <path d="M0.332,0.008C0.275,0.008 0.223,-0.004 0.178,-0.028C0.132,-0.051 0.096,-0.084 0.071,-0.126C0.045,-0.168 0.032,-0.216 0.032,-0.269C0.032,-0.322 0.045,-0.37 0.071,-0.412C0.096,-0.454 0.132,-0.487 0.178,-0.511C0.223,-0.534 0.275,-0.546 0.332,-0.546C0.389,-0.546 0.438,-0.534 0.481,-0.511C0.523,-0.487 0.554,-0.453 0.573,-0.409L0.452,-0.344C0.424,-0.393 0.384,-0.418 0.331,-0.418C0.29,-0.418 0.257,-0.405 0.23,-0.378C0.203,-0.351 0.19,-0.315 0.19,-0.269C0.19,-0.223 0.203,-0.187 0.23,-0.16C0.257,-0.133 0.29,-0.12 0.331,-0.12C0.384,-0.12 0.425,-0.145 0.452,-0.194L0.573,-0.128C0.554,-0.085 0.523,-0.052 0.481,-0.028C0.438,-0.004 0.389,0.008 0.332,0.008Z" style="fill:white;fill-rule:nonzero;"/>
                    </g>
                    <g transform="matrix(189.613,0,0,189.613,94.6203,149.228)">
                        <path d="M0.221,-0.467C0.24,-0.493 0.265,-0.513 0.297,-0.526C0.328,-0.539 0.365,-0.546 0.406,-0.546L0.406,-0.402C0.389,-0.403 0.377,-0.404 0.371,-0.404C0.326,-0.404 0.291,-0.392 0.266,-0.367C0.241,-0.341 0.228,-0.304 0.228,-0.254L0.228,0L0.072,0L0.072,-0.538L0.221,-0.538L0.221,-0.467Z" style="fill:white;fill-rule:nonzero;"/>
                    </g>
                    <g transform="matrix(189.613,0,0,189.613,163.26,149.228)">
                        <path d="M0.599,-0.267C0.599,-0.265 0.598,-0.251 0.596,-0.225L0.189,-0.225C0.196,-0.192 0.214,-0.165 0.241,-0.146C0.268,-0.127 0.302,-0.117 0.343,-0.117C0.371,-0.117 0.396,-0.121 0.418,-0.13C0.439,-0.138 0.459,-0.151 0.478,-0.169L0.561,-0.079C0.51,-0.021 0.436,0.008 0.339,0.008C0.278,0.008 0.225,-0.004 0.178,-0.028C0.131,-0.051 0.095,-0.084 0.07,-0.126C0.045,-0.168 0.032,-0.216 0.032,-0.269C0.032,-0.322 0.045,-0.369 0.07,-0.412C0.094,-0.454 0.129,-0.487 0.173,-0.511C0.216,-0.534 0.265,-0.546 0.319,-0.546C0.372,-0.546 0.419,-0.535 0.462,-0.512C0.505,-0.489 0.538,-0.457 0.563,-0.415C0.587,-0.372 0.599,-0.323 0.599,-0.267ZM0.32,-0.428C0.285,-0.428 0.255,-0.418 0.231,-0.398C0.207,-0.378 0.192,-0.351 0.187,-0.316L0.452,-0.316C0.447,-0.35 0.432,-0.377 0.408,-0.398C0.384,-0.418 0.355,-0.428 0.32,-0.428Z" style="fill:white;fill-rule:nonzero;"/>
                    </g>
                    <g transform="matrix(189.613,0,0,189.613,268.685,149.228)">
                        <path d="M0.289,-0.546C0.372,-0.546 0.436,-0.526 0.481,-0.487C0.526,-0.447 0.548,-0.387 0.548,-0.307L0.548,0L0.402,0L0.402,-0.067C0.373,-0.017 0.318,0.008 0.238,0.008C0.197,0.008 0.161,0.001 0.131,-0.013C0.1,-0.027 0.077,-0.046 0.061,-0.071C0.045,-0.096 0.037,-0.124 0.037,-0.155C0.037,-0.205 0.056,-0.244 0.094,-0.273C0.131,-0.302 0.189,-0.316 0.268,-0.316L0.392,-0.316C0.392,-0.35 0.382,-0.376 0.361,-0.395C0.34,-0.413 0.309,-0.422 0.268,-0.422C0.239,-0.422 0.211,-0.418 0.184,-0.409C0.156,-0.4 0.132,-0.387 0.113,-0.372L0.057,-0.481C0.086,-0.502 0.122,-0.518 0.163,-0.529C0.204,-0.54 0.246,-0.546 0.289,-0.546ZM0.277,-0.097C0.304,-0.097 0.327,-0.103 0.348,-0.116C0.369,-0.128 0.383,-0.146 0.392,-0.17L0.392,-0.225L0.285,-0.225C0.221,-0.225 0.189,-0.204 0.189,-0.162C0.189,-0.142 0.197,-0.126 0.213,-0.115C0.228,-0.103 0.25,-0.097 0.277,-0.097Z" style="fill:white;fill-rule:nonzero;"/>
                    </g>
                    <g transform="matrix(189.613,0,0,189.613,374.3,149.228)">
                        <path d="M0.419,-0.026C0.404,-0.015 0.385,-0.006 0.363,-0.001C0.34,0.005 0.317,0.008 0.292,0.008C0.228,0.008 0.179,-0.008 0.144,-0.041C0.109,-0.074 0.091,-0.122 0.091,-0.185L0.091,-0.406L0.008,-0.406L0.008,-0.526L0.091,-0.526L0.091,-0.657L0.247,-0.657L0.247,-0.526L0.381,-0.526L0.381,-0.406L0.247,-0.406L0.247,-0.187C0.247,-0.164 0.253,-0.147 0.265,-0.135C0.276,-0.122 0.293,-0.116 0.314,-0.116C0.339,-0.116 0.36,-0.123 0.377,-0.136L0.419,-0.026Z" style="fill:white;fill-rule:nonzero;"/>
                    </g>
                    <g transform="matrix(189.613,0,0,189.613,445.405,149.228)">
                        <path d="M0.072,-0.538L0.228,-0.538L0.228,0L0.072,0L0.072,-0.538ZM0.15,-0.613C0.121,-0.613 0.098,-0.621 0.08,-0.638C0.062,-0.655 0.053,-0.675 0.053,-0.7C0.053,-0.725 0.062,-0.745 0.08,-0.762C0.098,-0.779 0.121,-0.787 0.15,-0.787C0.179,-0.787 0.202,-0.779 0.22,-0.763C0.238,-0.747 0.247,-0.727 0.247,-0.703C0.247,-0.677 0.238,-0.656 0.22,-0.639C0.202,-0.622 0.179,-0.613 0.15,-0.613Z" style="fill:white;fill-rule:nonzero;"/>
                    </g>
                    <g transform="matrix(189.613,0,0,189.613,491.102,149.228)">
                        <path d="M0.606,-0.538L0.379,0L0.218,0L-0.008,-0.538L0.153,-0.538L0.302,-0.172L0.456,-0.538L0.606,-0.538Z" style="fill:white;fill-rule:nonzero;"/>
                    </g>
                    <g transform="matrix(189.613,0,0,189.613,590.27,149.228)">
                        <path d="M0.599,-0.267C0.599,-0.265 0.598,-0.251 0.596,-0.225L0.189,-0.225C0.196,-0.192 0.214,-0.165 0.241,-0.146C0.268,-0.127 0.302,-0.117 0.343,-0.117C0.371,-0.117 0.396,-0.121 0.418,-0.13C0.439,-0.138 0.459,-0.151 0.478,-0.169L0.561,-0.079C0.51,-0.021 0.436,0.008 0.339,0.008C0.278,0.008 0.225,-0.004 0.178,-0.028C0.131,-0.051 0.095,-0.084 0.07,-0.126C0.045,-0.168 0.032,-0.216 0.032,-0.269C0.032,-0.322 0.045,-0.369 0.07,-0.412C0.094,-0.454 0.129,-0.487 0.173,-0.511C0.216,-0.534 0.265,-0.546 0.319,-0.546C0.372,-0.546 0.419,-0.535 0.462,-0.512C0.505,-0.489 0.538,-0.457 0.563,-0.415C0.587,-0.372 0.599,-0.323 0.599,-0.267ZM0.32,-0.428C0.285,-0.428 0.255,-0.418 0.231,-0.398C0.207,-0.378 0.192,-0.351 0.187,-0.316L0.452,-0.316C0.447,-0.35 0.432,-0.377 0.408,-0.398C0.384,-0.418 0.355,-0.428 0.32,-0.428Z" style="fill:white;fill-rule:nonzero;"/>
                    </g>
                    <g transform="matrix(189.613,0,0,189.613,740.819,149.228)">
                        <path d="M0.37,-0.53C0.419,-0.53 0.464,-0.519 0.504,-0.497C0.544,-0.474 0.575,-0.443 0.598,-0.402C0.621,-0.361 0.632,-0.315 0.632,-0.263C0.632,-0.211 0.621,-0.165 0.598,-0.124C0.575,-0.083 0.544,-0.052 0.504,-0.029C0.464,-0.006 0.419,0.005 0.37,0.005C0.326,0.005 0.286,-0.004 0.252,-0.023C0.217,-0.042 0.188,-0.069 0.167,-0.104L0.167,0L0.099,0L0.099,-0.742L0.17,-0.742L0.17,-0.426C0.192,-0.46 0.22,-0.486 0.255,-0.504C0.289,-0.521 0.327,-0.53 0.37,-0.53ZM0.365,-0.058C0.402,-0.058 0.435,-0.067 0.465,-0.084C0.495,-0.1 0.519,-0.125 0.536,-0.156C0.553,-0.187 0.561,-0.223 0.561,-0.263C0.561,-0.303 0.553,-0.339 0.536,-0.37C0.519,-0.401 0.495,-0.426 0.465,-0.443C0.435,-0.46 0.402,-0.468 0.365,-0.468C0.328,-0.468 0.294,-0.46 0.265,-0.443C0.235,-0.426 0.212,-0.401 0.195,-0.37C0.178,-0.339 0.169,-0.303 0.169,-0.263C0.169,-0.223 0.178,-0.187 0.195,-0.156C0.212,-0.125 0.235,-0.1 0.265,-0.084C0.294,-0.067 0.328,-0.058 0.365,-0.058Z" style="fill:white;fill-rule:nonzero;"/>
                    </g>
                    <g transform="matrix(189.613,0,0,189.613,858,149.228)">
                        <path d="M0.314,0.005C0.263,0.005 0.218,-0.007 0.177,-0.03C0.136,-0.053 0.104,-0.084 0.081,-0.125C0.058,-0.166 0.046,-0.212 0.046,-0.263C0.046,-0.314 0.058,-0.36 0.081,-0.401C0.104,-0.442 0.136,-0.473 0.177,-0.496C0.218,-0.519 0.263,-0.53 0.314,-0.53C0.365,-0.53 0.41,-0.519 0.451,-0.496C0.492,-0.473 0.524,-0.442 0.547,-0.401C0.57,-0.36 0.581,-0.314 0.581,-0.263C0.581,-0.212 0.57,-0.166 0.547,-0.125C0.524,-0.084 0.492,-0.053 0.451,-0.03C0.41,-0.007 0.365,0.005 0.314,0.005ZM0.314,-0.058C0.351,-0.058 0.385,-0.067 0.415,-0.084C0.444,-0.1 0.467,-0.125 0.484,-0.156C0.501,-0.187 0.509,-0.223 0.509,-0.263C0.509,-0.303 0.501,-0.339 0.484,-0.37C0.467,-0.401 0.444,-0.426 0.415,-0.443C0.385,-0.46 0.351,-0.468 0.314,-0.468C0.277,-0.468 0.243,-0.46 0.214,-0.443C0.184,-0.426 0.161,-0.401 0.144,-0.37C0.127,-0.339 0.118,-0.303 0.118,-0.263C0.118,-0.223 0.127,-0.187 0.144,-0.156C0.161,-0.125 0.184,-0.1 0.214,-0.084C0.243,-0.067 0.277,-0.058 0.314,-0.058Z" style="fill:white;fill-rule:nonzero;"/>
                    </g>
                    <g transform="matrix(189.613,0,0,189.613,961.909,149.228)">
                        <path d="M0.434,0L0.267,-0.22L0.099,0L0.019,0L0.227,-0.27L0.029,-0.526L0.109,-0.526L0.267,-0.32L0.425,-0.526L0.503,-0.526L0.305,-0.27L0.515,0L0.434,0Z" style="fill:white;fill-rule:nonzero;"/>
                    </g>
                </g>
                <g transform="matrix(1.45755,0,0,1.45755,-110.176,-43.3834)">
                    <path d="M157.021,70.779L157.021,79.179L156.169,79.179L156.169,72.459L152.869,78.111L152.449,78.111L149.149,72.495L149.149,79.179L148.297,79.179L148.297,70.779L149.029,70.779L152.677,77.007L156.289,70.779L157.021,70.779Z" style="fill:rgb(0,131,255);fill-rule:nonzero;"/>
                    <path d="M161.785,72.819C162.609,72.819 163.241,73.025 163.681,73.437C164.121,73.849 164.341,74.459 164.341,75.267L164.341,79.179L163.525,79.179L163.525,78.195C163.333,78.523 163.051,78.779 162.679,78.963C162.307,79.147 161.865,79.239 161.353,79.239C160.649,79.239 160.089,79.071 159.673,78.735C159.257,78.399 159.049,77.955 159.049,77.403C159.049,76.867 159.243,76.435 159.631,76.107C160.019,75.779 160.637,75.615 161.485,75.615L163.489,75.615L163.489,75.231C163.489,74.687 163.337,74.273 163.033,73.989C162.729,73.705 162.285,73.563 161.701,73.563C161.301,73.563 160.917,73.629 160.549,73.761C160.181,73.893 159.865,74.075 159.601,74.307L159.217,73.671C159.537,73.399 159.921,73.189 160.369,73.041C160.817,72.893 161.289,72.819 161.785,72.819ZM161.485,78.567C161.965,78.567 162.377,78.457 162.721,78.237C163.065,78.017 163.321,77.699 163.489,77.283L163.489,76.251L161.509,76.251C160.429,76.251 159.889,76.627 159.889,77.379C159.889,77.747 160.029,78.037 160.309,78.249C160.589,78.461 160.981,78.567 161.485,78.567Z" style="fill:rgb(0,131,255);fill-rule:nonzero;"/>
                    <path d="M167.473,74.103C167.673,73.679 167.971,73.359 168.367,73.143C168.763,72.927 169.253,72.819 169.837,72.819L169.837,73.647L169.633,73.635C168.969,73.635 168.449,73.839 168.073,74.247C167.697,74.655 167.509,75.227 167.509,75.963L167.509,79.179L166.657,79.179L166.657,72.867L167.473,72.867L167.473,74.103Z" style="fill:rgb(0,131,255);fill-rule:nonzero;"/>
                    <path d="M173.713,76.011L172.225,77.379L172.225,79.179L171.373,79.179L171.373,70.275L172.225,70.275L172.225,76.311L175.993,72.867L177.049,72.867L174.349,75.447L177.301,79.179L176.257,79.179L173.713,76.011Z" style="fill:rgb(0,131,255);fill-rule:nonzero;"/>
                    <path d="M183.829,76.287L178.549,76.287C178.597,76.943 178.849,77.473 179.305,77.877C179.761,78.281 180.337,78.483 181.033,78.483C181.425,78.483 181.785,78.413 182.113,78.273C182.441,78.133 182.725,77.927 182.965,77.655L183.445,78.207C183.165,78.543 182.815,78.799 182.395,78.975C181.975,79.151 181.513,79.239 181.009,79.239C180.361,79.239 179.787,79.101 179.287,78.825C178.787,78.549 178.397,78.167 178.117,77.679C177.837,77.191 177.697,76.639 177.697,76.023C177.697,75.407 177.831,74.855 178.099,74.367C178.367,73.879 178.735,73.499 179.203,73.227C179.671,72.955 180.197,72.819 180.781,72.819C181.365,72.819 181.889,72.955 182.353,73.227C182.817,73.499 183.181,73.877 183.445,74.361C183.709,74.845 183.841,75.399 183.841,76.023L183.829,76.287ZM180.781,73.551C180.173,73.551 179.663,73.745 179.251,74.133C178.839,74.521 178.605,75.027 178.549,75.651L183.025,75.651C182.969,75.027 182.735,74.521 182.323,74.133C181.911,73.745 181.397,73.551 180.781,73.551Z" style="fill:rgb(0,131,255);fill-rule:nonzero;"/>
                    <path d="M188.905,78.795C188.745,78.939 188.547,79.049 188.311,79.125C188.075,79.201 187.829,79.239 187.573,79.239C186.981,79.239 186.525,79.079 186.205,78.759C185.885,78.439 185.725,77.987 185.725,77.403L185.725,73.587L184.597,73.587L184.597,72.867L185.725,72.867L185.725,71.487L186.577,71.487L186.577,72.867L188.497,72.867L188.497,73.587L186.577,73.587L186.577,77.355C186.577,77.731 186.671,78.017 186.859,78.213C187.047,78.409 187.317,78.507 187.669,78.507C187.845,78.507 188.015,78.479 188.179,78.423C188.343,78.367 188.485,78.287 188.605,78.183L188.905,78.795Z" style="fill:rgb(0,131,255);fill-rule:nonzero;"/>
                    <path d="M190.453,72.867L191.305,72.867L191.305,79.179L190.453,79.179L190.453,72.867ZM190.885,71.487C190.709,71.487 190.561,71.427 190.441,71.307C190.321,71.187 190.261,71.043 190.261,70.875C190.261,70.715 190.321,70.575 190.441,70.455C190.561,70.335 190.709,70.275 190.885,70.275C191.061,70.275 191.209,70.333 191.329,70.449C191.449,70.565 191.509,70.703 191.509,70.863C191.509,71.039 191.449,71.187 191.329,71.307C191.209,71.427 191.061,71.487 190.885,71.487Z" style="fill:rgb(0,131,255);fill-rule:nonzero;"/>
                    <path d="M196.897,72.819C197.689,72.819 198.319,73.049 198.787,73.509C199.255,73.969 199.489,74.639 199.489,75.519L199.489,79.179L198.637,79.179L198.637,75.603C198.637,74.947 198.473,74.447 198.145,74.103C197.817,73.759 197.349,73.587 196.741,73.587C196.061,73.587 195.523,73.789 195.127,74.193C194.731,74.597 194.533,75.155 194.533,75.867L194.533,79.179L193.681,79.179L193.681,72.867L194.497,72.867L194.497,74.031C194.729,73.647 195.051,73.349 195.463,73.137C195.875,72.925 196.353,72.819 196.897,72.819Z" style="fill:rgb(0,131,255);fill-rule:nonzero;"/>
                    <path d="M207.673,72.867L207.673,78.411C207.673,79.483 207.411,80.277 206.887,80.793C206.363,81.309 205.573,81.567 204.517,81.567C203.933,81.567 203.379,81.481 202.855,81.309C202.331,81.137 201.905,80.899 201.577,80.595L202.009,79.947C202.313,80.219 202.683,80.431 203.119,80.583C203.555,80.735 204.013,80.811 204.493,80.811C205.293,80.811 205.881,80.625 206.257,80.253C206.633,79.881 206.821,79.303 206.821,78.519L206.821,77.715C206.557,78.115 206.211,78.419 205.783,78.627C205.355,78.835 204.881,78.939 204.361,78.939C203.769,78.939 203.231,78.809 202.747,78.549C202.263,78.289 201.883,77.925 201.607,77.457C201.331,76.989 201.193,76.459 201.193,75.867C201.193,75.275 201.331,74.747 201.607,74.283C201.883,73.819 202.261,73.459 202.741,73.203C203.221,72.947 203.761,72.819 204.361,72.819C204.897,72.819 205.381,72.927 205.813,73.143C206.245,73.359 206.593,73.671 206.857,74.079L206.857,72.867L207.673,72.867ZM204.445,78.183C204.901,78.183 205.313,78.085 205.681,77.889C206.049,77.693 206.335,77.419 206.539,77.067C206.743,76.715 206.845,76.315 206.845,75.867C206.845,75.419 206.743,75.021 206.539,74.673C206.335,74.325 206.051,74.053 205.687,73.857C205.323,73.661 204.909,73.563 204.445,73.563C203.989,73.563 203.579,73.659 203.215,73.851C202.851,74.043 202.567,74.315 202.363,74.667C202.159,75.019 202.057,75.419 202.057,75.867C202.057,76.315 202.159,76.715 202.363,77.067C202.567,77.419 202.851,77.693 203.215,77.889C203.579,78.085 203.989,78.183 204.445,78.183Z" style="fill:rgb(0,131,255);fill-rule:nonzero;"/>
                    <path d="M216.457,72.819C217.049,72.819 217.585,72.953 218.065,73.221C218.545,73.489 218.921,73.867 219.193,74.355C219.465,74.843 219.601,75.399 219.601,76.023C219.601,76.655 219.465,77.215 219.193,77.703C218.921,78.191 218.547,78.569 218.071,78.837C217.595,79.105 217.057,79.239 216.457,79.239C215.945,79.239 215.483,79.133 215.071,78.921C214.659,78.709 214.321,78.399 214.057,77.991L214.057,81.507L213.205,81.507L213.205,72.867L214.021,72.867L214.021,74.115C214.277,73.699 214.615,73.379 215.035,73.155C215.455,72.931 215.929,72.819 216.457,72.819ZM216.397,78.483C216.837,78.483 217.237,78.381 217.597,78.177C217.957,77.973 218.239,77.683 218.443,77.307C218.647,76.931 218.749,76.503 218.749,76.023C218.749,75.543 218.647,75.117 218.443,74.745C218.239,74.373 217.957,74.083 217.597,73.875C217.237,73.667 216.837,73.563 216.397,73.563C215.949,73.563 215.547,73.667 215.191,73.875C214.835,74.083 214.555,74.373 214.351,74.745C214.147,75.117 214.045,75.543 214.045,76.023C214.045,76.503 214.147,76.931 214.351,77.307C214.555,77.683 214.835,77.973 215.191,78.177C215.547,78.381 215.949,78.483 216.397,78.483Z" style="fill:rgb(0,131,255);fill-rule:nonzero;"/>
                    <path d="M223.513,72.819C224.337,72.819 224.969,73.025 225.409,73.437C225.849,73.849 226.069,74.459 226.069,75.267L226.069,79.179L225.253,79.179L225.253,78.195C225.061,78.523 224.779,78.779 224.407,78.963C224.035,79.147 223.593,79.239 223.081,79.239C222.377,79.239 221.817,79.071 221.401,78.735C220.985,78.399 220.777,77.955 220.777,77.403C220.777,76.867 220.971,76.435 221.359,76.107C221.747,75.779 222.365,75.615 223.213,75.615L225.217,75.615L225.217,75.231C225.217,74.687 225.065,74.273 224.761,73.989C224.457,73.705 224.013,73.563 223.429,73.563C223.029,73.563 222.645,73.629 222.277,73.761C221.909,73.893 221.593,74.075 221.329,74.307L220.945,73.671C221.265,73.399 221.649,73.189 222.097,73.041C222.545,72.893 223.017,72.819 223.513,72.819ZM223.213,78.567C223.693,78.567 224.105,78.457 224.449,78.237C224.793,78.017 225.049,77.699 225.217,77.283L225.217,76.251L223.237,76.251C222.157,76.251 221.617,76.627 221.617,77.379C221.617,77.747 221.757,78.037 222.037,78.249C222.317,78.461 222.709,78.567 223.213,78.567Z" style="fill:rgb(0,131,255);fill-rule:nonzero;"/>
                    <path d="M229.201,74.103C229.401,73.679 229.699,73.359 230.095,73.143C230.491,72.927 230.981,72.819 231.565,72.819L231.565,73.647L231.361,73.635C230.697,73.635 230.177,73.839 229.801,74.247C229.425,74.655 229.237,75.227 229.237,75.963L229.237,79.179L228.385,79.179L228.385,72.867L229.201,72.867L229.201,74.103Z" style="fill:rgb(0,131,255);fill-rule:nonzero;"/>
                    <path d="M236.701,78.795C236.541,78.939 236.343,79.049 236.107,79.125C235.871,79.201 235.625,79.239 235.369,79.239C234.777,79.239 234.321,79.079 234.001,78.759C233.681,78.439 233.521,77.987 233.521,77.403L233.521,73.587L232.393,73.587L232.393,72.867L233.521,72.867L233.521,71.487L234.373,71.487L234.373,72.867L236.293,72.867L236.293,73.587L234.373,73.587L234.373,77.355C234.373,77.731 234.467,78.017 234.655,78.213C234.843,78.409 235.113,78.507 235.465,78.507C235.641,78.507 235.811,78.479 235.975,78.423C236.139,78.367 236.281,78.287 236.401,78.183L236.701,78.795Z" style="fill:rgb(0,131,255);fill-rule:nonzero;"/>
                    <path d="M241.465,72.819C242.257,72.819 242.887,73.049 243.355,73.509C243.823,73.969 244.057,74.639 244.057,75.519L244.057,79.179L243.205,79.179L243.205,75.603C243.205,74.947 243.041,74.447 242.713,74.103C242.385,73.759 241.917,73.587 241.309,73.587C240.629,73.587 240.091,73.789 239.695,74.193C239.299,74.597 239.101,75.155 239.101,75.867L239.101,79.179L238.249,79.179L238.249,72.867L239.065,72.867L239.065,74.031C239.297,73.647 239.619,73.349 240.031,73.137C240.443,72.925 240.921,72.819 241.465,72.819Z" style="fill:rgb(0,131,255);fill-rule:nonzero;"/>
                    <path d="M251.893,76.287L246.613,76.287C246.661,76.943 246.913,77.473 247.369,77.877C247.825,78.281 248.401,78.483 249.097,78.483C249.489,78.483 249.849,78.413 250.177,78.273C250.505,78.133 250.789,77.927 251.029,77.655L251.509,78.207C251.229,78.543 250.879,78.799 250.459,78.975C250.039,79.151 249.577,79.239 249.073,79.239C248.425,79.239 247.851,79.101 247.351,78.825C246.851,78.549 246.461,78.167 246.181,77.679C245.901,77.191 245.761,76.639 245.761,76.023C245.761,75.407 245.895,74.855 246.163,74.367C246.431,73.879 246.799,73.499 247.267,73.227C247.735,72.955 248.261,72.819 248.845,72.819C249.429,72.819 249.953,72.955 250.417,73.227C250.881,73.499 251.245,73.877 251.509,74.361C251.773,74.845 251.905,75.399 251.905,76.023L251.893,76.287ZM248.845,73.551C248.237,73.551 247.727,73.745 247.315,74.133C246.903,74.521 246.669,75.027 246.613,75.651L251.089,75.651C251.033,75.027 250.799,74.521 250.387,74.133C249.975,73.745 249.461,73.551 248.845,73.551Z" style="fill:rgb(0,131,255);fill-rule:nonzero;"/>
                    <path d="M254.461,74.103C254.661,73.679 254.959,73.359 255.355,73.143C255.751,72.927 256.241,72.819 256.825,72.819L256.825,73.647L256.621,73.635C255.957,73.635 255.437,73.839 255.061,74.247C254.685,74.655 254.497,75.227 254.497,75.963L254.497,79.179L253.645,79.179L253.645,72.867L254.461,72.867L254.461,74.103Z" style="fill:rgb(0,131,255);fill-rule:nonzero;"/>
                    <path d="M260.101,79.239C259.589,79.239 259.099,79.165 258.631,79.017C258.163,78.869 257.797,78.683 257.533,78.459L257.917,77.787C258.181,77.995 258.513,78.165 258.913,78.297C259.313,78.429 259.729,78.495 260.161,78.495C260.737,78.495 261.163,78.405 261.439,78.225C261.715,78.045 261.853,77.791 261.853,77.463C261.853,77.231 261.777,77.049 261.625,76.917C261.473,76.785 261.281,76.685 261.049,76.617C260.817,76.549 260.509,76.483 260.125,76.419C259.613,76.323 259.201,76.225 258.889,76.125C258.577,76.025 258.311,75.855 258.091,75.615C257.871,75.375 257.761,75.043 257.761,74.619C257.761,74.091 257.981,73.659 258.421,73.323C258.861,72.987 259.473,72.819 260.257,72.819C260.665,72.819 261.073,72.873 261.481,72.981C261.889,73.089 262.225,73.231 262.489,73.407L262.117,74.091C261.597,73.731 260.977,73.551 260.257,73.551C259.713,73.551 259.303,73.647 259.027,73.839C258.751,74.031 258.613,74.283 258.613,74.595C258.613,74.835 258.691,75.027 258.847,75.171C259.003,75.315 259.197,75.421 259.429,75.489C259.661,75.557 259.981,75.627 260.389,75.699C260.893,75.795 261.297,75.891 261.601,75.987C261.905,76.083 262.165,76.247 262.381,76.479C262.597,76.711 262.705,77.031 262.705,77.439C262.705,77.991 262.475,78.429 262.015,78.753C261.555,79.077 260.917,79.239 260.101,79.239Z" style="fill:rgb(0,131,255);fill-rule:nonzero;"/>
                </g>
            </g>
        </g>
    </g>
</svg>
